<svg width="910" height="700" viewBox="0 0 910 700" fill="none" xmlns="http://www.w3.org/2000/svg">
<mask id="mask0_7_2688" style="mask-type:alpha" maskUnits="userSpaceOnUse" x="1" y="0" width="909" height="700">
<path d="M43.8225 35.9026C44.4409 28.1399 44.7502 24.2586 45.7562 21.0428C48.9458 10.8474 57.3163 3.11723 67.7328 0.74746C71.0183 0 74.912 0 82.6993 0L910 0V700H141.123C137.708 700 136 700 134.354 699.818C129.21 699.248 124.301 697.357 120.103 694.329C118.76 693.36 117.494 692.214 114.961 689.924L14.2402 598.821C11.0299 595.917 9.42476 594.465 8.09916 592.886C3.94599 587.937 1.50114 581.78 1.12829 575.331C1.00929 573.272 1.18118 571.115 1.52496 566.8L43.8225 35.9026Z" fill="#D9D9D9"/>
</mask>
<g mask="url(#mask0_7_2688)">
<rect x="-290.93" y="-18" width="1222" height="1222" fill="#D9D9D9"/>
</g>
</svg>
