<svg width="516" height="2936" viewBox="0 0 516 2936" fill="none" xmlns="http://www.w3.org/2000/svg">
<mask id="mask0_55_2691" style="mask-type:alpha" maskUnits="userSpaceOnUse" x="0" y="0" width="516" height="2930">
<path d="M516 39C516 30.6328 516 26.4493 515.171 22.9966C512.538 12.0272 503.973 3.46244 493.003 0.828902C489.551 0 485.367 0 477 0H39C30.6328 0 26.4493 0 22.9966 0.828902C12.0272 3.46244 3.46244 12.0272 0.828902 22.9966C0 26.4493 0 30.6328 0 39V2804.28C0 2811.31 0 2814.82 0.640681 2817.87C2.66634 2827.52 9.29884 2835.55 18.3844 2839.37C21.258 2840.57 24.71 2841.24 31.6139 2842.57L469.614 2927.05C479.36 2928.93 484.232 2929.87 488.208 2929.58C500.909 2928.64 511.633 2919.79 514.959 2907.49C516 2903.65 516 2898.68 516 2888.76V39Z" fill="#D9D9D9"/>
</mask>
<g mask="url(#mask0_55_2691)">
<rect x="-24" y="-233.545" width="578" height="3429.78" fill="#D9D9D9"/>
</g>
</svg>
