<svg width="910" height="700" viewBox="0 0 910 700" fill="none" xmlns="http://www.w3.org/2000/svg">
<mask id="mask0_7_1993" style="mask-type:alpha" maskUnits="userSpaceOnUse" x="0" y="0" width="910" height="700">
<path d="M92.7539 29.8083C94.3389 23.2729 95.1313 20.0053 96.4071 17.2801C100.436 8.6735 108.305 2.48492 117.619 0.597592C120.568 0 123.93 0 130.655 0L910 0V700H39C30.6329 700 26.4493 700 22.9966 699.171C12.0272 696.538 3.46244 687.973 0.828902 677.003C0 673.551 0 669.367 0 661V416.936C0 415.862 0 415.325 0.0191028 414.79C0.0785619 413.124 0.276676 411.467 0.61139 409.834C0.718926 409.31 0.845496 408.788 1.09864 407.744L92.7539 29.8083Z" fill="#D9D9D9"/>
</mask>
<g mask="url(#mask0_7_1993)">
<rect x="-368" width="2101" height="860" fill="#D9D9D9"/>
</g>
</svg>
