<svg width="516" height="1828" viewBox="0 0 516 1828" fill="none" xmlns="http://www.w3.org/2000/svg">
<mask id="mask0_55_2514" style="mask-type:alpha" maskUnits="userSpaceOnUse" x="0" y="0" width="516" height="1826">
<path d="M0 39C0 30.6328 0 26.4493 0.828902 22.9966C3.46244 12.0272 12.0272 3.46244 22.9966 0.828902C26.4493 0 30.6328 0 39 0H477C485.367 0 489.551 0 493.003 0.828902C503.973 3.46244 512.538 12.0272 515.171 22.9966C516 26.4493 516 30.6328 516 39V1746.92C516 1754.65 516 1758.51 515.261 1761.78C512.917 1772.14 505.271 1780.49 495.156 1783.73C491.965 1784.75 488.115 1785.09 480.415 1785.77L42.4151 1824.27C33.3987 1825.06 28.8905 1825.46 25.1882 1824.86C13.3961 1822.94 3.86497 1814.21 0.923532 1802.63C0 1799 0 1794.47 0 1785.42V39Z" fill="#D9D9D9"/>
</mask>
<g mask="url(#mask0_55_2514)">
<rect y="-123.832" width="1014" height="5212.75" fill="#D9D9D9"/>
</g>
</svg>
