<svg width="516" height="3462" viewBox="0 0 516 3462" fill="none" xmlns="http://www.w3.org/2000/svg">
<mask id="mask0_55_3433" style="mask-type:alpha" maskUnits="userSpaceOnUse" x="0" y="0" width="516" height="3457">
<path d="M516 39C516 30.6328 516 26.4493 515.171 22.9966C512.538 12.0272 503.973 3.46244 493.003 0.828902C489.551 0 485.367 0 477 0H39C30.6328 0 26.4493 0 22.9966 0.828902C12.0272 3.46244 3.46244 12.0272 0.828902 22.9966C0 26.4493 0 30.6328 0 39V3348.51C0 3355.78 0 3359.42 0.67496 3362.55C2.81088 3372.45 9.79614 3380.6 19.2499 3384.23C22.2373 3385.37 25.8313 3385.93 33.0192 3387.05L471.019 3455.02C480.51 3456.49 485.256 3457.23 489.137 3456.82C501.522 3455.52 511.815 3446.7 515.002 3434.66C516 3430.89 516 3426.09 516 3416.48V39Z" fill="#D9D9D9"/>
</mask>
<g mask="url(#mask0_55_3433)">
<rect x="-242" y="-1230.38" width="892" height="10841.8" fill="#D9D9D9"/>
</g>
</svg>
