<svg width="516" height="3364" viewBox="0 0 516 3364" fill="none" xmlns="http://www.w3.org/2000/svg">
<mask id="mask0_55_3248" style="mask-type:alpha" maskUnits="userSpaceOnUse" x="0" y="0" width="516" height="3359">
<path d="M0 39C0 30.6328 0 26.4493 0.828902 22.9966C3.46244 12.0272 12.0272 3.46244 22.9966 0.828902C26.4493 0 30.6328 0 39 0H477C485.367 0 489.551 0 493.003 0.828902C503.973 3.46244 512.538 12.0272 515.171 22.9966C516 26.4493 516 30.6328 516 39V3251.43C516 3258.72 516 3262.36 515.323 3265.49C513.182 3275.4 506.178 3283.56 496.706 3287.18C493.712 3288.33 490.111 3288.88 482.909 3289.98L44.9088 3357.12C35.4309 3358.57 30.692 3359.3 26.8158 3358.88C14.4466 3357.56 4.17536 3348.74 0.996254 3336.72C0 3332.95 0 3328.16 0 3318.57V39Z" fill="#D9D9D9"/>
</mask>
<g mask="url(#mask0_55_3248)">
<rect x="-46" y="-1350.7" width="696" height="10606.8" fill="#D9D9D9"/>
</g>
</svg>
