<svg width="1800" height="180" viewBox="0 0 1800 180" fill="none" xmlns="http://www.w3.org/2000/svg">
<mask id="mask0_1_2436" style="mask-type:alpha" maskUnits="userSpaceOnUse" x="0" y="0" width="1794" height="180">
<path d="M0.500488 39.3478C0.500488 30.8845 0.504014 26.7414 1.32477 23.3427C3.94427 12.4954 12.4603 4.05456 23.3305 1.53146C26.7364 0.740911 30.8793 0.774166 39.3423 0.849301L1737.77 15.9281C1744.83 15.9908 1748.28 16.0241 1751.27 16.679C1760.74 18.7581 1768.58 25.3597 1772.25 34.3371C1773.41 37.1646 1774.03 40.5636 1775.3 47.5105L1791.11 134.084C1792.88 143.795 1793.74 148.552 1793.43 152.419C1792.41 164.825 1783.71 175.255 1771.69 178.488C1767.94 179.496 1763.11 179.5 1753.23 179.5H39.0005C30.6044 179.5 26.4944 179.497 23.1138 178.685C12.3272 176.095 3.90522 167.673 1.31558 156.887C0.503971 153.506 0.500488 149.396 0.500488 141V39.3478Z" fill="#D9D9D9" stroke="black"/>
</mask>
<g mask="url(#mask0_1_2436)">
<rect x="0.000488281" width="1800" height="180" rx="30" fill="white"/>
</g>
</svg>
