<svg width="513" height="700" viewBox="0 0 513 700" fill="none" xmlns="http://www.w3.org/2000/svg">
<mask id="mask0_1_2468" style="mask-type:alpha" maskUnits="userSpaceOnUse" x="0" y="0" width="513" height="699">
<path d="M0.000488281 39C0.000488281 30.6328 0.000488281 26.4493 0.829391 22.9966C3.46293 12.0272 12.0277 3.46244 22.9971 0.828902C26.4498 0 30.6333 0 39.0005 0H472.837C481.428 0 485.723 0 489.237 0.860074C500.411 3.59487 509.037 12.4784 511.442 23.7278C512.199 27.2657 512.072 31.5593 511.82 40.1466L494.07 643.653C493.839 651.504 493.723 655.43 492.869 658.712C490.161 669.12 482.09 677.282 471.713 680.106C468.44 680.996 464.516 681.156 456.667 681.474L40.5814 698.354C31.9113 698.705 27.5762 698.881 24.0064 698.153C12.6519 695.838 3.64621 687.19 0.872523 675.939C0.000488281 672.402 0.000488281 668.063 0.000488281 659.386V39Z" fill="#D9D9D9"/>
</mask>
<g mask="url(#mask0_1_2468)">
<rect width="513" height="700" transform="translate(0.000488281)" fill="white"/>
</g>
</svg>
