<svg width="516" height="619" viewBox="0 0 516 619" fill="none" xmlns="http://www.w3.org/2000/svg">
<mask id="mask0_17_4297" style="mask-type:alpha" maskUnits="userSpaceOnUse" x="0" y="0" width="516" height="618">
<path d="M0 39C0 30.6328 0 26.4493 0.828902 22.9966C3.46244 12.0272 12.0272 3.46244 22.9966 0.828902C26.4493 0 30.6328 0 39 0H477C485.367 0 489.551 0 493.003 0.828902C503.973 3.46244 512.538 12.0272 515.171 22.9966C516 26.4493 516 30.6328 516 39V559.177C516 567.223 516 571.245 515.216 574.607C512.729 585.273 504.626 593.737 494.078 596.686C490.754 597.615 486.735 597.79 478.698 598.141L40.6978 617.227C32.0055 617.605 27.6594 617.795 24.081 617.075C12.6983 614.784 3.65949 606.13 0.875272 594.858C0 591.314 0 586.964 0 578.264V39Z" fill="#D9D9D9"/>
</mask>
<g mask="url(#mask0_17_4297)">
<rect x="-131" y="-71" width="685" height="744" fill="#D9D9D9"/>
</g>
</svg>
