<svg width="1230" height="1174" viewBox="0 0 1230 1174" fill="none" xmlns="http://www.w3.org/2000/svg">
<path fill-rule="evenodd" clip-rule="evenodd" d="M939.598 1114.11C975.666 1148.27 1028.09 1158.34 1074.07 1139.89C1120.05 1121.44 1151.28 1077.84 1154.19 1028.04C1169.76 761.16 1192.76 366.716 1204.78 161.028C1206.84 125.7 1194.35 91.0638 1170.25 65.3356C1146.18 39.5802 1112.61 25 1077.5 25H615.003H152.505C112.897 25 75.5665 43.5365 51.4389 75.1567C27.2841 106.806 19.1044 147.943 29.2879 186.508C75.9508 363.368 151.078 648.095 203.286 845.926C215.17 890.909 250.222 925.904 294.992 937.412C339.733 948.921 387.137 935.143 418.95 901.393C436.901 882.304 454.716 863.408 471.295 845.814C519.606 794.551 599.948 792.255 651.056 840.696C728.49 914.063 841.77 1021.4 939.598 1114.11Z" stroke="#28C6D4" stroke-width="50"/>
</svg>
