<svg width="1512" height="163" viewBox="0 0 1512 163" fill="none" xmlns="http://www.w3.org/2000/svg">
<mask id="mask0_1_2694" style="mask-type:alpha" maskUnits="userSpaceOnUse" x="3" y="0" width="1500" height="163">
<path d="M15.7388 34.7286C16.6626 27.1995 17.1245 23.435 18.2309 20.3219C21.7359 10.4593 30.1278 3.13653 40.3743 0.999677C43.6085 0.325186 47.4009 0.377423 54.9857 0.481896L1442.84 19.5983C1449.25 19.6867 1452.46 19.7309 1455.3 20.325C1464.25 22.1991 1471.86 28.0531 1475.96 36.225C1477.26 38.8153 1478.13 41.9065 1479.86 48.0888L1498.15 113.494C1501.03 123.791 1502.47 128.939 1502.46 133.113C1502.41 146.485 1493.51 158.209 1480.65 161.86C1476.63 163 1471.29 163 1460.59 163H44.0778C34.7435 163 30.0764 163 26.3696 162.038C14.5516 158.971 5.77142 149.047 4.16633 136.944C3.66288 133.148 4.23127 128.515 5.36806 119.25L15.7388 34.7286Z" fill="#D9D9D9"/>
</mask>
<g mask="url(#mask0_1_2694)">
<rect width="1512" height="163" rx="30" fill="white"/>
</g>
</svg>
