<svg width="1800" height="473" viewBox="0 0 1800 473" fill="none" xmlns="http://www.w3.org/2000/svg">
<mask id="mask0_1_998" style="mask-type:alpha" maskUnits="userSpaceOnUse" x="0" y="0" width="1800" height="473">
<path d="M0 39C0 30.6328 0 26.4493 0.828902 22.9966C3.46244 12.0272 12.0272 3.46244 22.9966 0.828902C26.4493 0 30.6328 0 39 0H1761C1769.37 0 1773.55 0 1777 0.828902C1787.97 3.46244 1796.54 12.0272 1799.17 22.9966C1800 26.4493 1800 30.6328 1800 39V404.645C1800 412.887 1800 417.009 1799.19 420.426C1796.61 431.28 1788.22 439.807 1777.42 442.565C1774.01 443.433 1769.89 443.502 1761.65 443.639L39.6499 472.339C31.1577 472.481 26.9117 472.551 23.4105 471.763C12.2819 469.258 3.53718 460.657 0.8465 449.572C0 446.085 0 441.838 0 433.345V39Z" fill="#D9D9D9"/>
</mask>
<g mask="url(#mask0_1_998)">
<rect x="-239" y="-105" width="2404" height="683" fill="#D9D9D9"/>
</g>
</svg>
