<svg width="1800" height="156" viewBox="0 0 1800 156" fill="none" xmlns="http://www.w3.org/2000/svg">
<mask id="mask0_1_986" style="mask-type:alpha" maskUnits="userSpaceOnUse" x="0" y="0" width="1795" height="156">
<path d="M0 39.6565C0 31.1629 0 26.9162 0.846529 23.4286C3.5373 12.3431 12.2823 3.74283 23.4112 1.23746C26.9124 0.44926 31.1586 0.520143 39.651 0.66191L1747.25 29.1676C1754.39 29.2868 1757.97 29.3464 1761.04 30.0542C1770.76 32.2926 1778.74 39.22 1782.32 48.5357C1783.45 51.4809 1784.01 55.0079 1785.12 62.0618L1792.86 110.9C1794.36 120.412 1795.12 125.169 1794.72 129.058C1793.45 141.471 1784.62 151.8 1772.56 154.998C1768.78 156 1763.97 156 1754.34 156H39C30.6328 156 26.4493 156 22.9966 155.171C12.0272 152.538 3.46244 143.973 0.828902 133.003C0 129.551 0 125.367 0 117V39.6565Z" fill="#D9D9D9"/>
</mask>
<g mask="url(#mask0_1_986)">
<rect x="-208" y="-68" width="2153" height="287" fill="#D9D9D9"/>
</g>
</svg>
