<svg width="516" height="112" viewBox="0 0 516 112" fill="none" xmlns="http://www.w3.org/2000/svg">
<mask id="mask0_28_2501" style="mask-type:alpha" maskUnits="userSpaceOnUse" x="0" y="1" width="514" height="111">
<path d="M0 40.6646C0 31.9778 0 27.6344 0.873369 24.0944C3.6514 12.8345 12.6707 4.18433 24.0369 1.87907C27.6102 1.15433 31.9499 1.33577 40.6291 1.69863L475.189 19.8668C482.791 20.1846 486.593 20.3436 489.791 21.2002C499.926 23.9144 507.907 31.7263 510.837 41.801C511.762 44.9808 512.002 48.7777 512.482 56.3715L513.378 70.5387C513.937 79.3757 514.216 83.7943 513.548 87.4282C511.42 98.994 502.731 108.25 491.322 111.103C487.738 112 483.311 112 474.456 112H39C30.6328 112 26.4493 112 22.9966 111.171C12.0272 108.538 3.46244 99.9728 0.828902 89.0034C0 85.5507 0 81.3672 0 73V40.6646Z" fill="#D9D9D9"/>
</mask>
<g mask="url(#mask0_28_2501)">
<rect width="516" height="112" rx="30" fill="white"/>
</g>
</svg>
