<svg width="19" height="20" viewBox="0 0 19 20" fill="none" xmlns="http://www.w3.org/2000/svg">
<path d="M1.5 4.01919C1.5 3.4669 1.94772 3.01919 2.5 3.01919V3.01919C3.05228 3.01919 3.5 2.5667 3.5 2.01441V2.01441C3.5 2.00229 3.5 1.99623 3.50003 1.99246C3.50415 1.44607 3.94607 1.00415 4.49246 1.00003C4.49623 1 4.50068 1 4.50959 1H6.49041C6.49931 1 6.50377 1 6.50753 1.00003C7.05393 1.00415 7.49585 1.44607 7.49997 1.99247C7.5 1.99623 7.5 2.00069 7.5 2.00959V2.00959C7.5 2.0185 7.5 2.02295 7.50003 2.02672C7.50415 2.57311 7.94607 3.01504 8.49247 3.01916C8.49623 3.01919 8.50069 3.01919 8.50959 3.01919H10.4904C10.4993 3.01919 10.5038 3.01919 10.5075 3.01916C11.0539 3.01504 11.4959 2.57311 11.5 2.02672C11.5 2.02295 11.5 2.0185 11.5 2.00959V2.00959C11.5 2.00069 11.5 1.99623 11.5 1.99247C11.5041 1.44607 11.9461 1.00415 12.4925 1.00003C12.4962 1 12.5007 1 12.5096 1H14.4904C14.4993 1 14.5038 1 14.5075 1.00003C15.0539 1.00415 15.4959 1.44607 15.5 1.99247C15.5 1.99623 15.5 2.00229 15.5 2.01441V2.01441C15.5 2.5667 15.9477 3.01919 16.5 3.01919V3.01919C17.0523 3.01919 17.5 3.4669 17.5 4.01919V17.6754C17.5 17.9539 17.5 18.0931 17.4724 18.2081C17.3848 18.5734 17.0999 18.8587 16.7348 18.9469C16.6199 18.9747 16.4807 18.9749 16.2022 18.9754L2.80217 18.9978C2.52285 18.9983 2.38319 18.9985 2.26794 18.971C1.90175 18.8837 1.61566 18.5981 1.52769 18.232C1.5 18.1168 1.5 17.9771 1.5 17.6978V4.01919Z" stroke="black" stroke-width="2"/>
<path d="M11.5 7H13.5" stroke="black" stroke-width="2" stroke-linecap="round"/>
<path d="M5.5 7H7.5" stroke="black" stroke-width="2" stroke-linecap="round"/>
<path d="M11.5 11H13.5" stroke="black" stroke-width="2" stroke-linecap="round"/>
<path d="M5.5 11H7.5" stroke="black" stroke-width="2" stroke-linecap="round"/>
<path d="M11.5 15H13.5" stroke="black" stroke-width="2" stroke-linecap="round"/>
<path d="M5.5 15H7.5" stroke="black" stroke-width="2" stroke-linecap="round"/>
</svg>
