<svg width="19" height="18" viewBox="0 0 19 18" fill="none" xmlns="http://www.w3.org/2000/svg">
<rect x="1.25" y="1" width="16" height="16" rx="1" stroke="black" stroke-width="2"/>
<path d="M5.37602 11C5.29375 10.6804 5.25 10.3453 5.25 10C5.25 7.79086 7.04086 6 9.25 6C11.4591 6 13.25 7.79086 13.25 10C13.25 10.5305 13.1467 11.0368 12.9592 11.5" stroke="black" stroke-width="2"/>
<path d="M1.25 13L5.50045 10.4497C5.66666 10.35 5.74976 10.3001 5.833 10.2685C6.09502 10.1691 6.38676 10.1841 6.63716 10.31C6.7167 10.35 6.79423 10.4082 6.94929 10.5245L9.64873 12.549C9.78325 12.6499 9.85052 12.7004 9.92018 12.7372C10.1389 12.8528 10.3927 12.8832 10.6326 12.8226C10.709 12.8033 10.7863 12.7702 10.9408 12.7039L17.25 10" stroke="black" stroke-width="2"/>
</svg>
