<svg width="360" height="600" viewBox="0 0 360 600" fill="none" xmlns="http://www.w3.org/2000/svg">
<mask id="mask0_1_250" style="mask-type:alpha" maskUnits="userSpaceOnUse" x="0" y="0" width="360" height="600">
<path d="M0 40.0984C0 31.52 0 27.2308 0.858329 23.7201C3.58744 12.5576 12.4531 3.93475 23.6871 1.51664C27.2203 0.756119 31.5078 0.875218 40.0829 1.11341L321.423 8.92843C329.709 9.15857 333.851 9.27364 337.258 10.1865C348.078 13.0858 356.381 21.7716 358.79 32.711C359.549 36.1551 359.478 40.2987 359.335 48.5857L350.642 552.752C350.504 560.78 350.435 564.794 349.595 568.136C346.932 578.743 338.709 587.06 328.133 589.843C324.8 590.72 320.787 590.835 312.762 591.064L40.1138 598.854C31.5328 599.099 27.2423 599.222 23.7069 598.463C12.4654 596.051 3.59105 587.427 0.859176 576.259C0 572.747 0 568.454 0 559.87V40.0984Z" fill="white"/>
</mask>
<g mask="url(#mask0_1_250)">
<rect width="360" height="600" fill="white"/>
</g>
</svg>
