<svg width="880" height="546" viewBox="0 0 880 546" fill="none" xmlns="http://www.w3.org/2000/svg">
<mask id="mask0_1_1806" style="mask-type:alpha" maskUnits="userSpaceOnUse" x="0" y="0" width="880" height="546">
<path d="M0 39C0 30.6328 0 26.4493 0.828902 22.9966C3.46244 12.0272 12.0272 3.46244 22.9966 0.828902C26.4493 0 30.6328 0 39 0H841C849.367 0 853.551 0 857.003 0.828902C867.973 3.46244 876.538 12.0272 879.171 22.9966C880 26.4493 880 30.6328 880 39V487.876C880 496.074 880 500.173 879.195 503.578C876.638 514.389 868.316 522.903 857.565 525.704C854.18 526.587 850.082 526.68 841.886 526.866L39.8861 545.094C31.3487 545.288 27.08 545.385 23.5613 544.611C12.3752 542.153 3.56455 533.541 0.852943 522.413C0 518.913 0 514.643 0 506.104V39Z" fill="#D9D9D9"/>
</mask>
<g mask="url(#mask0_1_1806)">
<rect width="880" height="546" fill="white"/>
</g>
</svg>
