<svg width="880" height="546" viewBox="0 0 880 546" fill="none" xmlns="http://www.w3.org/2000/svg">
<mask id="mask0_1_1816" style="mask-type:alpha" maskUnits="userSpaceOnUse" x="0" y="0" width="880" height="546">
<path d="M880 39C880 30.6328 880 26.4493 879.171 22.9966C876.538 12.0272 867.973 3.46244 857.003 0.828902C853.551 0 849.367 0 841 0H39C30.6329 0 26.4493 0 22.9966 0.828902C12.0272 3.46244 3.46246 12.0272 0.828918 22.9966C0 26.4493 0 30.6328 0 39V487.876C0 496.074 0 500.173 0.805176 503.578C3.36188 514.389 11.684 522.903 22.4346 525.704C25.8204 526.587 29.9182 526.68 38.1139 526.866L840.114 545.094C848.651 545.288 852.92 545.385 856.439 544.611C867.625 542.153 876.435 533.541 879.147 522.413C880 518.913 880 514.643 880 506.104V39Z" fill="#D9D9D9"/>
</mask>
<g mask="url(#mask0_1_1816)">
<rect width="880" height="546" transform="matrix(-1 0 0 1 880 0)" fill="white"/>
</g>
</svg>
