<svg width="516" height="212" viewBox="0 0 516 212" fill="none" xmlns="http://www.w3.org/2000/svg">
<mask id="mask0_28_5086" style="mask-type:alpha" maskUnits="userSpaceOnUse" x="0" y="0" width="515" height="212">
<path d="M0 40.0858C0 31.5098 0 27.2218 0.857993 23.7118C3.58602 12.5514 12.4482 3.92923 23.6793 1.50862C27.2116 0.747312 31.4979 0.865028 40.0707 1.10046L469.939 12.9059C477.735 13.12 481.633 13.2271 484.9 14.0662C495.258 16.7265 503.417 24.7002 506.315 34.9949C507.229 38.2419 507.426 42.1363 507.819 49.9251L513.932 171.034C514.373 179.777 514.594 184.149 513.892 187.747C511.658 199.194 502.991 208.309 491.671 211.117C488.113 212 483.736 212 474.982 212H39C30.6328 212 26.4493 212 22.9966 211.171C12.0272 208.538 3.46244 199.973 0.828902 189.003C0 185.551 0 181.367 0 173V40.0858Z" fill="#D9D9D9"/>
</mask>
<g mask="url(#mask0_28_5086)">
<rect x="-52" y="-59" width="736" height="319" fill="#D9D9D9"/>
</g>
</svg>
