<svg width="880" height="546" viewBox="0 0 880 546" fill="none" xmlns="http://www.w3.org/2000/svg">
<mask id="mask0_1_1526" style="mask-type:alpha" maskUnits="userSpaceOnUse" x="0" y="0" width="881" height="546">
<path d="M9.28967 57.3889C9.44281 49.3339 9.51938 45.3064 10.3686 41.9574C13.0635 31.3293 21.3418 23.0179 31.9592 20.2808C35.3048 19.4183 39.3319 19.3257 47.3863 19.1406L840.104 0.917156C848.644 0.720849 852.913 0.622695 856.433 1.39524C867.621 3.85126 876.435 12.4644 879.147 23.5937C880 27.0944 880 31.3652 880 39.9069V487.876C880 496.074 880 500.173 879.195 503.578C876.639 514.389 868.317 522.903 857.566 525.704C854.18 526.587 850.082 526.68 841.887 526.866L40.6525 545.076C31.9683 545.273 27.6262 545.372 24.0674 544.579C12.7476 542.058 3.89493 533.238 1.3316 521.928C0.525733 518.372 0.608289 514.03 0.7734 505.345L9.28967 57.3889Z" fill="#D9D9D9"/>
</mask>
<g mask="url(#mask0_1_1526)">
<rect width="880" height="546" transform="translate(0.000488281)" fill="white"/>
</g>
</svg>
