<svg width="880" height="121" viewBox="0 0 880 121" fill="none" xmlns="http://www.w3.org/2000/svg">
<mask id="mask0_1_1530" style="mask-type:alpha" maskUnits="userSpaceOnUse" x="0" y="0" width="881" height="121">
<path d="M0.000488281 55.4674C0.000488281 47.2463 0.000488281 43.1357 0.808959 39.7241C3.37622 28.8907 11.7318 20.37 22.5129 17.5912C25.908 16.7162 30.0178 16.6357 38.2373 16.4749L840.237 0.778238C848.751 0.611606 853.008 0.52829 856.518 1.30935C867.674 3.79222 876.45 12.3984 879.151 23.5039C880 26.9975 880 31.2553 880 39.7708V81.6769C880 90.0441 880 94.2276 879.172 97.6802C876.538 108.65 867.973 117.214 857.004 119.848C853.551 120.677 849.368 120.677 841 120.677H39.0005C30.6333 120.677 26.4498 120.677 22.9971 119.848C12.0277 117.214 3.46293 108.65 0.829391 97.6802C0.000488281 94.2276 0.000488281 90.044 0.000488281 81.6769V55.4674Z" fill="#D9D9D9"/>
</mask>
<g mask="url(#mask0_1_1530)">
<rect width="880" height="122" transform="translate(0.000488281)" fill="white"/>
</g>
</svg>
