<svg width="880" height="121" viewBox="0 0 880 121" fill="none" xmlns="http://www.w3.org/2000/svg">
<mask id="mask0_1_1541" style="mask-type:alpha" maskUnits="userSpaceOnUse" x="0" y="0" width="881" height="121">
<path d="M880 55.4674C880 47.2463 880 43.1357 879.192 39.7241C876.625 28.8907 868.269 20.37 857.488 17.5912C854.093 16.7162 849.983 16.6357 841.764 16.4749L39.7636 0.778238C31.2498 0.611606 26.9929 0.52829 23.4833 1.30935C12.3271 3.79222 3.55078 12.3984 0.850098 23.5039C0.000488281 26.9975 0.000488281 31.2553 0.000488281 39.7708V81.6769C0.000488281 90.0441 0.000488281 94.2276 0.829407 97.6802C3.46295 108.65 12.0276 117.214 22.9971 119.848C26.4498 120.677 30.6334 120.677 39.0005 120.677H841C849.368 120.677 853.551 120.677 857.004 119.848C867.973 117.214 876.538 108.65 879.172 97.6802C880 94.2276 880 90.044 880 81.6769V55.4674Z" fill="#D9D9D9"/>
</mask>
<g mask="url(#mask0_1_1541)">
<rect width="880" height="122" transform="translate(0.000488281)" fill="white"/>
</g>
</svg>
