<svg width="1515" height="1447" viewBox="0 0 1515 1447" fill="none" xmlns="http://www.w3.org/2000/svg">
<path fill-rule="evenodd" clip-rule="evenodd" d="M1160.5 1378.63C1205.28 1421.1 1270.37 1433.61 1327.45 1410.68C1384.53 1387.74 1423.31 1333.56 1426.92 1271.66C1446.24 939.961 1474.8 449.713 1489.73 194.067C1492.28 150.158 1476.78 107.11 1446.86 75.1326C1416.97 43.1216 1375.29 25.0001 1331.71 25.0001H757.503L183.301 25.0001C134.126 25.0001 87.7795 48.0388 57.8246 87.339C27.8357 126.675 17.6804 177.804 30.3234 225.735C88.2566 445.552 181.529 799.434 246.346 1045.31C261.101 1101.22 304.619 1144.72 360.202 1159.02C415.749 1173.32 474.603 1156.2 514.098 1114.25C536.386 1090.53 558.503 1067.04 579.087 1045.18C639.065 981.462 738.812 978.608 802.265 1038.81C898.401 1130 1039.04 1263.41 1160.5 1378.63Z" stroke="#FF6B00" stroke-width="50"/>
</svg>
