<svg width="1447" height="1384" viewBox="0 0 1447 1384" fill="none" xmlns="http://www.w3.org/2000/svg">
<path fill-rule="evenodd" clip-rule="evenodd" d="M339.484 1317.12C296.814 1357.64 234.79 1369.58 180.398 1347.7C126.005 1325.81 89.049 1274.11 85.6069 1215.05C67.1946 898.544 39.9833 430.756 25.7597 186.821C23.324 144.924 38.1004 103.848 66.6115 73.3358C95.0905 42.7913 134.804 25.5 176.339 25.5H723.497L1270.65 25.5C1317.51 25.5 1361.68 47.4832 1390.22 84.983C1418.8 122.517 1428.47 171.303 1416.43 217.039C1361.22 426.786 1272.34 764.455 1210.58 999.072C1196.52 1052.42 1155.05 1093.92 1102.09 1107.57C1049.15 1121.22 993.073 1104.88 955.438 1064.85C934.2 1042.21 913.124 1019.8 893.51 998.939C836.356 938.144 741.308 935.421 680.844 992.869C589.235 1079.88 455.219 1207.18 339.484 1317.12Z" stroke="#0088FE" stroke-width="50"/>
</svg>
