<svg width="1516" height="1448" viewBox="0 0 1516 1448" fill="none" xmlns="http://www.w3.org/2000/svg">
<path fill-rule="evenodd" clip-rule="evenodd" d="M1161.02 1379.3C1205.8 1421.77 1270.89 1434.28 1327.97 1411.35C1385.05 1388.41 1423.83 1334.22 1427.44 1272.33C1446.77 940.631 1475.32 450.383 1490.25 194.737C1492.8 150.828 1477.3 107.78 1447.38 75.8025C1417.49 43.7915 1375.81 25.67 1332.23 25.67H758.025H183.822C134.647 25.67 88.3007 48.7087 58.3457 88.009C28.3568 127.345 18.2015 178.474 30.8446 226.405C88.7778 446.222 182.05 800.104 246.867 1045.98C261.622 1101.89 305.14 1145.39 360.723 1159.69C416.271 1173.99 475.124 1156.87 514.62 1114.92C536.907 1091.2 559.024 1067.71 579.608 1045.85C639.587 982.132 739.333 979.278 802.786 1039.48C898.922 1130.67 1039.56 1264.08 1161.02 1379.3Z" stroke="#FF326E" stroke-width="50"/>
</svg>
