<svg width="17" height="20" viewBox="0 0 17 20" fill="none" xmlns="http://www.w3.org/2000/svg">
<path d="M5.5 12L11.5 12" stroke="black" stroke-width="2" stroke-linecap="round"/>
<path d="M5.5 15L11.5 15" stroke="black" stroke-width="2" stroke-linecap="round"/>
<path d="M14.2 1H2.8C2.52109 1 2.38164 1 2.26655 1.02763C1.90091 1.11541 1.61541 1.40091 1.52763 1.76655C1.5 1.88164 1.5 2.02109 1.5 2.3V16.8903C1.5 17.3429 1.5 17.5692 1.54484 17.756C1.6873 18.3494 2.15062 18.8127 2.74402 18.9552C2.93079 19 3.1571 19 3.60973 19H14.2C14.4789 19 14.6184 19 14.7334 18.9724C15.0991 18.8846 15.3846 18.5991 15.4724 18.2334C15.5 18.1184 15.5 17.9789 15.5 17.7V2.3C15.5 2.02109 15.5 1.88164 15.4724 1.76655C15.3846 1.40091 15.0991 1.11541 14.7334 1.02763C14.6184 1 14.4789 1 14.2 1Z" stroke="black" stroke-width="2"/>
<rect x="5.5" y="5" width="6" height="4" rx="1" stroke="black" stroke-width="2"/>
</svg>
