<svg width="125" height="45" viewBox="0 0 125 45" fill="none" xmlns="http://www.w3.org/2000/svg">
<path fill-rule="evenodd" clip-rule="evenodd" d="M9.18014 0.326538L7.06384 6.1235H36.391L38.5073 0.326538H9.18014ZM6.00503 9.02066L3.88872 14.8163H33.2159L35.3322 9.02066H6.00503ZM2.83652 17.7148L0.720215 23.5104H30.0474L32.1624 17.7148H2.83652Z" fill="#009FDF"/>
<path fill-rule="evenodd" clip-rule="evenodd" d="M63.0679 25.7193V25.8416C64.4082 26.3335 65.6884 27.1938 66.3592 27.7462C68.4316 29.4666 69.3465 31.7395 69.3465 34.6884C69.3465 39.5432 66.786 43.0446 62.5798 44.1508C61.2995 44.5191 59.9593 44.6427 57.4588 44.6427H44.7203V9.1319H55.9972C58.3136 9.1319 59.8979 9.25421 61.2995 9.62249C65.3843 10.7287 68.0662 13.5553 68.0662 18.0392C68.0662 20.4357 67.2127 22.4639 65.8111 23.8147C65.2016 24.429 64.3481 25.1669 63.0679 25.7193ZM51.791 29.4666V38.8053H56.668C58.1296 38.8053 59.4712 38.683 60.4474 37.761C61.4222 36.8389 61.849 35.6723 61.849 34.136C61.849 32.9693 61.5436 31.8631 60.9341 31.0647C59.8979 29.7744 58.6177 29.4666 56.4239 29.4666H51.791ZM51.7297 23.3228H55.6918C56.9107 23.3228 57.5201 23.3228 58.1296 23.1386C59.7766 22.6467 60.8128 21.1736 60.8128 19.1454C60.8128 16.7502 59.7152 15.7045 58.1296 15.2139C57.4588 15.0298 56.7893 14.9679 55.4477 14.9679H51.7297V23.3228ZM79.9526 44.6427V15.0902H69.7732V9.1319H98.0575L96.0464 15.0902H87.0233V44.6427H79.9526ZM100.251 44.6427V9.1319H123.172L121.161 15.0902H107.262V22.9545H112.931C117.503 22.9545 119.88 24.0607 121.526 25.4733C122.806 26.5795 125 29.0365 125 33.8913C125 38.683 122.745 41.3242 120.855 42.6763C118.662 44.2113 116.345 44.6427 111.651 44.6427H100.251ZM107.262 38.683H112.566C114.577 38.683 115.796 38.1911 116.649 37.0849C117.076 36.5325 117.685 35.5486 117.685 33.7059C117.685 31.8631 117.076 30.5728 115.857 29.6507C115.126 29.0983 114.15 28.7919 112.504 28.7919H107.262V38.683Z" fill="#0A2973"/>
</svg>
