<svg width="317" height="42" viewBox="0 0 317 42" fill="none" xmlns="http://www.w3.org/2000/svg">
<path d="M61.7976 7.85925C66.1873 7.85925 69.7714 9.79126 71.287 11.2317L68.7542 14.3243C67.5254 13.232 64.8219 11.7233 61.7635 11.7233C56.2474 11.7233 52.8066 15.519 52.8066 20.7211C52.8066 25.9232 56.0767 29.7189 61.8386 29.7189C65.1769 29.7189 68.0579 27.9644 69.3208 26.7356L71.7102 29.9305C70.2015 31.5144 66.4399 33.5829 61.8045 33.5829C53.6873 33.5829 48.6627 28.1351 48.6627 20.7211C48.6627 13.3071 53.8307 7.85925 61.8045 7.85925H61.7976Z" fill="#003790"/>
<path d="M86.8729 7.85913C94.3893 7.85913 99.8713 13.307 99.8713 20.721C99.8713 28.1349 94.3893 33.5828 86.8729 33.5828C79.3566 33.5828 73.8746 28.1349 73.8746 20.721C73.8746 13.307 79.3566 7.85913 86.8729 7.85913ZM86.8729 29.712C91.9658 29.712 95.7274 25.8821 95.7274 20.7141C95.7274 15.5462 91.9658 11.7163 86.8729 11.7163C81.7801 11.7163 78.0185 15.5462 78.0185 20.7141C78.0185 25.8821 81.7801 29.712 86.8729 29.712Z" fill="#003790"/>
<path d="M125.698 25.8824C125.698 29.5006 123.377 33.0165 117.369 33.0165H104.261V8.42609H116.598C121.588 8.42609 124.469 11.5187 124.469 14.9935C124.469 16.9597 123.554 18.7551 121.376 20.1956C123.588 20.9329 125.698 22.5168 125.698 25.8892V25.8824ZM108.303 12.2833V18.8166L116.106 18.7825C118.885 18.7825 120.325 17.2396 120.325 15.41C120.325 13.7237 119.096 12.2833 116.638 12.2833H108.31H108.303ZM117.615 29.1456C120.462 29.1456 121.547 27.5618 121.547 25.8414C121.547 23.9777 120.25 22.469 117.683 22.469H108.303V29.1456H117.615Z" fill="#003790"/>
<path d="M141.856 20.3322L152.745 33.0165H147.373L138.272 22.2642H133.596V33.0165H129.554V8.42609H133.596V18.5776H138.272L147.161 8.42609H152.534L141.85 20.339L141.856 20.3322Z" fill="#003790"/>
<path d="M165.225 7.85913C172.741 7.85913 178.223 13.307 178.223 20.721C178.223 28.1349 172.741 33.5828 165.225 33.5828C157.708 33.5828 152.226 28.1349 152.226 20.721C152.226 13.307 157.708 7.85913 165.225 7.85913ZM165.225 29.712C170.317 29.712 174.079 25.8821 174.079 20.7141C174.079 15.5462 170.317 11.7163 165.225 11.7163C160.132 11.7163 156.37 15.5462 156.37 20.7141C156.37 25.8821 160.132 29.712 165.225 29.712Z" fill="#003790"/>
<path d="M205.415 8.42609H209.313V33.0165H205.271V14.7478L197.188 25.5342H194.731L186.648 14.7478V33.0165H182.606V8.42609H186.504L195.953 21.0421L205.401 8.42609H205.415Z" fill="#003790"/>
<path d="M227.834 18.4684C233.248 18.4684 236.197 21.6293 236.197 25.7049C236.197 29.7805 233.248 33.0165 228.114 33.0165H214.761V8.42609H233.91V12.2901H218.802V18.4752H227.834V18.4684ZM227.937 29.1525C230.749 29.1525 232.012 27.6096 232.012 25.7459C232.012 23.8821 230.749 22.3393 227.937 22.3393H218.802V29.1525H227.937Z" fill="#003790"/>
<path d="M258.644 33.0167L255.974 26.8656H244.341L241.672 33.0167H237.248L247.932 8.41943H252.397L263.081 33.0167H258.657H258.644ZM245.925 23.1791H254.39L250.171 13.3757L245.918 23.1791H245.925Z" fill="#003790"/>
<path d="M284.327 8.42609H288.368V33.0165H284.327V22.4758H270.1V33.0165H266.058V8.42609H270.1V18.6186H284.327V8.42609Z" fill="#003790"/>
<path d="M306.111 20.3322L317 33.0165H311.627L302.527 22.2642H297.85V33.0165H293.809V8.42609H297.85V18.5776H302.527L311.415 8.42609H316.788L306.104 20.339L306.111 20.3322Z" fill="#003790"/>
<path d="M0 20.722C0 32.0068 9.14801 41.1548 20.4328 41.1548C20.7059 41.1548 20.979 41.1548 21.2521 41.1343V33.3858H20.4328C13.4353 33.3858 7.76898 27.7127 7.76898 20.7151C7.76898 13.7176 13.4353 8.05128 20.4328 8.05128H21.2521V0.309604C20.979 0.302777 20.7059 0.289124 20.4328 0.289124C9.14801 0.289124 0 9.43713 0 20.722Z" fill="#FC5055"/>
<path d="M24.5167 0.69873V11.3213H20.4342C15.239 11.3213 11.0336 15.5267 11.0336 20.722C11.0336 25.9172 15.2458 30.1226 20.4342 30.1226H24.5167V40.7452C33.849 38.8541 40.8602 30.6073 40.8602 20.722C40.8602 10.8366 33.849 2.58977 24.5167 0.69873Z" fill="#003790"/>
</svg>
