<svg width="236" height="48" viewBox="0 0 236 48" fill="none" xmlns="http://www.w3.org/2000/svg">
<path d="M227.905 9.73895L219.853 18.7631V9.73895H214.026V32.5195H219.853V22.9285L228.472 32.5195H236L225.398 20.5834L235.232 9.73895H227.905Z" fill="#EF3124"/>
<path d="M203.751 18.2351H195.699V9.73895H189.868V32.5195H195.699V23.5375H203.751V32.5195H209.578V9.73895H203.751V18.2351Z" fill="#EF3124"/>
<path d="M34.5994 22.0799C34.4601 26.3296 33.9127 27.1782 31.5223 27.1782V32.5195H32.413C38.3697 32.5195 39.8014 29.4423 40.0216 22.6046L40.2646 15.0381H45.8488V32.5195H51.6759V9.73895H35.0043L34.5994 22.0799Z" fill="#EF3124"/>
<path d="M66.1609 16.6576H61.9533V9.73895H56.1262V32.5195H66.2419C72.597 32.5195 74.8611 28.3929 74.8611 24.506C74.8611 19.4886 71.703 16.6544 66.1609 16.6544M65.7172 27.4989H61.9533V21.7106H65.7172C67.7416 21.7106 68.953 22.6014 68.953 24.5027C68.953 26.566 67.7805 27.4989 65.7172 27.4989Z" fill="#EF3124"/>
<path d="M93.8386 9.21122V0.753967H88.0115V9.21122C81.3358 9.77806 76.8431 14.5136 76.8431 21.1084C76.8431 27.7032 81.3358 32.4808 88.0115 33.0477V41.628H93.8386V33.0477C100.514 32.5229 105.007 27.7453 105.007 21.1084C105.007 14.4715 100.514 9.73596 93.8386 9.21122ZM88.0115 27.5445C84.7757 27.0975 82.7512 24.6714 82.7512 21.1116C82.7512 17.5519 84.7757 15.1226 88.0115 14.6788V27.5477V27.5445ZM93.8386 27.5445V14.6756C97.0745 15.1193 99.0989 17.5486 99.0989 21.1084C99.0989 24.6681 97.0745 27.0975 93.8386 27.5412" fill="#EF3124"/>
<path d="M126.862 25.5198V17.8723C126.862 12.2881 123.302 8.76721 117.313 8.76721C111.324 8.76721 107.845 12.4922 107.56 16.3758H113.468C113.669 15.5272 114.56 14.0696 117.313 14.0696C119.58 14.0696 121.035 15.1223 121.035 17.8723H115.246C110.067 17.8723 106.99 20.5834 106.99 25.1149C106.99 29.6464 110.355 33.0863 115.204 33.0863C118.761 33.0863 120.737 31.4052 121.598 30.1322C122.366 31.6708 124.066 32.5194 126.292 32.5194H128.316V27.2592C127.263 27.2592 126.858 26.7733 126.858 25.5198M121.031 24.0233C121.031 26.6535 119.169 28.1499 116.743 28.1499C114.637 28.1499 112.979 27.3823 112.979 25.1149C112.979 22.8475 114.799 22.5269 116.377 22.5269H121.031V24.0233Z" fill="#EF3124"/>
<path d="M151.832 12.975H145.319V6.54222H160.413V0.753967H139.21V32.5197H151.836C158.835 32.5197 162.842 29.0409 162.842 22.647C162.842 16.619 158.835 12.975 151.836 12.975M151.554 26.7736H145.322V18.5171H151.554C154.79 18.5171 156.613 20.0136 156.613 22.6437C156.613 25.2739 154.793 26.7703 151.554 26.7703" fill="#EF3124"/>
<path d="M185.136 25.5198V17.8723C185.136 12.2881 181.576 8.76721 175.587 8.76721C169.598 8.76721 166.119 12.4922 165.834 16.3758H171.742C171.943 15.5272 172.834 14.0696 175.587 14.0696C177.854 14.0696 179.309 15.1223 179.309 17.8723H173.52C168.341 17.8723 165.264 20.5834 165.264 25.1149C165.264 29.6464 168.629 33.0863 173.478 33.0863C177.035 33.0863 179.011 31.4052 179.872 30.1322C180.64 31.6708 182.341 32.5194 184.566 32.5194H186.59V27.2592C185.537 27.2592 185.133 26.7733 185.133 25.5198M179.305 24.0233C179.305 26.6535 177.443 28.1499 175.017 28.1499C172.912 28.1499 171.253 27.3823 171.253 25.1149C171.253 22.8475 173.073 22.5269 174.651 22.5269H179.305V24.0233Z" fill="#EF3124"/>
<path d="M31.16 41.3171H0V47.7921H31.16V41.3171Z" fill="#EF3124"/>
<path d="M21.2451 5.11379C20.3543 2.46422 19.3308 0.371765 15.8228 0.371765C12.3149 0.371765 11.2233 2.4545 10.2905 5.11379L0.647705 32.5197H7.04166L9.26692 26.0059H21.569L23.6323 32.5197H30.4311L21.2451 5.11379ZM11.1294 20.5027L15.4989 7.51395H15.6609L19.7875 20.5027H11.1262H11.1294Z" fill="#EF3124"/>
</svg>
