<svg width="333" height="49" viewBox="0 0 333 49" fill="none" xmlns="http://www.w3.org/2000/svg">
<path d="M52.1603 1.67194H0.828552V47.4106H52.1603V1.67194Z" fill="#E41A19"/>
<path d="M72.0665 13.5472H62.2853V33.9713H66.1819V26.1649H73.4582C78.0705 26.1649 80.085 24.1503 80.085 19.6573C80.085 14.0244 75.9234 13.5605 72.0135 13.5605L72.0665 13.5472ZM76.1619 19.9224C76.1619 22.5731 75.1281 23.0237 72.6364 23.0237H66.1819V16.6884H72.6895C74.9161 16.6884 76.215 17.2186 76.215 19.9091L76.1619 19.9224ZM155.313 13.5472H160.032L151.682 23.5274L160.999 33.9713H156.148L148.276 25.2371H144.83V33.9713H140.933V13.5472H144.83V22.0827H148.302L155.313 13.5472ZM165.214 20.7839C166.762 19.9391 168.518 19.5529 170.277 19.6705H170.29C175.857 19.6705 178.123 21.7116 178.123 26.7215C178.123 33.0303 175.115 34.2629 169.933 34.2629C168.418 34.3035 166.912 33.9998 165.532 33.3749V40.744H161.768V19.8561H165.095L165.214 20.7839ZM169.946 22.4671C168.66 22.3738 167.371 22.6014 166.195 23.1298V23.1165C166.044 23.1947 165.913 23.3036 165.809 23.4361C165.703 23.5685 165.627 23.7216 165.585 23.8852C165.556 24.3929 165.556 24.9018 165.585 25.4094V29.5181C165.548 29.777 165.589 30.0411 165.703 30.277C165.816 30.5129 165.996 30.7099 166.222 30.8434C167.113 31.3275 168.11 31.5782 169.124 31.5724C172.756 31.5724 174.426 31.5591 174.426 27.3312C174.426 23.1033 173.829 22.4671 169.946 22.4671ZM237.023 22.878H242.563V33.9713H246.221V22.878H251.867V19.8296H237.023V22.878ZM196.255 26.0721C196.259 26.594 196.201 27.1147 196.082 27.6228L196.029 27.9144H183.955C184.008 31.2146 184.75 31.5326 188.395 31.5326C192.04 31.5326 192.504 31.4134 192.504 29.4385V29.0409H196.135V29.4385C196.23 30.0101 196.203 30.5951 196.059 31.1562C195.917 31.7175 195.658 32.2427 195.3 32.699C193.697 34.2497 190.648 34.2497 188.395 34.2497C181.98 34.2497 180.231 32.7652 180.231 27.0661C180.231 21.367 182.139 19.6308 188.395 19.6308C193.484 19.6308 196.255 20.6646 196.255 26.0721ZM192.636 25.1841C192.557 22.8382 191.708 22.3213 188.382 22.3213C186.314 22.3213 185.241 22.5731 184.644 23.1695C184.179 23.734 183.947 24.4545 183.995 25.1841H192.636ZM222.815 30.6446V19.8296H219.236V33.9713H224.101L231.761 23.1298V33.9713H235.287V19.8296H230.197L222.815 30.6446ZM201.583 19.8296H214.81V31.029H216.745V38.0003H213.511V34.0243H200.615V38.0003H197.434V31.029H198.759C200.231 30.976 201.039 29.7566 201.172 27.4372L201.583 19.8296ZM211.258 31.029V22.7189H204.909L204.512 27.8348C204.492 28.9891 204.107 30.1074 203.411 31.029H211.258ZM308.699 25.4227H301.184V19.8561H297.553V33.9713H301.184V28.0337H308.699V33.9713H312.304V19.8561H308.699V25.4227ZM263.027 21.4465H267.454C272.622 21.4465 277.089 21.4863 277.089 27.7288C277.089 33.9713 271.271 33.9713 267.427 33.9713H259.13V13.5472H275.393V16.7016H263.027V21.4465ZM263 30.9495H269.627V30.8965C272.066 30.8965 273.1 29.9422 273.1 27.6758C273.1 24.9985 272.026 24.5479 269.627 24.5479H263V30.9495ZM286.433 19.644C284.75 19.644 279.62 19.644 279.62 23.09V24.4154H283.252V24.031C283.187 23.6165 283.287 23.1931 283.53 22.8514C284.435 22.3954 285.457 22.2287 286.459 22.3743C289.76 22.3743 290.714 22.8382 290.714 24.4684V25.0251H284.736C282.231 25.0251 278.905 25.5022 278.905 29.5843C278.905 33.6665 283.066 34.2762 286.194 34.2762C287.871 34.3433 289.531 33.9147 290.966 33.0436L291.085 33.9713H294.412V25.8733C294.412 21.2212 294.027 19.6175 286.459 19.6175L286.433 19.644ZM290.74 28.6963C290.74 30.1012 290.74 30.2603 290.104 30.6711C288.895 31.246 287.558 31.506 286.221 31.4266C283.57 31.4266 282.669 31.1218 282.669 29.4385C282.669 27.7553 283.61 27.583 286.3 27.583H290.74V28.6963ZM330.753 19.8561L324.272 26.6818L332.172 33.9713H327.347L320.985 28.0469H318.971V33.9713H315.459V19.8561H318.971V25.4227H321.091L326.141 19.8561H330.753ZM98.7148 25.6327C98.5684 25.1349 98.5251 24.6125 98.5874 24.0973H98.5742C98.5742 19.8296 102.497 19.8296 105.36 19.8296H112.915V33.9713H109.336V28.4048H106.275C105.095 29.8494 101.702 33.8255 101.702 33.8255L101.556 33.9713H97.5008L98.0308 33.3219C98.0367 33.3161 98.1623 33.1624 98.372 32.9057L98.3782 32.8981L98.3795 32.8966C99.1181 31.9925 100.873 29.8441 102.126 28.365C101.608 28.331 101.103 28.1917 100.641 27.9558C100.179 27.7197 99.7698 27.392 99.4386 26.9927C99.1073 26.5933 98.8611 26.1304 98.7148 25.6327ZM109.336 22.5864H104.591C102.776 22.5864 102.285 23.143 102.285 24.2563C102.285 25.3697 102.55 25.7673 104.035 25.7673H109.336V22.5864ZM88.2235 19.644C82.0176 19.6465 80.0189 21.4769 80.0189 27.1722C80.0189 32.8713 81.8612 34.2629 88.2363 34.2629C94.6113 34.2629 96.2548 32.7917 96.3873 27.477V27.0794C96.3873 21.3182 94.5609 19.6464 88.2235 19.644ZM88.2097 31.5724C84.2338 31.5724 83.942 31.2808 83.942 27.0926C83.942 22.9045 84.3264 22.4273 88.2363 22.4273C92.1461 22.4273 92.504 22.7719 92.504 27.0794C92.504 31.3868 92.2786 31.5591 88.2363 31.5591L88.2097 31.5724ZM116.136 31.1748C117.461 31.1748 117.938 30.4061 118.071 28.2192L118.495 19.8296H131.722V33.8653H128.064V22.6924H122.033L121.689 28.5373C121.49 31.97 119.886 33.9448 117.236 33.9448C116.549 33.9503 115.863 33.9104 115.181 33.8255H114.81L115.075 31.1748H116.136Z" fill="#005177"/>
<path d="M36.0164 6.30961C35.781 6.63963 35.4947 6.93038 35.1682 7.17111C34.842 6.93022 34.5557 6.63963 34.3199 6.30961C34.5557 5.97959 34.842 5.68884 35.1682 5.44812C35.4945 5.68884 35.7808 5.97959 36.0164 6.30961ZM35.7515 8.54949V10.1532H34.784V8.52299C34.2406 8.39045 33.5911 8.29767 33.5911 8.64227C33.6408 9.20257 33.8226 9.74299 34.1213 10.2195C33.9778 10.2461 33.8428 10.2854 33.7137 10.323C33.5211 10.3792 33.3416 10.4315 33.167 10.4315C32.7081 9.798 32.4 9.06821 32.2658 8.29767C32.3188 7.11809 34.1478 7.47594 34.7707 7.64824L35.2876 7.78078L35.8045 7.64824C36.4142 7.47594 38.2962 7.13134 38.2962 8.31093C38.1751 9.08478 37.8756 9.81986 37.4215 10.458C37.3163 10.439 37.2059 10.406 37.091 10.3717C36.8873 10.3111 36.6695 10.246 36.4407 10.246C36.7387 9.76917 36.9205 9.22891 36.9708 8.66878C36.9178 8.32418 36.3082 8.4037 35.7515 8.54949ZM37.2359 10.8689C36.5976 10.7079 35.945 10.6101 35.2876 10.5773C34.6175 10.6053 33.9516 10.6986 33.2996 10.8556L33.6044 11.9159C34.1536 11.7697 34.7192 11.6939 35.2876 11.6906C35.863 11.6958 36.4346 11.7851 36.9841 11.9557L37.2359 10.8689ZM29.2174 41.8562H25.7847L25.7979 41.8164V41.1007L25.1485 41.7899V40.8489C25.1467 40.6835 25.1917 40.521 25.2786 40.3804C25.3654 40.2395 25.4903 40.1262 25.6389 40.0536C25.9162 40.0205 26.1965 40.0205 26.4739 40.0536C26.9812 39.9846 27.4576 39.7702 27.8458 39.4362C28.2338 39.1022 28.5169 38.663 28.6607 38.1716C27.9164 36.8839 27.4386 35.4596 27.2559 33.9834C27.2559 31.9424 28.5812 30.2989 31.6693 30.2989C32.7775 30.3592 33.865 30.6243 34.8767 31.0809C34.8767 31.0809 30.9006 35.1498 30.9006 36.4751C31.2136 37.1151 31.4452 37.7921 31.5898 38.4897C30.9215 39.6935 30.1263 40.822 29.2174 41.8562ZM45.6255 22.0816L45.4135 21.7502C45.7653 21.5423 46.1621 21.4217 46.5704 21.3987C46.9784 21.3757 47.3861 21.4507 47.7594 21.6177C46.7388 19.5899 44.2471 20.173 44.1676 21.9888C43.7687 22.2453 43.4438 22.6015 43.2251 23.0224C43.0066 23.4432 42.902 23.9139 42.9218 24.3877C42.9218 25.675 43.8063 27.701 44.5213 29.3385C45.0064 30.4495 45.4135 31.3816 45.4135 31.7833C45.4398 31.9356 45.4314 32.092 45.3886 32.2404C45.3459 32.3888 45.2698 32.5257 45.1664 32.6407C45.0631 32.7555 44.935 32.8454 44.7919 32.9036C44.6486 32.9617 44.4942 32.9866 44.3399 32.9762C43.7965 32.9762 43.2531 32.5918 42.3916 31.4387C41.3881 29.9841 40.1039 28.7449 38.6143 27.7939L36.0828 26.0179L39.6348 23.3672L39.8999 24.6926C40.4927 23.8549 40.8898 22.8949 41.0618 21.8833C41.2339 20.8717 41.1764 19.8343 40.8939 18.8477C40.8939 18.7718 40.8456 18.6262 40.7969 18.4789C40.7689 18.3949 40.7409 18.3104 40.7216 18.238L41.6362 18.5826V18.1187C41.0132 14.898 38.6541 12.3798 35.4069 12.3798C34.5071 12.3614 33.6108 12.496 32.7561 12.7774L32.9019 13.5196C32.5441 13.6919 30.4765 14.5534 30.4765 14.5534C30.4662 15.3114 30.7514 16.0435 31.2717 16.5945C31.8807 16.6999 32.5055 16.6681 33.1007 16.5017C33.1944 16.6223 33.2525 16.7666 33.2686 16.9184C33.2848 17.0702 33.2583 17.2236 33.1924 17.3611C33.1263 17.4988 33.0232 17.6152 32.8947 17.6976C32.7661 17.7799 32.6172 17.8248 32.4646 17.8271H31.5368C31.5166 18.0157 31.5494 18.206 31.6312 18.3768C31.7132 18.5476 31.8411 18.6924 32.0007 18.7947C32.6548 18.8207 33.3098 18.8074 33.9622 18.7549C34.2045 18.7682 34.446 18.7176 34.6627 18.6088C34.8794 18.4998 35.064 18.3361 35.1978 18.1338C35.3318 17.9315 35.4105 17.6977 35.4263 17.4557C35.442 17.2135 35.3943 16.9716 35.2876 16.7536C35.2406 16.5205 35.1554 16.2965 35.0358 16.0909C35.2659 16.2386 35.4626 16.4328 35.6133 16.6611C35.7639 16.8894 35.8651 17.1466 35.9105 17.4163C35.9889 17.6365 36.0152 17.8719 35.9872 18.104C35.9592 18.3359 35.8779 18.5582 35.7493 18.7536C35.6209 18.9489 35.449 19.1116 35.2469 19.2292C35.0449 19.3467 34.8184 19.4158 34.5852 19.4308C33.9825 19.5453 33.6922 19.5804 33.4203 19.6132C33.0941 19.6527 32.7944 19.6888 32.0139 19.855C31.2871 20.0394 30.6193 20.4065 30.0743 20.9216C29.5292 21.4365 29.1248 22.0821 28.8993 22.7973L27.004 23.5262L26.1293 23.8576C25.24 24.1208 24.3821 24.4808 23.5713 24.9311C23.0554 25.338 22.7027 25.9166 22.5773 26.5613C22.4784 26.7683 22.4272 26.9947 22.4272 27.224C22.4272 27.4535 22.4784 27.6798 22.5773 27.8867C23.0736 28.2423 23.6777 28.4155 24.287 28.3771L23.6111 27.7144L24.4858 27.6084C24.8187 27.3451 25.0599 26.9833 25.175 26.5746L26.5004 26.7469C27.4066 26.8816 28.3322 26.7335 29.1511 26.3228C29.561 27.1518 30.1945 27.8496 30.9801 28.3373L31.6959 28.7747C33.6309 29.7555 37.7263 31.2797 37.7263 31.2797C37.7235 31.3612 37.6958 31.4399 37.6468 31.505C36.446 32.646 35.7374 34.2104 35.672 35.8655C35.672 38.0523 39.1577 38.0391 39.1577 38.0391H40.0855C39.8999 38.8873 39.2637 40.0669 38.5613 40.0669C38.2397 40.0318 37.9153 40.0318 37.5938 40.0669C37.4521 40.1423 37.334 40.2551 37.2521 40.3929C37.1705 40.5308 37.1281 40.6885 37.1299 40.8489V41.7501L37.7661 41.0742V41.7501H41.2783L41.5301 41.22C42.2733 39.9526 42.848 38.5937 43.2399 37.1776C43.2399 36.5308 40.555 35.9307 40.2356 35.8593C40.2147 35.8547 40.2047 35.8522 40.2047 35.8522C40.6168 34.508 40.9488 33.1405 41.1988 31.7568C42.4049 33.4003 43.5049 34.0232 44.3001 34.0232C44.8311 34.0268 45.3424 33.8221 45.7241 33.4528C46.1058 33.0835 46.3273 32.5794 46.3412 32.0484C46.3412 31.3277 46.041 30.6253 45.5158 29.396C45.2685 28.8168 44.971 28.1207 44.6315 27.2505L44.5354 27.0017C43.8467 25.2196 43.2833 23.762 44.5122 22.837L44.5652 23.0226C44.7876 23.2047 45.0561 23.3215 45.3409 23.3597C45.6257 23.3982 45.9156 23.3566 46.1782 23.2396C46.4408 23.1228 46.6656 22.9353 46.8278 22.6981C46.99 22.4608 47.0831 22.1831 47.0967 21.896C46.5998 21.7801 46.078 21.8458 45.6255 22.0816ZM33.3128 13.6919C33.861 13.6172 34.4193 13.6905 34.9298 13.904C33.7767 14.6462 33.167 14.4872 33.3128 13.6919ZM27.5872 16.5945L28.1041 17.244L30.1319 19.8815C29.2012 20.3742 28.127 20.5243 27.0968 20.3056C25.4931 19.8815 25.1883 17.6548 25.1883 17.6548L25.0292 16.409C24.644 16.4461 24.2565 16.3677 23.9159 16.1836L23.5978 15.4547L23.2135 16.2102C23.0251 15.6921 23.0251 15.1243 23.2135 14.6064C23.3596 14.4613 23.5375 14.3523 23.733 14.2879C23.9285 14.2234 24.1364 14.2054 24.34 14.2353C24.9297 14.1712 25.5226 14.3218 26.01 14.6595C26.6051 15.2448 27.1339 15.8937 27.5872 16.5945Z" fill="white"/>
</svg>
