<svg width="255" height="55" viewBox="0 0 255 55" fill="none" xmlns="http://www.w3.org/2000/svg">
<path fill-rule="evenodd" clip-rule="evenodd" d="M0 27.3082C0 42.164 12.0547 54.2187 26.9105 54.2187C41.7663 54.2187 53.821 42.164 53.821 27.3082C53.821 12.4525 41.7663 0.397766 26.9105 0.397766C12.0547 0.397766 0 12.4525 0 27.3082ZM0.95037 27.3082C0.95037 12.9527 12.6049 1.29812 26.9605 1.29812C41.3161 1.29812 52.9706 12.9527 52.9706 27.3082C52.9706 41.6138 41.3161 53.2684 26.9605 53.2684C12.6049 53.3184 0.95037 41.6638 0.95037 27.3082Z" fill="#00487C"/>
<path fill-rule="evenodd" clip-rule="evenodd" d="M8.40292 19.9553C15.3056 15.4536 22.9086 12.8026 35.8136 15.0534C36.5139 14.6533 36.914 14.2531 37.1141 13.4028C33.9128 12.2523 30.4115 11.8522 25.9097 11.9022C21.8582 12.0022 14.5553 13.5028 10.6538 15.8037L11.8543 14.3031C14.6053 12.7025 21.7081 10.6017 27.0102 10.4516C30.7616 10.4016 32.7124 10.6017 37.1641 11.8022C36.764 11.0519 35.8636 10.6517 34.5131 10.0515C30.2114 8.10072 22.1083 7.95066 15.5057 10.8518C16.356 10.3016 17.1563 9.80138 18.2568 9.30119C20.4576 8.3008 24.009 7.35043 28.4607 7.40045C32.0121 7.45047 36.2638 8.70096 38.8648 11.252C39.315 11.7521 39.5651 12.3024 39.6651 12.7525C41.7159 13.8029 42.9164 14.7533 43.5666 15.9038C43.8167 16.504 43.9668 17.1542 43.8167 17.8545C44.667 18.3547 45.0672 18.8049 45.5174 19.3551C45.8175 19.8053 46.0676 20.3555 46.1176 20.8557C46.2176 21.5059 46.2677 22.2062 45.6174 23.0565C46.3177 23.4067 46.8679 24.3571 46.9679 24.8072C47.2681 26.3578 46.3177 27.8584 44.9672 29.0589C43.4666 30.4094 40.1153 31.96 37.4142 32.6603C32.0121 34.0108 27.2603 34.611 23.4588 35.3113C25.1594 35.7115 27.4603 36.2617 31.2618 36.2617C39.315 36.2617 46.4177 32.4602 46.4177 32.4602C46.4177 32.4602 46.2677 32.9604 46.1176 33.4106C41.0156 36.5118 32.8624 37.8123 29.4111 37.6622C25.8597 37.5122 22.9086 36.962 20.0074 36.0616C19.1071 36.3117 18.2568 36.5618 17.4064 36.962C21.8081 38.9627 25.1594 39.4129 28.9609 39.713C32.8124 40.0131 39.1649 39.0628 44.567 37.112C44.3169 37.3621 44.2169 37.7623 43.9668 37.9624C41.2157 39.4129 35.3634 40.8635 32.4623 40.9635C29.5612 41.0636 26.0098 40.9635 22.9086 40.4133C20.2575 39.9131 18.0567 39.0628 15.8058 38.0624C15.4056 38.3625 15.2056 38.7627 15.1055 39.2128C23.7589 43.8146 32.0621 43.9147 41.5158 40.9635L40.6655 41.8139C30.2614 46.0155 22.1583 44.3648 15.8558 41.3637C15.6557 41.2636 15.4056 41.1636 15.2056 41.0636C15.8058 42.0639 20.6077 45.5653 25.9598 46.0155C29.6612 46.3156 34.1629 45.6654 36.864 44.6149L35.2634 45.4153C33.9629 46.0655 30.5115 47.5161 25.7097 47.1659C19.3072 46.7158 15.7058 43.9147 14.0551 42.4141C13.3048 41.7138 12.9547 40.9135 12.7046 39.9131C11.254 39.1628 10.3537 38.3625 9.60338 37.2121C9.15321 36.5118 9.25325 35.7615 9.35329 35.1112L9.50334 34.511C8.80307 34.0108 8.1028 33.4606 7.80268 32.9104C7.15243 31.7599 7.55258 30.8096 8.00276 30.0093C7.6026 29.5591 7.25247 29.1589 7.10241 28.7087C6.95235 28.1585 6.90233 27.6583 6.95235 27.1081C7.05239 26.1578 7.6026 25.2574 8.25286 24.5071C9.6534 22.9065 11.8543 21.656 15.6557 20.4055C19.3572 19.205 20.8077 19.005 23.6088 18.3547C26.8601 17.6044 30.7616 17.3543 34.0129 16.2039C24.9594 14.6033 15.5057 16.0538 7.8527 21.3559L8.40292 19.9553ZM39.2649 14.3532C39.1649 14.8033 38.6647 15.3035 38.3646 15.6537C39.365 15.9038 40.3654 16.2539 41.3157 16.6541C41.1657 15.7537 40.1653 14.9034 39.2649 14.3532ZM11.3541 32.4602C10.7538 32.1101 10.3537 31.91 9.9035 31.5599C9.6534 32.1101 10.1536 32.7603 10.6538 33.0604C10.8539 32.8604 11.104 32.6603 11.3541 32.4602ZM41.916 20.6056C42.5662 20.9057 43.1665 21.1558 43.7167 21.556C44.1168 20.7557 43.8667 20.2555 43.0164 19.5552C42.7163 19.9553 42.3161 20.3055 41.916 20.6056ZM39.9652 21.8061C38.6647 22.4063 36.7139 23.0565 34.0129 23.7568C31.812 24.307 26.3599 25.1073 20.5076 26.3578C18.6569 26.758 13.655 27.9585 11.204 30.0093C11.9043 30.5595 12.3044 30.7095 13.1047 31.1097C14.1051 30.4594 15.5057 29.8592 17.5565 29.309C21.1579 28.3586 23.8089 27.9585 27.0602 27.4082C30.2614 26.908 36.2638 25.6576 39.6151 24.4571C40.7155 24.0569 41.7159 23.5567 42.4662 22.9565C42.2161 22.7564 40.0652 21.706 39.9652 21.8061ZM14.7554 35.7615C15.2556 35.4614 15.8558 35.1613 16.5061 34.9112C15.5557 34.511 14.6053 34.1109 13.655 33.6607C13.2048 33.9108 12.8046 34.2109 12.5045 34.511C13.2548 34.9112 13.9551 35.3613 14.7554 35.7615ZM11.6542 36.0616C11.6542 36.6618 12.0043 37.2121 12.8046 37.8623C12.9047 37.5122 13.0547 37.3121 13.3048 37.012C12.7046 36.7119 12.2044 36.3617 11.6542 36.0616ZM16.206 24.9573C22.7585 23.0565 29.6612 22.4563 36.6639 20.6056C33.9129 19.8553 32.4623 19.5552 29.5612 19.9053C25.3595 20.4055 20.7577 21.3059 16.8062 22.4563C15.2556 22.9065 7.10241 25.2074 9.45333 28.4587C9.45333 28.5087 10.8539 26.5579 16.206 24.9573ZM40.8155 18.2547C39.7651 17.7545 38.4146 17.3043 36.964 16.9042C36.3138 17.4043 35.6135 17.8545 34.5131 18.2547C36.2638 18.5548 37.6143 19.055 39.1149 19.5052C39.415 19.6552 40.6155 18.5048 40.8155 18.2547ZM44.0668 24.5571C43.8667 24.7072 43.6666 24.9073 43.4165 25.0573C41.916 26.2078 39.5651 27.1081 36.3138 28.0085C29.5612 29.8092 24.6592 30.1093 19.0571 31.4598C17.9566 31.7099 16.8562 32.1101 15.8058 32.5102C16.8562 33.0604 17.9566 33.5106 19.1071 33.9608C21.358 33.3105 22.4584 33.0104 25.7597 32.4602C27.0102 32.2601 30.8617 31.5599 33.6628 30.9596C38.6647 29.9592 46.0176 27.6083 44.0668 24.5571Z" fill="#00487C"/>
<path fill-rule="evenodd" clip-rule="evenodd" d="M79.5805 39.0128H85.1327L85.7829 34.9612H89.5844L90.2346 39.0128H95.7868L91.085 15.4536H84.1823L79.5805 39.0128ZM87.7337 22.5564L88.7841 29.7592H86.7333L87.7337 22.5564Z" fill="#00487C"/>
<path fill-rule="evenodd" clip-rule="evenodd" d="M101.09 24.6077C101.99 24.6077 103.591 24.0575 103.591 22.3068C103.591 20.256 101.69 20.1059 101.19 20.1059C100.54 20.1059 99.3891 20.206 98.1886 20.7562L98.1386 15.6542C99.9893 15.204 101.34 15.054 102.89 15.054C107.342 15.054 109.393 18.2052 109.393 21.2564C109.393 24.2575 107.642 26.0582 105.992 26.7585V27.0086C107.592 27.5088 109.743 29.0594 109.743 32.6608C109.743 37.1125 106.642 39.5635 102.69 39.5635C100.54 39.5635 99.189 39.2634 97.5384 38.363L97.6384 33.4611C99.189 34.1114 100.239 34.1614 101.29 34.1614C103.041 34.1614 103.741 32.8609 103.741 31.9105C103.741 30.61 102.89 29.7097 101.04 29.7097H98.7888V24.6077H101.09Z" fill="#00487C"/>
<path fill-rule="evenodd" clip-rule="evenodd" d="M127.249 39.0128H121.747V21.1058H117.796V39.0128H112.293V15.4536H127.249V39.0128Z" fill="#00487C"/>
<path fill-rule="evenodd" clip-rule="evenodd" d="M130.351 39.0128H135.803V31.2598H137.654C143.056 31.2598 144.757 26.4079 144.757 23.3067C144.757 20.2555 142.856 15.4536 137.654 15.4536H130.351V39.0128ZM135.803 20.6556H137.104C138.354 20.6556 139.104 21.4059 139.104 23.3567C139.104 25.9077 137.804 26.0577 137.104 26.0577H135.803V20.6556Z" fill="#00487C"/>
<path fill-rule="evenodd" clip-rule="evenodd" d="M154.86 39.3126C161.363 39.3126 163.513 33.2603 163.513 27.2079C163.513 21.1556 161.312 15.1032 154.86 15.1032C148.357 15.1032 146.207 21.1556 146.207 27.2079C146.207 33.2603 148.407 39.3126 154.86 39.3126ZM154.86 33.6104C152.959 33.6104 151.959 31.3595 151.959 27.2079C151.959 23.0563 152.959 20.8054 154.86 20.8054C156.811 20.8054 157.761 23.0563 157.761 27.2079C157.811 31.3595 156.811 33.6104 154.86 33.6104Z" fill="#00487C"/>
<path fill-rule="evenodd" clip-rule="evenodd" d="M187.323 39.0128H193.876C195.276 39.0128 201.179 38.4126 201.229 31.3098C201.229 25.3075 196.627 24.257 193.676 24.257H192.725V21.1558H199.978V15.4536H187.373V39.0128H187.323ZM192.725 34.311V28.9589H193.526C194.176 28.9589 195.877 29.0089 195.877 31.4098C195.877 33.9108 194.126 34.311 193.526 34.311H192.725Z" fill="#00487C"/>
<path fill-rule="evenodd" clip-rule="evenodd" d="M235.392 39.0128H230.09V29.6091H226.238V39.0128H220.886V15.4536H226.238V23.9569H230.09V15.4536H235.392V39.0128Z" fill="#00487C"/>
<path fill-rule="evenodd" clip-rule="evenodd" d="M254.4 15.4536L250.198 26.658L255 39.0128H248.697L245.646 29.5591H244.346V39.0128H238.994V15.4536H244.346V23.9569H245.496L248.597 15.4536H254.4Z" fill="#00487C"/>
<path fill-rule="evenodd" clip-rule="evenodd" d="M69.0271 15.4536H80.2314V21.3559H74.5792V39.0128H69.0271V15.4536Z" fill="#00487C"/>
<path fill-rule="evenodd" clip-rule="evenodd" d="M178.22 39.0128V24.6572L174.918 28.7588L171.617 24.6572V39.0128H166.165V15.4536H170.817L174.918 21.0058L179.02 15.4536H183.672V39.0128H178.22Z" fill="#00487C"/>
<path fill-rule="evenodd" clip-rule="evenodd" d="M202.279 39.0629H207.832L208.482 35.0113H212.283L212.984 39.0629H218.536L213.834 15.5037H206.931L202.279 39.0629ZM210.433 22.6065L211.483 29.8093H209.432L210.433 22.6065Z" fill="#00487C"/>
</svg>
