<svg width="425" height="120" viewBox="0 0 425 120" fill="none" xmlns="http://www.w3.org/2000/svg">
<path d="M425 100.5C425 104.684 425 106.775 424.586 108.502C423.269 113.986 418.986 118.269 413.502 119.586C411.775 120 409.684 120 405.5 120L20.205 120C15.6954 120 13.4406 120 11.627 119.54C5.85129 118.077 1.48938 113.334 0.513947 107.456C0.207672 105.61 0.39624 103.363 0.773376 98.8692L7.57126 17.8692C7.89563 14.0041 8.0578 12.0715 8.56516 10.47C10.1734 5.39317 14.353 1.54971 19.5465 0.371628C21.1848 0 23.1242 0 27.0029 0H405.5C409.684 0 411.775 0 413.502 0.414452C418.986 1.73122 423.269 6.01359 424.586 11.4983C425 13.2246 425 15.3164 425 19.5V100.5Z" fill="white"/>
</svg>
