<svg width="296" height="130" viewBox="0 0 296 130" fill="none" xmlns="http://www.w3.org/2000/svg">
<path d="M0 19.5C0 15.3164 0 13.2246 0.414451 11.4983C1.73122 6.01359 6.01359 1.73122 11.4983 0.414451C13.2246 0 15.3164 0 19.5 0H260.844C264.47 0 266.284 0 267.845 0.336052C272.783 1.39941 276.855 4.87736 278.677 9.58913C279.253 11.0782 279.537 12.8693 280.104 16.4516L294.507 107.452C295.259 112.208 295.636 114.586 295.436 116.53C294.8 122.736 290.389 127.9 284.359 129.499C282.469 130 280.062 130 275.246 130H19.5C15.3164 130 13.2246 130 11.4983 129.586C6.01359 128.269 1.73122 123.986 0.414451 118.502C0 116.775 0 114.684 0 110.5V19.5Z" fill="white"/>
</svg>
