<svg width="333" height="130" viewBox="0 0 333 130" fill="none" xmlns="http://www.w3.org/2000/svg">
<path d="M317.966 17.0458C317.391 13.3456 317.104 11.4955 316.511 9.97097C314.631 5.14281 310.393 1.62657 305.3 0.670603C303.692 0.368747 301.821 0.428094 298.079 0.546787L18.8819 9.40118C14.8181 9.53006 12.7862 9.5945 11.1066 10.0459C5.77484 11.479 1.66125 15.725 0.397949 21.0996C0 22.7926 0 24.8255 0 28.8914V101.073C0 105.145 0 107.182 0.398956 108.877C1.66544 114.258 5.78906 118.506 11.1301 119.933C12.8125 120.382 14.848 120.443 18.919 120.564L312.051 129.301C316.982 129.448 319.447 129.522 321.379 129.062C327.548 127.596 332.129 122.407 332.82 116.104C333.036 114.13 332.658 111.693 331.901 106.819L317.966 17.0458Z" fill="white"/>
</svg>
