<svg width="455" height="130" viewBox="0 0 455 130" fill="none" xmlns="http://www.w3.org/2000/svg">
<path d="M455 110.067C455 114.334 455 116.467 454.574 118.216C453.219 123.778 448.818 128.083 443.229 129.315C441.47 129.703 439.337 129.656 435.072 129.562L19.0716 120.419C14.9709 120.329 12.9206 120.284 11.2265 119.844C5.84763 118.446 1.68259 114.188 0.403015 108.78C3.05176e-05 107.076 3.05176e-05 105.026 3.05176e-05 100.924V19.5C3.05176e-05 15.3164 3.05176e-05 13.2246 0.41449 11.4983C1.73123 6.01359 6.01361 1.73122 11.4984 0.414444C13.2247 0 15.3164 0 19.5 0H435.5C439.684 0 441.775 0 443.502 0.414444C448.986 1.73122 453.269 6.01359 454.586 11.4983C455 13.2246 455 15.3164 455 19.5V110.067Z" fill="white"/>
</svg>
