<svg width="282" height="140" viewBox="0 0 282 140" fill="none" xmlns="http://www.w3.org/2000/svg">
<path d="M0.155115 120.525C0.160493 124.704 0.163182 126.793 0.579178 128.518C1.9008 133.996 6.18176 138.272 11.662 139.586C13.387 140 15.4764 140 19.6551 140H261.442C265.924 140 268.165 140 269.971 139.544C275.723 138.093 280.079 133.389 281.085 127.543C281.401 125.707 281.229 123.473 280.885 119.004L273.835 27.353C273.545 23.5892 273.401 21.7073 272.921 20.1325C271.404 15.1441 267.404 11.3018 262.359 9.98506C260.766 9.5694 258.88 9.50018 255.107 9.36174L20.2412 0.742798C15.9155 0.584061 13.7527 0.504684 11.9719 0.874252C6.30829 2.04968 1.82517 6.37686 0.450069 11.9953C0.0177115 13.7619 0.020497 15.9262 0.0260678 20.2548L0.155115 120.525Z" fill="white"/>
</svg>
