<svg width="344" height="130" viewBox="0 0 344 130" fill="none" xmlns="http://www.w3.org/2000/svg">
<path d="M15.5367 17.0291C16.1106 13.3322 16.3975 11.4837 16.9905 9.96016C18.8682 5.1351 23.1015 1.61955 28.1894 0.660038C29.796 0.357058 31.6657 0.41453 35.4051 0.529475L324.599 9.41901C328.667 9.54404 330.7 9.60655 332.381 10.0569C337.718 11.4864 341.837 15.7337 343.102 21.1116C343.5 22.8057 343.5 24.8404 343.5 28.9098V101.056C343.5 105.132 343.5 107.17 343.101 108.866C341.833 114.25 337.704 118.5 332.359 119.923C330.676 120.371 328.638 120.43 324.564 120.548L21.4287 129.322C16.5019 129.464 14.0385 129.536 12.1083 129.075C5.94285 127.605 1.36712 122.418 0.677245 116.117C0.46126 114.145 0.839291 111.709 1.59535 106.839L15.5367 17.0291Z" fill="white"/>
</svg>
