<svg width="217" height="120" viewBox="0 0 217 120" fill="none" xmlns="http://www.w3.org/2000/svg">
<path d="M214.586 86.4809C215.928 91.4039 216.6 93.8654 216.594 95.8939C216.578 102.381 212.393 108.122 206.222 110.123C204.293 110.749 201.744 110.863 196.646 111.092L22.0692 118.921C17.024 119.147 14.5014 119.26 12.5357 118.816C6.25162 117.395 1.57646 112.121 0.920685 105.712C0.715546 103.707 1.13068 101.216 1.96092 96.2345L15.2843 16.2942C15.8761 12.7437 16.1719 10.9684 16.7548 9.49201C18.5986 4.82134 22.6573 1.38313 27.5676 0.332191C29.1197 0 30.9194 0 34.519 0H176.106C179.379 0 181.015 0 182.46 0.28627C187.018 1.1898 190.9 4.15491 192.971 8.3148C193.627 9.6328 194.058 11.2116 194.919 14.3692L214.586 86.4809Z" fill="white"/>
</svg>
