<svg width="362" height="130" viewBox="0 0 362 130" fill="none" xmlns="http://www.w3.org/2000/svg">
<path d="M15.6175 113.491C16.1754 117.085 16.4543 118.882 17.0277 120.376C18.8421 125.102 22.9185 128.595 27.8675 129.663C29.4314 130 31.2499 130 34.8867 130H342C346.184 130 348.275 130 350.002 129.586C355.486 128.269 359.769 123.986 361.086 118.502C361.5 116.775 361.5 114.684 361.5 110.5V28.9709C361.5 24.8897 361.5 22.849 361.1 21.1515C359.83 15.7624 355.694 11.5114 350.342 10.0933C348.656 9.64665 346.616 9.59054 342.536 9.4783L21.3956 0.643616C16.4749 0.508255 14.0146 0.440567 12.0865 0.902893C5.92822 2.37956 1.36079 7.56466 0.67287 13.86C0.457487 15.831 0.835032 18.2632 1.59012 23.1274L15.6175 113.491Z" fill="white"/>
</svg>
