<svg width="298" height="130" viewBox="0 0 298 130" fill="none" xmlns="http://www.w3.org/2000/svg">
<path d="M297.028 101.194C297.022 105.243 297.019 107.268 296.621 108.955C295.357 114.312 291.261 118.547 285.949 119.988C284.275 120.442 282.252 120.512 278.205 120.653L27.6852 129.351C23.6597 129.491 21.6469 129.561 19.9521 129.227C14.5736 128.167 10.2018 124.257 8.54996 119.03C8.02945 117.383 7.87497 115.375 7.56604 111.359L0.615051 20.9956C0.271332 16.5271 0.0994568 14.2929 0.415314 12.4569C1.42099 6.61098 5.77719 1.90681 11.5287 0.45575C13.3351 0 15.576 0 20.0576 0H277.651C281.84 0 283.935 0 285.663 0.415237C291.153 1.73457 295.437 6.02501 296.748 11.5169C297.16 13.2454 297.157 15.3401 297.151 19.5293L297.028 101.194Z" fill="white"/>
</svg>
