<svg width="401" height="120" viewBox="0 0 401 120" fill="none" xmlns="http://www.w3.org/2000/svg">
<path d="M2.66937 24.6021C1.28082 19.48 0.586551 16.919 0.608582 14.841C0.679133 8.18655 5.12564 2.37416 11.5298 0.564961C13.5296 0 16.1831 0 21.4901 0H380.307C384.815 0 387.068 0 388.881 0.459254C394.655 1.92178 399.016 6.66177 399.994 12.537C400.302 14.3819 400.114 16.6277 399.74 21.1194L393.031 101.623C392.701 105.587 392.536 107.569 392.013 109.199C390.354 114.37 386.031 118.241 380.709 119.319C379.031 119.659 377.043 119.605 373.066 119.496L40.3138 110.396C37.1223 110.309 35.5266 110.265 34.1181 109.952C29.6751 108.962 25.9219 106.009 23.9153 101.923C23.2791 100.628 22.8615 99.0872 22.0261 96.0057L2.66937 24.6021Z" fill="white"/>
</svg>
