<svg width="516" height="130" viewBox="0 0 516 130" fill="none" xmlns="http://www.w3.org/2000/svg">
<path d="M516 110.118C516 114.375 516 116.504 515.575 118.251C514.225 123.803 509.838 128.106 504.261 129.348C502.506 129.738 500.378 129.697 496.122 129.615L19.1222 120.371C15.0117 120.291 12.9564 120.251 11.2586 119.814C5.8671 118.425 1.68829 114.165 0.404358 108.747C0 107.041 0 104.986 0 100.874V19.5C0 15.3164 0 13.2246 0.414429 11.4983C1.7312 6.01359 6.01358 1.73122 11.4983 0.414444C13.2246 0 15.3164 0 19.5 0H496.5C500.684 0 502.775 0 504.502 0.414444C509.986 1.73122 514.269 6.01359 515.586 11.4983C516 13.2246 516 15.3164 516 19.5V110.118Z" fill="white"/>
</svg>
