<svg width="516" height="170" viewBox="0 0 516 170" fill="none" xmlns="http://www.w3.org/2000/svg">
<mask id="mask0_17_2436" style="mask-type:alpha" maskUnits="userSpaceOnUse" x="0" y="0" width="516" height="170">
<path d="M0 62.4101C0 55.3002 0 51.7453 0.651782 48.6697C2.71312 38.9428 9.4599 30.8691 18.6659 27.1126C21.5768 25.9248 25.0752 25.2933 32.072 24.0303L160.687 0.813563C161.726 0.626097 162.245 0.532364 162.766 0.457119C164.386 0.222916 166.023 0.12179 167.661 0.154753C168.187 0.165343 168.713 0.194455 169.767 0.252679L479.152 17.3482C487.1 17.7875 491.075 18.0071 494.364 18.9619C504.798 21.9911 512.779 30.4252 515.228 41.0108C516 44.3476 516 48.328 516 56.2888V131C516 139.367 516 143.551 515.171 147.003C512.538 157.973 503.973 166.538 493.003 169.171C489.551 170 485.367 170 477 170H39C30.6328 170 26.4493 170 22.9966 169.171C12.0272 166.538 3.46244 157.973 0.828902 147.003C0 143.551 0 139.367 0 131V62.4101Z" fill="white"/>
</mask>
<g mask="url(#mask0_17_2436)">
<rect width="516" height="170" fill="white"/>
<path d="M159.155 72.552C157.131 72.552 155.214 72.2453 153.405 71.632C151.595 71.0187 149.97 70.068 148.529 68.78C147.118 67.4613 145.999 65.7593 145.171 63.674C144.373 61.5887 143.975 59.074 143.975 56.13V55.21C143.975 52.3887 144.373 49.9813 145.171 47.988C145.999 45.964 147.118 44.308 148.529 43.02C149.97 41.732 151.595 40.7813 153.405 40.168C155.214 39.5547 157.131 39.248 159.155 39.248C161.179 39.248 163.095 39.5547 164.905 40.168C166.714 40.7813 168.324 41.732 169.735 43.02C171.176 44.308 172.295 45.964 173.093 47.988C173.921 49.9813 174.335 52.3887 174.335 55.21V56.13C174.335 59.074 173.921 61.5887 173.093 63.674C172.295 65.7593 171.176 67.4613 169.735 68.78C168.324 70.068 166.714 71.0187 164.905 71.632C163.095 72.2453 161.179 72.552 159.155 72.552ZM159.155 66.756C160.565 66.756 161.869 66.434 163.065 65.79C164.291 65.1153 165.273 64.0113 166.009 62.478C166.775 60.914 167.159 58.798 167.159 56.13V55.21C167.159 52.6953 166.775 50.702 166.009 49.23C165.273 47.7273 164.291 46.654 163.065 46.01C161.869 45.366 160.565 45.044 159.155 45.044C157.775 45.044 156.471 45.366 155.245 46.01C154.018 46.654 153.021 47.7273 152.255 49.23C151.519 50.702 151.151 52.6953 151.151 55.21V56.13C151.151 58.798 151.519 60.914 152.255 62.478C153.021 64.0113 154.018 65.1153 155.245 65.79C156.471 66.434 157.775 66.756 159.155 66.756ZM190.885 72V47.62H212.873V72H206.847V52.68H196.911V72H190.885ZM218.467 81.2V47.62H224.079V51.208C224.692 50.104 225.658 49.138 226.977 48.31C228.296 47.482 229.967 47.068 231.991 47.068C235.242 47.068 237.772 48.08 239.581 50.104C241.421 52.0973 242.341 55.1027 242.341 59.12V60.04C242.341 62.8307 241.912 65.1613 241.053 67.032C240.225 68.872 239.044 70.252 237.511 71.172C235.978 72.092 234.138 72.552 231.991 72.552C230.335 72.552 228.863 72.1993 227.575 71.494C226.318 70.758 225.29 69.8073 224.493 68.642V81.2H218.467ZM230.565 67.4C232.16 67.4 233.494 66.802 234.567 65.606C235.64 64.3793 236.177 62.524 236.177 60.04V59.12C236.177 56.82 235.656 55.1027 234.613 53.968C233.601 52.8027 232.252 52.22 230.565 52.22C229.43 52.22 228.388 52.45 227.437 52.91C226.517 53.3393 225.796 53.9987 225.275 54.888C224.754 55.7467 224.493 56.8507 224.493 58.2V60.96C224.493 62.4013 224.738 63.6127 225.229 64.594C225.75 65.5447 226.471 66.25 227.391 66.71C228.311 67.17 229.369 67.4 230.565 67.4ZM257.762 72.552C255.554 72.552 253.515 72.1073 251.644 71.218C249.804 70.298 248.332 68.9027 247.228 67.032C246.124 65.1613 245.572 62.8307 245.572 60.04V59.12C245.572 56.4827 246.124 54.2747 247.228 52.496C248.332 50.6867 249.804 49.3373 251.644 48.448C253.515 47.528 255.554 47.068 257.762 47.068C260.001 47.068 262.04 47.528 263.88 48.448C265.72 49.3373 267.192 50.6867 268.296 52.496C269.4 54.2747 269.952 56.4827 269.952 59.12V60.04C269.952 62.7693 269.4 65.0693 268.296 66.94C267.192 68.8107 265.72 70.2213 263.88 71.172C262.04 72.092 260.001 72.552 257.762 72.552ZM257.762 67.4C258.927 67.4 259.955 67.1393 260.844 66.618C261.764 66.066 262.485 65.238 263.006 64.134C263.527 63.03 263.788 61.6653 263.788 60.04V59.12C263.788 57.6173 263.527 56.36 263.006 55.348C262.485 54.336 261.764 53.5693 260.844 53.048C259.955 52.496 258.927 52.22 257.762 52.22C256.597 52.22 255.554 52.496 254.634 53.048C253.745 53.5693 253.039 54.336 252.518 55.348C251.997 56.36 251.736 57.6173 251.736 59.12V60.04C251.736 61.696 251.997 63.076 252.518 64.18C253.039 65.2533 253.745 66.066 254.634 66.618C255.554 67.1393 256.597 67.4 257.762 67.4ZM285.344 72.552C283.136 72.552 281.097 72.1073 279.226 71.218C277.386 70.298 275.914 68.918 274.81 67.078C273.706 65.2073 273.154 62.8613 273.154 60.04V59.12C273.154 56.4213 273.675 54.1827 274.718 52.404C275.791 50.6253 277.217 49.2913 278.996 48.402C280.775 47.5127 282.737 47.068 284.884 47.068C288.717 47.068 291.631 48.08 293.624 50.104C295.617 52.128 296.614 55.0567 296.614 58.89V61.466H279.364C279.425 62.9073 279.732 64.088 280.284 65.008C280.867 65.8973 281.603 66.5567 282.492 66.986C283.381 67.3847 284.332 67.584 285.344 67.584C286.908 67.584 288.089 67.354 288.886 66.894C289.683 66.434 290.251 65.7593 290.588 64.87H296.154C295.663 67.4153 294.452 69.332 292.52 70.62C290.588 71.908 288.196 72.552 285.344 72.552ZM285.114 52.036C284.163 52.036 283.243 52.1893 282.354 52.496C281.465 52.8027 280.759 53.3547 280.238 54.152C279.717 54.9187 279.425 55.946 279.364 57.234H290.726C290.695 55.854 290.419 54.796 289.898 54.06C289.407 53.2933 288.748 52.772 287.92 52.496C287.092 52.1893 286.157 52.036 285.114 52.036ZM301.034 72V47.62H307.06V57.188H309.314L316.858 47.62H323.528L314.328 59.166L323.988 72H316.72L309.314 61.972H307.06V72H301.034ZM333.381 72V52.68H325.607V47.62H347.181V52.68H339.453V72H333.381ZM361.442 72.552C359.234 72.552 357.194 72.1073 355.324 71.218C353.484 70.298 352.012 68.918 350.908 67.078C349.804 65.2073 349.252 62.8613 349.252 60.04V59.12C349.252 56.4213 349.773 54.1827 350.816 52.404C351.889 50.6253 353.315 49.2913 355.094 48.402C356.872 47.5127 358.835 47.068 360.982 47.068C364.815 47.068 367.728 48.08 369.722 50.104C371.715 52.128 372.712 55.0567 372.712 58.89V61.466H355.462C355.523 62.9073 355.83 64.088 356.382 65.008C356.964 65.8973 357.7 66.5567 358.59 66.986C359.479 67.3847 360.43 67.584 361.442 67.584C363.006 67.584 364.186 67.354 364.984 66.894C365.781 66.434 366.348 65.7593 366.686 64.87H372.252C371.761 67.4153 370.55 69.332 368.618 70.62C366.686 71.908 364.294 72.552 361.442 72.552ZM361.212 52.036C360.261 52.036 359.341 52.1893 358.452 52.496C357.562 52.8027 356.857 53.3547 356.336 54.152C355.814 54.9187 355.523 55.946 355.462 57.234H366.824C366.793 55.854 366.517 54.796 365.996 54.06C365.505 53.2933 364.846 52.772 364.018 52.496C363.19 52.1893 362.254 52.036 361.212 52.036Z" fill="white"/>
<path d="M80.1613 106V92H85.7613C87.348 92 88.508 92.34 89.2413 93.02C89.988 93.7 90.3613 94.6067 90.3613 95.74C90.3613 96.46 90.1747 97.08 89.8013 97.6C89.428 98.1067 88.9147 98.4733 88.2613 98.7C89.088 98.8867 89.7413 99.2667 90.2213 99.84C90.7147 100.4 90.9613 101.133 90.9613 102.04C90.9613 102.813 90.7947 103.5 90.4613 104.1C90.128 104.7 89.6013 105.167 88.8813 105.5C88.1613 105.833 87.228 106 86.0813 106H80.1613ZM82.5613 103.92H85.8213C86.8613 103.92 87.5747 103.753 87.9613 103.42C88.3613 103.087 88.5613 102.573 88.5613 101.88C88.5613 101.2 88.3613 100.68 87.9613 100.32C87.5613 99.9467 86.8413 99.76 85.8013 99.76H82.5613V103.92ZM82.5613 97.84H85.4613C86.3947 97.84 87.0413 97.6667 87.4013 97.32C87.7747 96.9733 87.9613 96.5067 87.9613 95.92C87.9613 95.32 87.7813 94.8667 87.4213 94.56C87.0613 94.24 86.408 94.08 85.4613 94.08H82.5613V97.84ZM96.3574 106.22C95.5974 106.22 94.9441 106.08 94.3974 105.8C93.8641 105.507 93.4574 105.107 93.1774 104.6C92.8974 104.093 92.7574 103.527 92.7574 102.9C92.7574 101.847 93.0708 101.067 93.6974 100.56C94.3241 100.04 95.2441 99.78 96.4574 99.78H99.7574V99.2C99.7574 98.4 99.5774 97.8533 99.2174 97.56C98.8708 97.2533 98.3174 97.1 97.5574 97.1C96.8774 97.1 96.3774 97.2067 96.0574 97.42C95.7374 97.6333 95.5508 97.9267 95.4974 98.3H93.3574C93.3974 97.6867 93.5908 97.1467 93.9374 96.68C94.2841 96.2133 94.7708 95.8467 95.3974 95.58C96.0374 95.3133 96.7908 95.18 97.6574 95.18C98.5241 95.18 99.2774 95.3133 99.9174 95.58C100.571 95.8467 101.071 96.2667 101.417 96.84C101.777 97.4 101.957 98.1467 101.957 99.08V103.3C101.957 103.86 101.964 104.353 101.977 104.78C101.991 105.193 102.024 105.6 102.077 106H100.077C100.037 105.693 100.004 105.433 99.9774 105.22C99.9641 105.007 99.9574 104.74 99.9574 104.42C99.7041 104.913 99.2641 105.34 98.6374 105.7C98.0241 106.047 97.2641 106.22 96.3574 106.22ZM96.9574 104.3C97.4641 104.3 97.9241 104.213 98.3374 104.04C98.7641 103.867 99.1041 103.607 99.3574 103.26C99.6241 102.913 99.7574 102.493 99.7574 102V101.42H96.8574C96.2974 101.42 95.8441 101.54 95.4974 101.78C95.1641 102.02 94.9974 102.373 94.9974 102.84C94.9974 103.28 95.1508 103.633 95.4574 103.9C95.7774 104.167 96.2774 104.3 96.9574 104.3ZM104.664 106V95.4H106.864V104.12H110.364V95.4H112.564V104.12H116.064V95.4H118.264V106H104.664ZM126.07 106V95.4H128.27V102.9L133.37 95.4H135.47V106H133.27V98.5L128.17 106H126.07ZM137.277 108.5V104.12H138.477C138.664 103.84 138.824 103.407 138.957 102.82C139.09 102.22 139.19 101.533 139.257 100.76C139.337 99.9867 139.377 99.2 139.377 98.4V95.4H147.277V104.12H148.677V108.5H146.637V106H139.317V108.5H137.277ZM140.717 104.12H145.077V97.28H141.497V98.8C141.497 99.8267 141.437 100.813 141.317 101.76C141.197 102.693 140.997 103.48 140.717 104.12ZM155.084 106.22C154.151 106.22 153.291 106.027 152.504 105.64C151.717 105.24 151.084 104.64 150.604 103.84C150.124 103.04 149.884 102.027 149.884 100.8V100.4C149.884 99.2267 150.111 98.2533 150.564 97.48C151.031 96.7067 151.644 96.1333 152.404 95.76C153.164 95.3733 153.991 95.18 154.884 95.18C156.497 95.18 157.731 95.6133 158.584 96.48C159.451 97.3467 159.884 98.5867 159.884 100.2V101.32H152.124C152.151 102.04 152.304 102.62 152.584 103.06C152.864 103.5 153.224 103.82 153.664 104.02C154.104 104.207 154.577 104.3 155.084 104.3C155.844 104.3 156.397 104.18 156.744 103.94C157.104 103.7 157.351 103.387 157.484 103H159.684C159.471 104.053 158.944 104.853 158.104 105.4C157.277 105.947 156.271 106.22 155.084 106.22ZM154.984 97.1C154.491 97.1 154.031 97.1867 153.604 97.36C153.177 97.5333 152.831 97.8067 152.564 98.18C152.297 98.5533 152.151 99.0533 152.124 99.68H157.684C157.671 99.0133 157.544 98.4933 157.304 98.12C157.064 97.7467 156.744 97.4867 156.344 97.34C155.944 97.18 155.491 97.1 154.984 97.1ZM165.186 106.22C164.426 106.22 163.772 106.08 163.226 105.8C162.692 105.507 162.286 105.107 162.006 104.6C161.726 104.093 161.586 103.527 161.586 102.9C161.586 101.847 161.899 101.067 162.526 100.56C163.152 100.04 164.072 99.78 165.286 99.78H168.586V99.2C168.586 98.4 168.406 97.8533 168.046 97.56C167.699 97.2533 167.146 97.1 166.386 97.1C165.706 97.1 165.206 97.2067 164.886 97.42C164.566 97.6333 164.379 97.9267 164.326 98.3H162.186C162.226 97.6867 162.419 97.1467 162.766 96.68C163.112 96.2133 163.599 95.8467 164.226 95.58C164.866 95.3133 165.619 95.18 166.486 95.18C167.352 95.18 168.106 95.3133 168.746 95.58C169.399 95.8467 169.899 96.2667 170.246 96.84C170.606 97.4 170.786 98.1467 170.786 99.08V103.3C170.786 103.86 170.792 104.353 170.806 104.78C170.819 105.193 170.852 105.6 170.906 106H168.906C168.866 105.693 168.832 105.433 168.806 105.22C168.792 105.007 168.786 104.74 168.786 104.42C168.532 104.913 168.092 105.34 167.466 105.7C166.852 106.047 166.092 106.22 165.186 106.22ZM165.786 104.3C166.292 104.3 166.752 104.213 167.166 104.04C167.592 103.867 167.932 103.607 168.186 103.26C168.452 102.913 168.586 102.493 168.586 102V101.42H165.686C165.126 101.42 164.672 101.54 164.326 101.78C163.992 102.02 163.826 102.373 163.826 102.84C163.826 103.28 163.979 103.633 164.286 103.9C164.606 104.167 165.106 104.3 165.786 104.3ZM173.292 106.22C173.185 106.22 173.065 106.213 172.932 106.2C172.812 106.2 172.698 106.187 172.592 106.16V104.08C172.632 104.093 172.732 104.1 172.892 104.1C173.265 104.1 173.565 103.94 173.792 103.62C174.032 103.3 174.205 102.747 174.312 101.96C174.432 101.16 174.492 100.04 174.492 98.6V95.4H182.492V106H180.292V97.28H176.612V99C176.612 100.413 176.538 101.593 176.392 102.54C176.258 103.473 176.052 104.207 175.772 104.74C175.492 105.273 175.145 105.653 174.732 105.88C174.318 106.107 173.838 106.22 173.292 106.22ZM185.489 106V95.4H187.689V99.12H190.089C191.449 99.12 192.455 99.4133 193.109 100C193.762 100.573 194.089 101.427 194.089 102.56C194.089 103.267 193.949 103.88 193.669 104.4C193.389 104.92 192.955 105.32 192.369 105.6C191.782 105.867 191.022 106 190.089 106H185.489ZM187.689 104.12H189.889C190.622 104.12 191.135 103.993 191.429 103.74C191.735 103.473 191.889 103.08 191.889 102.56C191.889 102.04 191.735 101.653 191.429 101.4C191.135 101.133 190.622 101 189.889 101H187.689V104.12ZM196.089 106V95.4H198.289V99.66H203.289V95.4H205.489V106H203.289V101.54H198.289V106H196.089ZM208.296 106V95.4H210.496V99.12H212.496C213.856 99.12 214.863 99.4133 215.516 100C216.17 100.573 216.496 101.427 216.496 102.56C216.496 103.267 216.356 103.88 216.076 104.4C215.796 104.92 215.363 105.32 214.776 105.6C214.19 105.867 213.43 106 212.496 106H208.296ZM210.496 104.12H212.296C213.03 104.12 213.543 103.993 213.836 103.74C214.143 103.473 214.296 103.08 214.296 102.56C214.296 102.04 214.143 101.653 213.836 101.4C213.543 101.133 213.03 101 212.296 101H210.496V104.12ZM217.896 106V95.4H220.096V106H217.896ZM223.101 106V95.4H225.301V102.9L230.401 95.4H232.501V106H230.301V98.5L225.201 106H223.101ZM227.781 94.2C226.688 94.2 225.881 93.96 225.361 93.48C224.855 92.9867 224.601 92.2933 224.601 91.4H226.641C226.641 91.88 226.735 92.2267 226.921 92.44C227.121 92.6533 227.415 92.76 227.801 92.76C228.188 92.76 228.475 92.6533 228.661 92.44C228.861 92.2267 228.961 91.88 228.961 91.4H231.001C231.001 92.2933 230.741 92.9867 230.221 93.48C229.701 93.96 228.888 94.2 227.781 94.2ZM239.308 108.5V104.12H240.508C240.695 103.84 240.855 103.407 240.988 102.82C241.122 102.22 241.222 101.533 241.288 100.76C241.368 99.9867 241.408 99.2 241.408 98.4V95.4H249.308V104.12H250.708V108.5H248.668V106H241.348V108.5H239.308ZM242.748 104.12H247.108V97.28H243.528V98.8C243.528 99.8267 243.468 100.813 243.348 101.76C243.228 102.693 243.028 103.48 242.748 104.12ZM257.115 106.22C256.142 106.22 255.262 106.02 254.475 105.62C253.689 105.207 253.062 104.6 252.595 103.8C252.142 102.987 251.915 101.987 251.915 100.8V100.4C251.915 99.28 252.142 98.3333 252.595 97.56C253.062 96.7733 253.689 96.18 254.475 95.78C255.262 95.38 256.142 95.18 257.115 95.18C258.102 95.18 258.982 95.38 259.755 95.78C260.542 96.18 261.162 96.7733 261.615 97.56C262.082 98.3333 262.315 99.28 262.315 100.4V100.8C262.315 101.987 262.082 102.987 261.615 103.8C261.162 104.6 260.542 105.207 259.755 105.62C258.982 106.02 258.102 106.22 257.115 106.22ZM257.115 104.3C257.622 104.3 258.102 104.18 258.555 103.94C259.009 103.7 259.375 103.327 259.655 102.82C259.935 102.3 260.075 101.627 260.075 100.8V100.4C260.075 99.64 259.935 99.02 259.655 98.54C259.375 98.0467 259.009 97.6867 258.555 97.46C258.102 97.22 257.622 97.1 257.115 97.1C256.609 97.1 256.129 97.22 255.675 97.46C255.222 97.6867 254.855 98.0467 254.575 98.54C254.295 99.02 254.155 99.64 254.155 100.4V100.8C254.155 101.627 254.295 102.3 254.575 102.82C254.855 103.327 255.222 103.7 255.675 103.94C256.129 104.18 256.609 104.3 257.115 104.3ZM264.507 106V95.4H266.987L270.367 101.6L273.747 95.4H276.107V106H273.907V98.7L271.107 103.8H269.507L266.707 98.7V106H264.507ZM283.202 101.44V99.36H292.402V101.44H283.202ZM299.507 106V95.4H308.707V106H306.507V97.28H301.707V106H299.507ZM311.5 110V95.4H313.54V97.18C313.86 96.5667 314.333 96.08 314.96 95.72C315.6 95.36 316.32 95.18 317.12 95.18C318.506 95.18 319.6 95.6133 320.4 96.48C321.2 97.3467 321.6 98.6533 321.6 100.4V100.8C321.6 102 321.413 103.007 321.04 103.82C320.666 104.62 320.146 105.22 319.48 105.62C318.813 106.02 318.026 106.22 317.12 106.22C316.36 106.22 315.666 106.053 315.04 105.72C314.413 105.387 313.966 104.92 313.7 104.32V110H311.5ZM316.6 104.3C317.426 104.3 318.093 104.013 318.6 103.44C319.106 102.867 319.36 101.987 319.36 100.8V100.4C319.36 99.28 319.113 98.4533 318.62 97.92C318.126 97.3733 317.453 97.1 316.6 97.1C316.106 97.1 315.633 97.2067 315.18 97.42C314.74 97.6333 314.38 97.9467 314.1 98.36C313.833 98.7733 313.7 99.2867 313.7 99.9V101.3C313.7 101.967 313.833 102.527 314.1 102.98C314.38 103.42 314.74 103.753 315.18 103.98C315.62 104.193 316.093 104.3 316.6 104.3ZM328.404 106.22C327.431 106.22 326.551 106.02 325.764 105.62C324.978 105.207 324.351 104.6 323.884 103.8C323.431 102.987 323.204 101.987 323.204 100.8V100.4C323.204 99.28 323.431 98.3333 323.884 97.56C324.351 96.7733 324.978 96.18 325.764 95.78C326.551 95.38 327.431 95.18 328.404 95.18C329.391 95.18 330.271 95.38 331.044 95.78C331.831 96.18 332.451 96.7733 332.904 97.56C333.371 98.3333 333.604 99.28 333.604 100.4V100.8C333.604 101.987 333.371 102.987 332.904 103.8C332.451 104.6 331.831 105.207 331.044 105.62C330.271 106.02 329.391 106.22 328.404 106.22ZM328.404 104.3C328.911 104.3 329.391 104.18 329.844 103.94C330.298 103.7 330.664 103.327 330.944 102.82C331.224 102.3 331.364 101.627 331.364 100.8V100.4C331.364 99.64 331.224 99.02 330.944 98.54C330.664 98.0467 330.298 97.6867 329.844 97.46C329.391 97.22 328.911 97.1 328.404 97.1C327.898 97.1 327.418 97.22 326.964 97.46C326.511 97.6867 326.144 98.0467 325.864 98.54C325.584 99.02 325.444 99.64 325.444 100.4V100.8C325.444 101.627 325.584 102.3 325.864 102.82C326.144 103.327 326.511 103.7 326.964 103.94C327.418 104.18 327.898 104.3 328.404 104.3ZM334.699 108.5V104.12H335.899C336.085 103.84 336.245 103.407 336.379 102.82C336.512 102.22 336.612 101.533 336.679 100.76C336.759 99.9867 336.799 99.2 336.799 98.4V95.4H344.699V104.12H346.099V108.5H344.059V106H336.739V108.5H334.699ZM338.139 104.12H342.499V97.28H338.919V98.8C338.919 99.8267 338.859 100.813 338.739 101.76C338.619 102.693 338.419 103.48 338.139 104.12ZM349.508 110.22C349.308 110.22 349.108 110.2 348.908 110.16V108.24C349.108 108.28 349.308 108.3 349.508 108.3C349.802 108.3 350.042 108.227 350.228 108.08C350.415 107.947 350.588 107.713 350.748 107.38C350.908 107.047 351.095 106.587 351.308 106L346.808 95.4H349.208L352.448 103.6L355.368 95.4H357.608L353.508 106C353.122 106.987 352.755 107.793 352.408 108.42C352.062 109.047 351.668 109.5 351.228 109.78C350.788 110.073 350.215 110.22 349.508 110.22ZM359.41 106V95.4H361.89L365.27 101.6L368.65 95.4H371.01V106H368.81V98.7L366.01 103.8H364.41L361.61 98.7V106H359.41ZM376.904 106.22C376.144 106.22 375.491 106.08 374.944 105.8C374.411 105.507 374.004 105.107 373.724 104.6C373.444 104.093 373.304 103.527 373.304 102.9C373.304 101.847 373.618 101.067 374.244 100.56C374.871 100.04 375.791 99.78 377.004 99.78H380.304V99.2C380.304 98.4 380.124 97.8533 379.764 97.56C379.418 97.2533 378.864 97.1 378.104 97.1C377.424 97.1 376.924 97.2067 376.604 97.42C376.284 97.6333 376.098 97.9267 376.044 98.3H373.904C373.944 97.6867 374.138 97.1467 374.484 96.68C374.831 96.2133 375.318 95.8467 375.944 95.58C376.584 95.3133 377.338 95.18 378.204 95.18C379.071 95.18 379.824 95.3133 380.464 95.58C381.118 95.8467 381.618 96.2667 381.964 96.84C382.324 97.4 382.504 98.1467 382.504 99.08V103.3C382.504 103.86 382.511 104.353 382.524 104.78C382.538 105.193 382.571 105.6 382.624 106H380.624C380.584 105.693 380.551 105.433 380.524 105.22C380.511 105.007 380.504 104.74 380.504 104.42C380.251 104.913 379.811 105.34 379.184 105.7C378.571 106.047 377.811 106.22 376.904 106.22ZM377.504 104.3C378.011 104.3 378.471 104.213 378.884 104.04C379.311 103.867 379.651 103.607 379.904 103.26C380.171 102.913 380.304 102.493 380.304 102V101.42H377.404C376.844 101.42 376.391 101.54 376.044 101.78C375.711 102.02 375.544 102.373 375.544 102.84C375.544 103.28 375.698 103.633 376.004 103.9C376.324 104.167 376.824 104.3 377.504 104.3ZM385.211 106V95.4H387.411V99.66H392.411V95.4H394.611V106H392.411V101.54H387.411V106H385.211ZM397.418 106V95.4H399.618V99.66H404.618V95.4H406.818V106H404.618V101.54H399.618V106H397.418ZM414.225 106.22C413.251 106.22 412.371 106.02 411.585 105.62C410.798 105.207 410.171 104.6 409.705 103.8C409.251 102.987 409.025 101.987 409.025 100.8V100.4C409.025 99.28 409.251 98.3333 409.705 97.56C410.171 96.7733 410.798 96.18 411.585 95.78C412.371 95.38 413.251 95.18 414.225 95.18C415.211 95.18 416.091 95.38 416.865 95.78C417.651 96.18 418.271 96.7733 418.725 97.56C419.191 98.3333 419.425 99.28 419.425 100.4V100.8C419.425 101.987 419.191 102.987 418.725 103.8C418.271 104.6 417.651 105.207 416.865 105.62C416.091 106.02 415.211 106.22 414.225 106.22ZM414.225 104.3C414.731 104.3 415.211 104.18 415.665 103.94C416.118 103.7 416.485 103.327 416.765 102.82C417.045 102.3 417.185 101.627 417.185 100.8V100.4C417.185 99.64 417.045 99.02 416.765 98.54C416.485 98.0467 416.118 97.6867 415.665 97.46C415.211 97.22 414.731 97.1 414.225 97.1C413.718 97.1 413.238 97.22 412.785 97.46C412.331 97.6867 411.965 98.0467 411.685 98.54C411.405 99.02 411.265 99.64 411.265 100.4V100.8C411.265 101.627 411.405 102.3 411.685 102.82C411.965 103.327 412.331 103.7 412.785 103.94C413.238 104.18 413.718 104.3 414.225 104.3ZM426.217 106.22C425.283 106.22 424.423 106.027 423.637 105.64C422.85 105.24 422.217 104.64 421.737 103.84C421.257 103.04 421.017 102.027 421.017 100.8V100.4C421.017 99.2267 421.243 98.2533 421.697 97.48C422.163 96.7067 422.777 96.1333 423.537 95.76C424.297 95.3733 425.123 95.18 426.017 95.18C427.63 95.18 428.863 95.6133 429.717 96.48C430.583 97.3467 431.017 98.5867 431.017 100.2V101.32H423.257C423.283 102.04 423.437 102.62 423.717 103.06C423.997 103.5 424.357 103.82 424.797 104.02C425.237 104.207 425.71 104.3 426.217 104.3C426.977 104.3 427.53 104.18 427.877 103.94C428.237 103.7 428.483 103.387 428.617 103H430.817C430.603 104.053 430.077 104.853 429.237 105.4C428.41 105.947 427.403 106.22 426.217 106.22ZM426.117 97.1C425.623 97.1 425.163 97.1867 424.737 97.36C424.31 97.5333 423.963 97.8067 423.697 98.18C423.43 98.5533 423.283 99.0533 423.257 99.68H428.817C428.803 99.0133 428.677 98.4933 428.437 98.12C428.197 97.7467 427.877 97.4867 427.477 97.34C427.077 97.18 426.623 97.1 426.117 97.1ZM432.447 109.1L433.247 106V103.48H435.847V106L433.647 109.1H432.447ZM73.7848 134V130.22C71.9448 130.22 70.5514 129.753 69.6048 128.82C68.6581 127.887 68.1848 126.547 68.1848 124.8V124.4C68.1848 122.733 68.6581 121.447 69.6048 120.54C70.5514 119.633 71.9448 119.18 73.7848 119.18V116H75.9848V119.18C77.8114 119.18 79.1981 119.633 80.1448 120.54C81.1048 121.447 81.5848 122.733 81.5848 124.4V124.8C81.5848 126.547 81.1048 127.887 80.1448 128.82C79.1981 129.753 77.8114 130.22 75.9848 130.22V134H73.7848ZM79.3448 124.8V124.4C79.3448 123.293 79.0714 122.467 78.5248 121.92C77.9914 121.373 77.1314 121.1 75.9448 121.1V128.3C77.1314 128.3 77.9914 128.013 78.5248 127.44C79.0714 126.853 79.3448 125.973 79.3448 124.8ZM70.4248 124.38V124.8C70.4248 125.973 70.6981 126.853 71.2448 127.44C71.7914 128.013 72.6514 128.3 73.8248 128.3V121.1C72.6381 121.1 71.7714 121.373 71.2248 121.92C70.6914 122.467 70.4248 123.287 70.4248 124.38ZM85.0941 134.22C84.8941 134.22 84.6941 134.2 84.4941 134.16V132.24C84.6941 132.28 84.8941 132.3 85.0941 132.3C85.3875 132.3 85.6275 132.227 85.8141 132.08C86.0008 131.947 86.1741 131.713 86.3341 131.38C86.4941 131.047 86.6808 130.587 86.8941 130L82.3941 119.4H84.7941L88.0341 127.6L90.9541 119.4H93.1941L89.0941 130C88.7075 130.987 88.3408 131.793 87.9941 132.42C87.6475 133.047 87.2541 133.5 86.8141 133.78C86.3741 134.073 85.8008 134.22 85.0941 134.22ZM94.9957 130V119.4H97.1957V123.66H102.196V119.4H104.396V130H102.196V125.54H97.1957V130H94.9957ZM107.203 130V119.4H109.403V123.7H110.603L114.323 119.4H116.803L112.303 124.46L117.003 130H114.323L110.603 125.5H109.403V130H107.203ZM127.364 132.5V130H118.804V119.4H121.004V128.12H125.604V119.4H127.804V128.12H129.404V132.5H127.364ZM131.304 130V119.4H133.504V126.9L138.604 119.4H140.704V130H138.504V122.5L133.404 130H131.304ZM148.111 130.22C147.138 130.22 146.258 130.02 145.471 129.62C144.685 129.207 144.058 128.6 143.591 127.8C143.138 126.987 142.911 125.987 142.911 124.8V124.4C142.911 123.28 143.138 122.333 143.591 121.56C144.058 120.773 144.685 120.18 145.471 119.78C146.258 119.38 147.138 119.18 148.111 119.18C149.098 119.18 149.978 119.38 150.751 119.78C151.538 120.18 152.158 120.773 152.611 121.56C153.078 122.333 153.311 123.28 153.311 124.4V124.8C153.311 125.987 153.078 126.987 152.611 127.8C152.158 128.6 151.538 129.207 150.751 129.62C149.978 130.02 149.098 130.22 148.111 130.22ZM148.111 128.3C148.618 128.3 149.098 128.18 149.551 127.94C150.005 127.7 150.371 127.327 150.651 126.82C150.931 126.3 151.071 125.627 151.071 124.8V124.4C151.071 123.64 150.931 123.02 150.651 122.54C150.371 122.047 150.005 121.687 149.551 121.46C149.098 121.22 148.618 121.1 148.111 121.1C147.605 121.1 147.125 121.22 146.671 121.46C146.218 121.687 145.851 122.047 145.571 122.54C145.291 123.02 145.151 123.64 145.151 124.4V124.8C145.151 125.627 145.291 126.3 145.571 126.82C145.851 127.327 146.218 127.7 146.671 127.94C147.125 128.18 147.605 128.3 148.111 128.3ZM155.504 130V119.4H157.704V123.66H162.704V119.4H164.904V130H162.704V125.54H157.704V130H155.504ZM170.811 130.22C170.051 130.22 169.397 130.08 168.851 129.8C168.317 129.507 167.911 129.107 167.631 128.6C167.351 128.093 167.211 127.527 167.211 126.9C167.211 125.847 167.524 125.067 168.151 124.56C168.777 124.04 169.697 123.78 170.911 123.78H174.211V123.2C174.211 122.4 174.031 121.853 173.671 121.56C173.324 121.253 172.771 121.1 172.011 121.1C171.331 121.1 170.831 121.207 170.511 121.42C170.191 121.633 170.004 121.927 169.951 122.3H167.811C167.851 121.687 168.044 121.147 168.391 120.68C168.737 120.213 169.224 119.847 169.851 119.58C170.491 119.313 171.244 119.18 172.111 119.18C172.977 119.18 173.731 119.313 174.371 119.58C175.024 119.847 175.524 120.267 175.871 120.84C176.231 121.4 176.411 122.147 176.411 123.08V127.3C176.411 127.86 176.417 128.353 176.431 128.78C176.444 129.193 176.477 129.6 176.531 130H174.531C174.491 129.693 174.457 129.433 174.431 129.22C174.417 129.007 174.411 128.74 174.411 128.42C174.157 128.913 173.717 129.34 173.091 129.7C172.477 130.047 171.717 130.22 170.811 130.22ZM171.411 128.3C171.917 128.3 172.377 128.213 172.791 128.04C173.217 127.867 173.557 127.607 173.811 127.26C174.077 126.913 174.211 126.493 174.211 126V125.42H171.311C170.751 125.42 170.297 125.54 169.951 125.78C169.617 126.02 169.451 126.373 169.451 126.84C169.451 127.28 169.604 127.633 169.911 127.9C170.231 128.167 170.731 128.3 171.411 128.3ZM178.917 130.22C178.81 130.22 178.69 130.213 178.557 130.2C178.437 130.2 178.323 130.187 178.217 130.16V128.08C178.257 128.093 178.357 128.1 178.517 128.1C178.89 128.1 179.19 127.94 179.417 127.62C179.657 127.3 179.83 126.747 179.937 125.96C180.057 125.16 180.117 124.04 180.117 122.6V119.4H188.117V130H185.917V121.28H182.237V123C182.237 124.413 182.163 125.593 182.017 126.54C181.883 127.473 181.677 128.207 181.397 128.74C181.117 129.273 180.77 129.653 180.357 129.88C179.943 130.107 179.463 130.22 178.917 130.22ZM191.114 130V119.4H193.314V123.12H195.714C197.074 123.12 198.08 123.413 198.734 124C199.387 124.573 199.714 125.427 199.714 126.56C199.714 127.267 199.574 127.88 199.294 128.4C199.014 128.92 198.58 129.32 197.994 129.6C197.407 129.867 196.647 130 195.714 130H191.114ZM193.314 128.12H195.514C196.247 128.12 196.76 127.993 197.054 127.74C197.36 127.473 197.514 127.08 197.514 126.56C197.514 126.04 197.36 125.653 197.054 125.4C196.76 125.133 196.247 125 195.514 125H193.314V128.12ZM201.714 130V119.4H203.914V123.66H208.914V119.4H211.114V130H208.914V125.54H203.914V130H201.714ZM218.521 130.22C217.548 130.22 216.668 130.02 215.881 129.62C215.095 129.207 214.468 128.6 214.001 127.8C213.548 126.987 213.321 125.987 213.321 124.8V124.4C213.321 123.28 213.548 122.333 214.001 121.56C214.468 120.773 215.095 120.18 215.881 119.78C216.668 119.38 217.548 119.18 218.521 119.18C219.508 119.18 220.388 119.38 221.161 119.78C221.948 120.18 222.568 120.773 223.021 121.56C223.488 122.333 223.721 123.28 223.721 124.4V124.8C223.721 125.987 223.488 126.987 223.021 127.8C222.568 128.6 221.948 129.207 221.161 129.62C220.388 130.02 219.508 130.22 218.521 130.22ZM218.521 128.3C219.028 128.3 219.508 128.18 219.961 127.94C220.415 127.7 220.781 127.327 221.061 126.82C221.341 126.3 221.481 125.627 221.481 124.8V124.4C221.481 123.64 221.341 123.02 221.061 122.54C220.781 122.047 220.415 121.687 219.961 121.46C219.508 121.22 219.028 121.1 218.521 121.1C218.015 121.1 217.535 121.22 217.081 121.46C216.628 121.687 216.261 122.047 215.981 122.54C215.701 123.02 215.561 123.64 215.561 124.4V124.8C215.561 125.627 215.701 126.3 215.981 126.82C216.261 127.327 216.628 127.7 217.081 127.94C217.535 128.18 218.015 128.3 218.521 128.3ZM230.514 130.22C229.58 130.22 228.72 130.027 227.934 129.64C227.147 129.24 226.514 128.64 226.034 127.84C225.554 127.04 225.314 126.027 225.314 124.8V124.4C225.314 123.227 225.54 122.253 225.994 121.48C226.46 120.707 227.074 120.133 227.834 119.76C228.594 119.373 229.42 119.18 230.314 119.18C231.927 119.18 233.16 119.613 234.014 120.48C234.88 121.347 235.314 122.587 235.314 124.2V125.32H227.554C227.58 126.04 227.734 126.62 228.014 127.06C228.294 127.5 228.654 127.82 229.094 128.02C229.534 128.207 230.007 128.3 230.514 128.3C231.274 128.3 231.827 128.18 232.174 127.94C232.534 127.7 232.78 127.387 232.914 127H235.114C234.9 128.053 234.374 128.853 233.534 129.4C232.707 129.947 231.7 130.22 230.514 130.22ZM230.414 121.1C229.92 121.1 229.46 121.187 229.034 121.36C228.607 121.533 228.26 121.807 227.994 122.18C227.727 122.553 227.58 123.053 227.554 123.68H233.114C233.1 123.013 232.974 122.493 232.734 122.12C232.494 121.747 232.174 121.487 231.774 121.34C231.374 121.18 230.92 121.1 230.414 121.1ZM242.515 130V119.4H244.715V126.9L249.815 119.4H251.915V130H249.715V122.5L244.615 130H242.515ZM259.722 130V119.4H261.922V123.7H263.122L266.842 119.4H269.322L264.822 124.46L269.522 130H266.842L263.122 125.5H261.922V130H259.722ZM275.533 130.22C274.56 130.22 273.68 130.02 272.893 129.62C272.107 129.207 271.48 128.6 271.013 127.8C270.56 126.987 270.333 125.987 270.333 124.8V124.4C270.333 123.28 270.56 122.333 271.013 121.56C271.48 120.773 272.107 120.18 272.893 119.78C273.68 119.38 274.56 119.18 275.533 119.18C276.52 119.18 277.4 119.38 278.173 119.78C278.96 120.18 279.58 120.773 280.033 121.56C280.5 122.333 280.733 123.28 280.733 124.4V124.8C280.733 125.987 280.5 126.987 280.033 127.8C279.58 128.6 278.96 129.207 278.173 129.62C277.4 130.02 276.52 130.22 275.533 130.22ZM275.533 128.3C276.04 128.3 276.52 128.18 276.973 127.94C277.427 127.7 277.793 127.327 278.073 126.82C278.353 126.3 278.493 125.627 278.493 124.8V124.4C278.493 123.64 278.353 123.02 278.073 122.54C277.793 122.047 277.427 121.687 276.973 121.46C276.52 121.22 276.04 121.1 275.533 121.1C275.027 121.1 274.547 121.22 274.093 121.46C273.64 121.687 273.273 122.047 272.993 122.54C272.713 123.02 272.573 123.64 272.573 124.4V124.8C272.573 125.627 272.713 126.3 272.993 126.82C273.273 127.327 273.64 127.7 274.093 127.94C274.547 128.18 275.027 128.3 275.533 128.3ZM282.925 130V119.4H285.405L288.785 125.6L292.165 119.4H294.525V130H292.325V122.7L289.525 127.8H287.925L285.125 122.7V130H282.925ZM302.32 134V130.22C300.48 130.22 299.087 129.753 298.14 128.82C297.193 127.887 296.72 126.547 296.72 124.8V124.4C296.72 122.733 297.193 121.447 298.14 120.54C299.087 119.633 300.48 119.18 302.32 119.18V116H304.52V119.18C306.347 119.18 307.733 119.633 308.68 120.54C309.64 121.447 310.12 122.733 310.12 124.4V124.8C310.12 126.547 309.64 127.887 308.68 128.82C307.733 129.753 306.347 130.22 304.52 130.22V134H302.32ZM307.88 124.8V124.4C307.88 123.293 307.607 122.467 307.06 121.92C306.527 121.373 305.667 121.1 304.48 121.1V128.3C305.667 128.3 306.527 128.013 307.06 127.44C307.607 126.853 307.88 125.973 307.88 124.8ZM298.96 124.38V124.8C298.96 125.973 299.233 126.853 299.78 127.44C300.327 128.013 301.187 128.3 302.36 128.3V121.1C301.173 121.1 300.307 121.373 299.76 121.92C299.227 122.467 298.96 123.287 298.96 124.38ZM316.92 130.22C315.947 130.22 315.067 130.02 314.28 129.62C313.493 129.207 312.867 128.6 312.4 127.8C311.947 126.987 311.72 125.987 311.72 124.8V124.4C311.72 123.28 311.947 122.333 312.4 121.56C312.867 120.773 313.493 120.18 314.28 119.78C315.067 119.38 315.947 119.18 316.92 119.18C317.907 119.18 318.787 119.38 319.56 119.78C320.347 120.18 320.967 120.773 321.42 121.56C321.887 122.333 322.12 123.28 322.12 124.4V124.8C322.12 125.987 321.887 126.987 321.42 127.8C320.967 128.6 320.347 129.207 319.56 129.62C318.787 130.02 317.907 130.22 316.92 130.22ZM316.92 128.3C317.427 128.3 317.907 128.18 318.36 127.94C318.813 127.7 319.18 127.327 319.46 126.82C319.74 126.3 319.88 125.627 319.88 124.8V124.4C319.88 123.64 319.74 123.02 319.46 122.54C319.18 122.047 318.813 121.687 318.36 121.46C317.907 121.22 317.427 121.1 316.92 121.1C316.413 121.1 315.933 121.22 315.48 121.46C315.027 121.687 314.66 122.047 314.38 122.54C314.1 123.02 313.96 123.64 313.96 124.4V124.8C313.96 125.627 314.1 126.3 314.38 126.82C314.66 127.327 315.027 127.7 315.48 127.94C315.933 128.18 316.413 128.3 316.92 128.3ZM324.312 134V119.4H326.352V121.18C326.672 120.567 327.145 120.08 327.772 119.72C328.412 119.36 329.132 119.18 329.932 119.18C331.319 119.18 332.412 119.613 333.212 120.48C334.012 121.347 334.412 122.653 334.412 124.4V124.8C334.412 126 334.225 127.007 333.852 127.82C333.479 128.62 332.959 129.22 332.292 129.62C331.625 130.02 330.839 130.22 329.932 130.22C329.172 130.22 328.479 130.053 327.852 129.72C327.225 129.387 326.779 128.92 326.512 128.32V134H324.312ZM329.412 128.3C330.239 128.3 330.905 128.013 331.412 127.44C331.919 126.867 332.172 125.987 332.172 124.8V124.4C332.172 123.28 331.925 122.453 331.432 121.92C330.939 121.373 330.265 121.1 329.412 121.1C328.919 121.1 328.445 121.207 327.992 121.42C327.552 121.633 327.192 121.947 326.912 122.36C326.645 122.773 326.512 123.287 326.512 123.9V125.3C326.512 125.967 326.645 126.527 326.912 126.98C327.192 127.42 327.552 127.753 327.992 127.98C328.432 128.193 328.905 128.3 329.412 128.3ZM338.921 130V121.28H335.421V119.4H344.621V121.28H341.121V130H338.921ZM346.421 130V119.4H348.621V123.66H353.621V119.4H355.821V130H353.621V125.54H348.621V130H346.421ZM363.229 130.22C362.255 130.22 361.375 130.02 360.589 129.62C359.802 129.207 359.175 128.6 358.709 127.8C358.255 126.987 358.029 125.987 358.029 124.8V124.4C358.029 123.28 358.255 122.333 358.709 121.56C359.175 120.773 359.802 120.18 360.589 119.78C361.375 119.38 362.255 119.18 363.229 119.18C364.215 119.18 365.095 119.38 365.869 119.78C366.655 120.18 367.275 120.773 367.729 121.56C368.195 122.333 368.429 123.28 368.429 124.4V124.8C368.429 125.987 368.195 126.987 367.729 127.8C367.275 128.6 366.655 129.207 365.869 129.62C365.095 130.02 364.215 130.22 363.229 130.22ZM363.229 128.3C363.735 128.3 364.215 128.18 364.669 127.94C365.122 127.7 365.489 127.327 365.769 126.82C366.049 126.3 366.189 125.627 366.189 124.8V124.4C366.189 123.64 366.049 123.02 365.769 122.54C365.489 122.047 365.122 121.687 364.669 121.46C364.215 121.22 363.735 121.1 363.229 121.1C362.722 121.1 362.242 121.22 361.789 121.46C361.335 121.687 360.969 122.047 360.689 122.54C360.409 123.02 360.269 123.64 360.269 124.4V124.8C360.269 125.627 360.409 126.3 360.689 126.82C360.969 127.327 361.335 127.7 361.789 127.94C362.242 128.18 362.722 128.3 363.229 128.3ZM375.221 130.22C374.287 130.22 373.427 130.027 372.641 129.64C371.854 129.24 371.221 128.64 370.741 127.84C370.261 127.04 370.021 126.027 370.021 124.8V124.4C370.021 123.227 370.247 122.253 370.701 121.48C371.167 120.707 371.781 120.133 372.541 119.76C373.301 119.373 374.127 119.18 375.021 119.18C376.634 119.18 377.867 119.613 378.721 120.48C379.587 121.347 380.021 122.587 380.021 124.2V125.32H372.261C372.287 126.04 372.441 126.62 372.721 127.06C373.001 127.5 373.361 127.82 373.801 128.02C374.241 128.207 374.714 128.3 375.221 128.3C375.981 128.3 376.534 128.18 376.881 127.94C377.241 127.7 377.487 127.387 377.621 127H379.821C379.607 128.053 379.081 128.853 378.241 129.4C377.414 129.947 376.407 130.22 375.221 130.22ZM375.121 121.1C374.627 121.1 374.167 121.187 373.741 121.36C373.314 121.533 372.967 121.807 372.701 122.18C372.434 122.553 372.287 123.053 372.261 123.68H377.821C377.807 123.013 377.681 122.493 377.441 122.12C377.201 121.747 376.881 121.487 376.481 121.34C376.081 121.18 375.627 121.1 375.121 121.1ZM386.222 130L390.022 124.54L386.422 119.4H388.942L391.822 123.66H392.822V119.4H395.022V123.66H396.022L399.142 119.4H401.422L397.622 124.44L401.622 130H399.142L396.022 125.54H395.022V130H392.822V125.54H391.822L388.822 130H386.222ZM403.414 130V119.4H405.614V126.9L410.714 119.4H412.814V130H410.614V122.5L405.514 130H403.414ZM415.421 130.22C415.314 130.22 415.194 130.213 415.061 130.2C414.941 130.2 414.827 130.187 414.721 130.16V128.08C414.761 128.093 414.861 128.1 415.021 128.1C415.394 128.1 415.694 127.94 415.921 127.62C416.161 127.3 416.334 126.747 416.441 125.96C416.561 125.16 416.621 124.04 416.621 122.6V119.4H424.621V130H422.421V121.28H418.741V123C418.741 124.413 418.667 125.593 418.521 126.54C418.387 127.473 418.181 128.207 417.901 128.74C417.621 129.273 417.274 129.653 416.861 129.88C416.447 130.107 415.967 130.22 415.421 130.22ZM427.618 130V119.4H429.818V123.12H432.218C433.578 123.12 434.584 123.413 435.238 124C435.891 124.573 436.218 125.427 436.218 126.56C436.218 127.267 436.078 127.88 435.798 128.4C435.518 128.92 435.084 129.32 434.498 129.6C433.911 129.867 433.151 130 432.218 130H427.618ZM429.818 128.12H432.018C432.751 128.12 433.264 127.993 433.558 127.74C433.864 127.473 434.018 127.08 434.018 126.56C434.018 126.04 433.864 125.653 433.558 125.4C433.264 125.133 432.751 125 432.018 125H429.818V128.12ZM443.014 130.22C442.08 130.22 441.22 130.027 440.434 129.64C439.647 129.24 439.014 128.64 438.534 127.84C438.054 127.04 437.814 126.027 437.814 124.8V124.4C437.814 123.227 438.04 122.253 438.494 121.48C438.96 120.707 439.574 120.133 440.334 119.76C441.094 119.373 441.92 119.18 442.814 119.18C444.427 119.18 445.66 119.613 446.514 120.48C447.38 121.347 447.814 122.587 447.814 124.2V125.32H440.054C440.08 126.04 440.234 126.62 440.514 127.06C440.794 127.5 441.154 127.82 441.594 128.02C442.034 128.207 442.507 128.3 443.014 128.3C443.774 128.3 444.327 128.18 444.674 127.94C445.034 127.7 445.28 127.387 445.414 127H447.614C447.4 128.053 446.874 128.853 446.034 129.4C445.207 129.947 444.2 130.22 443.014 130.22ZM442.914 121.1C442.42 121.1 441.96 121.187 441.534 121.36C441.107 121.533 440.76 121.807 440.494 122.18C440.227 122.553 440.08 123.053 440.054 123.68H445.614C445.6 123.013 445.474 122.493 445.234 122.12C444.994 121.747 444.674 121.487 444.274 121.34C443.874 121.18 443.42 121.1 442.914 121.1ZM440.734 118.12C440.347 118.12 440.027 118 439.774 117.76C439.534 117.507 439.414 117.187 439.414 116.8C439.414 116.413 439.534 116.1 439.774 115.86C440.027 115.607 440.347 115.48 440.734 115.48C441.12 115.48 441.434 115.607 441.674 115.86C441.927 116.1 442.054 116.413 442.054 116.8C442.054 117.187 441.927 117.507 441.674 117.76C441.434 118 441.12 118.12 440.734 118.12ZM444.894 118.12C444.507 118.12 444.187 118 443.934 117.76C443.694 117.507 443.574 117.187 443.574 116.8C443.574 116.413 443.694 116.1 443.934 115.86C444.187 115.607 444.507 115.48 444.894 115.48C445.28 115.48 445.594 115.607 445.834 115.86C446.087 116.1 446.214 116.413 446.214 116.8C446.214 117.187 446.087 117.507 445.834 117.76C445.594 118 445.28 118.12 444.894 118.12Z" fill="white"/>
</g>
</svg>
