<svg width="696" height="247" viewBox="0 0 696 247" fill="none" xmlns="http://www.w3.org/2000/svg">
<path d="M0 77.9204C0 70.0093 0 66.0538 0.764907 62.7316C3.19109 52.1942 11.1002 43.7778 21.4667 40.7021C24.7349 39.7324 28.6828 39.4868 36.5787 38.9956L654.192 0.576635C663.022 0.0273945 667.436 -0.247225 671.067 0.424067C682.624 2.56055 691.868 11.2479 694.718 22.6493C695.614 26.2316 695.614 30.6549 695.614 39.5014V208C695.614 216.367 695.614 220.551 694.785 224.003C692.151 234.973 683.586 243.538 672.617 246.171C669.164 247 664.981 247 656.614 247H39C30.6328 247 26.4493 247 22.9966 246.171C12.0272 243.538 3.46244 234.973 0.828902 224.003C0 220.551 0 216.367 0 208V77.9204Z" fill="white"/>
</svg>
