<svg width="1065" height="770" viewBox="0 0 1065 770" fill="none" xmlns="http://www.w3.org/2000/svg">
<mask id="mask0_1_203" style="mask-type:alpha" maskUnits="userSpaceOnUse" x="0" y="1" width="1065" height="769">
<path d="M0.591248 40.4946C0.591248 31.8403 0.591248 27.5131 1.46011 23.9819C4.22348 12.7511 13.1968 4.10895 24.5235 1.76969C28.0849 1.03417 32.409 1.19682 41.0572 1.52212L1026.52 38.5902C1034.59 38.8938 1038.63 39.0456 1041.97 39.9602C1052.56 42.8628 1060.73 51.3256 1063.24 62.0201C1064.04 65.3898 1064.04 69.4288 1064.05 77.5069L1064.95 702.03C1064.96 710.198 1064.96 714.282 1064.17 717.679C1061.64 728.466 1053.37 736.982 1042.66 739.828C1039.29 740.725 1035.21 740.84 1027.04 741.07L40.69 768.87C32.1119 769.112 27.8228 769.232 24.2885 768.473C13.0506 766.058 4.18054 757.435 1.45001 746.269C0.591248 742.758 0.591248 738.467 0.591248 729.885V40.4946Z" fill="#D9D9D9"/>
</mask>
<g mask="url(#mask0_1_203)">
<path d="M0.591248 0H1064V770H0.591248V0Z" fill="#D9D9D9"/>
</g>
</svg>
