<svg width="516" height="417" viewBox="0 0 516 417" fill="none" xmlns="http://www.w3.org/2000/svg">
<mask id="mask0_17_2449" style="mask-type:alpha" maskUnits="userSpaceOnUse" x="0" y="0" width="516" height="417">
<path d="M0 39C0 30.6328 0 26.4493 0.828902 22.9966C3.46244 12.0272 12.0272 3.46244 22.9966 0.828902C26.4493 0 30.6328 0 39 0H477C485.367 0 489.551 0 493.003 0.828902C503.973 3.46244 512.538 12.0272 515.171 22.9966C516 26.4493 516 30.6328 516 39V377.237C516 385.751 516 390.008 515.151 393.501C512.451 404.605 503.676 413.211 492.522 415.695C489.013 416.477 484.757 416.395 476.244 416.23L38.2443 407.741C30.0233 407.582 25.9128 407.502 22.5171 406.628C11.7342 403.85 3.37657 395.329 0.80867 384.494C0 381.082 0 376.971 0 368.748V39Z" fill="#FFFDFD"/>
</mask>
<g mask="url(#mask0_17_2449)">
<rect width="516" height="417.232" transform="translate(0.378906)" fill="white"/>
</g>
</svg>
