<svg width="910" height="890" viewBox="0 0 910 890" fill="none" xmlns="http://www.w3.org/2000/svg">
<mask id="mask0_7_2221" style="mask-type:alpha" maskUnits="userSpaceOnUse" x="0" y="0" width="910" height="890">
<path d="M207.883 26.6359C209.848 20.7572 210.83 17.8178 212.205 15.3593C216.538 7.60937 224.082 2.17704 232.805 0.524295C235.573 0 238.672 0 244.871 0L910 0V890H39C30.6329 890 26.4493 890 22.9966 889.171C12.0272 886.538 3.46244 877.973 0.828902 867.003C0 863.551 0 859.367 0 851V654.884C0 653.424 0 652.694 0.0351153 651.969C0.144458 649.711 0.508652 647.472 1.12076 645.296C1.31734 644.597 1.54881 643.905 2.01174 642.52L207.883 26.6359Z" fill="#D9D9D9"/>
</mask>
<g mask="url(#mask0_7_2221)">
<rect x="-890" width="940030" height="890" fill="#D9D9D9"/>
</g>
</svg>
