<svg width="516" height="3038" viewBox="0 0 516 3038" fill="none" xmlns="http://www.w3.org/2000/svg">
<mask id="mask0_55_2872" style="mask-type:alpha" maskUnits="userSpaceOnUse" x="0" y="0" width="516" height="3033">
<path d="M0 39.0001C0 30.6329 0 26.4493 0.828902 22.9966C3.46244 12.0272 12.0272 3.46244 22.9966 0.828902C26.4493 0 30.6328 0 39 0H477C485.367 0 489.551 0 493.003 0.828902C503.973 3.46244 512.538 12.0272 515.171 22.9966C516 26.4493 516 30.6328 516 39V2915.74C516 2922.89 516 2926.47 515.342 2929.56C513.259 2939.34 506.446 2947.43 497.17 2951.16C494.237 2952.33 490.712 2952.94 483.661 2954.16L45.6607 3030.09C36.046 3031.75 31.2386 3032.59 27.3116 3032.23C14.7726 3031.1 4.27198 3022.27 1.01885 3010.1C0 3006.3 0 3001.42 0 2991.66V39.0001Z" fill="#D9D9D9"/>
</mask>
<g mask="url(#mask0_55_2872)">
<rect x="-292" y="-1735.6" width="1180" height="12709" fill="#D9D9D9"/>
</g>
</svg>
