<svg width="516" height="3766" viewBox="0 0 516 3766" fill="none" xmlns="http://www.w3.org/2000/svg">
<mask id="mask0_55_3049" style="mask-type:alpha" maskUnits="userSpaceOnUse" x="0" y="0" width="516" height="3762">
<path d="M516 39.0001C516 30.6329 516 26.4493 515.171 22.9966C512.538 12.0272 503.973 3.46244 493.003 0.828902C489.551 0 485.367 0 477 0H39C30.6328 0 26.4493 0 22.9966 0.828902C12.0272 3.46244 3.46244 12.0272 0.828902 22.9966C0 26.4493 0 30.6328 0 39V3658.57C0 3665.92 0 3669.6 0.686661 3672.75C2.86026 3682.74 9.96586 3690.93 19.5427 3694.49C22.5681 3695.62 26.2097 3696.14 33.4928 3697.17L471.493 3759.65C480.897 3760.99 485.599 3761.66 489.448 3761.22C501.726 3759.8 511.876 3750.99 515.016 3739.04C516 3735.29 516 3730.54 516 3721.04V39.0001Z" fill="#D9D9D9"/>
</mask>
<g mask="url(#mask0_55_3049)">
<rect x="-209" y="-1450.95" width="797" height="10332.2" fill="#D9D9D9"/>
</g>
</svg>
