<svg width="910" height="730" viewBox="0 0 910 730" fill="none" xmlns="http://www.w3.org/2000/svg">
<mask id="mask0_7_2467" style="mask-type:alpha" maskUnits="userSpaceOnUse" x="19" y="0" width="891" height="730">
<path d="M40.3553 43.7063C39.23 34.4496 38.6673 29.8212 39.1741 26.0279C40.7895 13.9343 49.5682 4.02383 61.3784 0.960778C65.0829 0 69.7453 0 79.0703 0L910 0V730H63.707C50.8173 730 44.3724 730 39.9553 728.602C25.7087 724.095 16.9515 709.79 19.4163 695.052C20.1805 690.482 23.1116 684.742 28.9738 673.263L94.563 544.824C95.8017 542.399 96.4211 541.186 96.9204 539.947C98.4782 536.083 99.2139 531.936 99.0806 527.771C99.0378 526.437 98.8735 525.085 98.5448 522.381L40.3553 43.7063Z" fill="#D9D9D9"/>
</mask>
<g mask="url(#mask0_7_2467)">
<rect x="-890" width="2000" height="974" fill="#D9D9D9"/>
</g>
</svg>
