<svg width="910" height="700" viewBox="0 0 910 700" fill="none" xmlns="http://www.w3.org/2000/svg">
<mask id="mask0_1_1032" style="mask-type:alpha" maskUnits="userSpaceOnUse" x="6" y="0" width="904" height="700">
<path d="M45.0139 47.0809C42.9234 37.2107 41.8782 32.2756 42.1125 28.2546C42.8616 15.4009 51.7291 4.45857 64.1487 1.06242C68.0339 0 73.0784 0 83.1675 0L910 0V700H47.1915C37.2753 700 32.3173 700 28.4715 698.96C16.1853 695.639 7.33222 684.926 6.38442 672.234C6.08774 668.261 7.02172 663.392 8.88966 653.653L85.6288 253.571C85.9695 251.795 86.1398 250.907 86.2558 250.018C86.6171 247.25 86.5901 244.444 86.1757 241.683C86.0427 240.797 85.8553 239.912 85.4807 238.143L45.0139 47.0809Z" fill="#D9D9D9"/>
</mask>
<g mask="url(#mask0_1_1032)">
<rect x="-45" y="-51" width="1008" height="938" fill="#D9D9D9"/>
</g>
</svg>
