<svg width="516" height="3234" viewBox="0 0 516 3234" fill="none" xmlns="http://www.w3.org/2000/svg">
<mask id="mask0_55_2514" style="mask-type:alpha" maskUnits="userSpaceOnUse" x="0" y="0" width="516" height="3229">
<path d="M0 39.0001C0 30.6329 0 26.4493 0.828902 22.9966C3.46244 12.0272 12.0272 3.46244 22.9966 0.828902C26.4493 0 30.6328 0 39 0H477C485.367 0 489.551 0 493.003 0.828902C503.973 3.46244 512.538 12.0272 515.171 22.9966C516 26.4493 516 30.6328 516 39V3120.35C516 3127.62 516 3131.26 515.325 3134.38C513.19 3144.28 506.208 3152.43 496.758 3156.06C493.771 3157.21 490.179 3157.77 482.993 3158.89L44.9932 3227C35.4999 3228.48 30.7533 3229.22 26.8714 3228.81C14.483 3227.51 4.18614 3218.69 0.998775 3206.65C0 3202.88 0 3198.07 0 3188.47V39.0001Z" fill="#D9D9D9"/>
</mask>
<g mask="url(#mask0_55_2514)">
<rect y="-219.077" width="1014" height="9222.12" fill="#D9D9D9"/>
</g>
</svg>
