<svg width="666" height="512" viewBox="0 0 666 512" fill="none" xmlns="http://www.w3.org/2000/svg">
<mask id="mask0_1_450" style="mask-type:alpha" maskUnits="userSpaceOnUse" x="41" y="0" width="625" height="512">
<path d="M139.502 56.2179C139.146 44.1933 138.968 38.181 140.026 33.2271C143.39 17.4747 155.467 5.03429 171.113 1.20445C176.034 0 182.048 0 194.078 0L666 0V512H108.773C87.3522 512 76.6418 512 69.9952 509.711C48.4191 502.28 36.7239 478.981 43.6568 457.24C45.7925 450.543 52.1918 441.954 64.9904 424.777L135.802 329.742C138.391 326.268 139.685 324.531 140.771 322.719C144.161 317.061 146.172 310.683 146.639 304.104C146.788 301.997 146.724 299.831 146.596 295.501L139.502 56.2179Z" fill="#D9D9D9"/>
</mask>
<g mask="url(#mask0_1_450)">
<rect width="730.958" height="512" transform="matrix(-1 0 0 1 764.151 0)" fill="#FF0000"/>
</g>
</svg>
