<svg width="705" height="675" viewBox="0 0 705 675" fill="none" xmlns="http://www.w3.org/2000/svg">
<path fill-rule="evenodd" clip-rule="evenodd" d="M523.327 59.9011C542.309 41.9056 569.9 36.6017 594.096 46.3208C618.292 56.0399 634.732 79.0042 636.263 105.233C644.453 245.802 656.558 453.559 662.885 561.897C663.969 580.505 657.396 598.748 644.713 612.299C632.044 625.865 614.378 633.544 595.901 633.544H352.502H109.102C88.2576 633.544 68.6117 623.781 55.9141 607.126C43.202 590.456 38.8973 568.789 44.2566 548.476C68.814 455.322 108.351 305.354 135.827 201.155C142.081 177.462 160.528 159.03 184.089 152.968C207.635 146.907 232.583 154.163 249.325 171.94C258.772 181.994 268.147 191.947 276.873 201.214C302.297 228.214 344.579 229.424 371.476 203.91C412.227 165.266 471.843 108.729 523.327 59.9011Z" fill="#28C6D4" stroke="#28C6D4" stroke-width="82.8002"/>
</svg>
