<svg width="805" height="404" viewBox="0 0 805 404" fill="none" xmlns="http://www.w3.org/2000/svg">
<path d="M632.619 404H-1V39C-1 30.6328 -1 26.4493 -0.171098 22.9966C2.46244 12.0272 11.0272 3.46244 21.9966 0.828902C25.4493 0 29.6328 0 38 0H804.5V211.49C804.5 220.524 804.5 225.042 804.108 229.454C802.886 243.223 798.822 256.589 792.174 268.708C790.043 272.592 787.529 276.344 782.501 283.848L782.5 283.85L740.619 346.36C731.944 359.308 727.606 365.782 722.653 371.235C707.118 388.338 686.14 399.534 663.284 402.92C655.997 404 648.204 404 632.619 404Z" fill="white"/>
</svg>
