<svg width="1064" height="560" viewBox="0 0 1064 560" fill="none" xmlns="http://www.w3.org/2000/svg">
<mask id="mask0_1_684" style="mask-type:alpha" maskUnits="userSpaceOnUse" x="0" y="1" width="1063" height="559">
<path d="M0 40.5597C0 31.893 0 27.5596 0.870591 24.025C3.63958 12.783 12.6305 4.13781 23.9724 1.81157C27.5384 1.08019 31.8685 1.25003 40.5286 1.58972L1008.03 39.5399C1015.81 39.8449 1019.7 39.9975 1022.95 40.8724C1033.26 43.6464 1041.32 51.6922 1044.11 61.9987C1045 65.2496 1045.15 69.1377 1045.47 76.914L1062.38 489.846C1062.73 498.298 1062.9 502.523 1062.21 506.033C1059.98 517.186 1051.65 526.126 1040.68 529.118C1037.22 530.06 1033 530.182 1024.54 530.426L40.1253 558.842C31.5421 559.09 27.2505 559.213 23.7142 558.456C12.4699 556.046 3.59238 547.421 0.859491 536.251C0 532.738 0 528.445 0 519.858V40.5597Z" fill="#D9D9D9"/>
</mask>
<g mask="url(#mask0_1_684)">
<rect x="-96" y="-185" width="1342" height="787" fill="#D9D9D9"/>
</g>
</svg>
