<svg width="517" height="112" viewBox="0 0 517 112" fill="none" xmlns="http://www.w3.org/2000/svg">
<mask id="mask0_28_5721" style="mask-type:alpha" maskUnits="userSpaceOnUse" x="0" y="0" width="515" height="112">
<path d="M0.75 39.8758C0.75 31.3401 0.75 27.0723 1.60239 23.5732C4.31222 12.4494 13.1172 3.83778 24.2985 1.37563C27.8156 0.601144 32.0824 0.695912 40.616 0.885448L474.995 10.5333C482.783 10.7062 486.677 10.7927 489.946 11.6134C500.31 14.2152 508.508 22.1335 511.467 32.4012C512.401 35.6397 512.622 39.5285 513.065 47.306L514.403 70.7824C514.903 79.5733 515.154 83.9688 514.468 87.5851C512.288 99.0926 503.61 108.279 492.245 111.11C488.673 112 484.271 112 475.466 112H39.75C31.3828 112 27.1993 112 23.7466 111.171C12.7772 108.538 4.21244 99.9728 1.5789 89.0034C0.75 85.5507 0.75 81.3672 0.75 73V39.8758Z" fill="#D9D9D9"/>
</mask>
<g mask="url(#mask0_28_5721)">
<rect x="1" y="-27" width="614" height="224" fill="#D9D9D9"/>
</g>
</svg>
