<svg width="1512" height="1842" viewBox="0 0 1512 1842" fill="none" xmlns="http://www.w3.org/2000/svg">
<mask id="mask0_1_2266" style="mask-type:alpha" maskUnits="userSpaceOnUse" x="0" y="1" width="1512" height="1841">
<path d="M0.5 40.6133C0.5 31.9363 0.5 27.5978 1.37201 24.0604C4.14562 12.8093 13.1511 4.16154 24.5054 1.84601C28.0751 1.11802 32.4101 1.29378 41.0799 1.6453L1449.91 58.7659C1457.87 59.0885 1461.85 59.2499 1465.16 60.1569C1475.64 63.0345 1483.74 71.3563 1486.34 81.91C1487.16 85.2366 1487.22 89.2185 1487.33 97.1825L1511.44 1802.45C1511.56 1810.92 1511.62 1815.16 1510.83 1818.65C1508.3 1829.76 1499.71 1838.47 1488.64 1841.16C1485.16 1842 1480.92 1842 1472.44 1842H39.5C31.1329 1842 26.9493 1842 23.4966 1841.17C12.5272 1838.54 3.96244 1829.97 1.3289 1819C0.5 1815.55 0.5 1811.37 0.5 1803V40.6133Z" fill="#D9D9D9"/>
</mask>
<g mask="url(#mask0_1_2266)">
<rect x="-102" y="-70" width="1799" height="2022" fill="#D9D9D9"/>
</g>
</svg>
