<svg width="516" height="568" viewBox="0 0 516 568" fill="none" xmlns="http://www.w3.org/2000/svg">
<mask id="mask0_404_3132" style="mask-type:alpha" maskUnits="userSpaceOnUse" x="0" y="0" width="516" height="567">
<path d="M516 39C516 30.6328 516 26.4493 515.171 22.9966C512.538 12.0272 503.973 3.46244 493.003 0.828902C489.551 0 485.367 0 477 0H39C30.6328 0 26.4492 0 22.9966 0.828902C12.0272 3.46244 3.46246 12.0272 0.828918 22.9966C0 26.4493 0 30.6328 0 39V501.445C0 509.389 0 513.36 0.769531 516.692C3.21057 527.261 11.167 535.689 21.5782 538.735C24.8601 539.695 28.8254 539.923 36.7561 540.38L474.756 565.623C483.552 566.13 487.95 566.383 491.568 565.7C503.082 563.525 512.276 554.846 515.11 543.476C516 539.903 516 535.498 516 526.688V39Z" fill="#D9D9D9"/>
</mask>
<g mask="url(#mask0_404_3132)">
<rect width="516" height="568" rx="30" fill="white"/>
</g>
</svg>
