<svg width="516" height="568" viewBox="0 0 516 568" fill="none" xmlns="http://www.w3.org/2000/svg">
<mask id="mask0_17_3669" style="mask-type:alpha" maskUnits="userSpaceOnUse" x="0" y="0" width="516" height="567">
<path d="M0 39C0 30.6328 0 26.4493 0.828902 22.9966C3.46244 12.0272 12.0272 3.46244 22.9966 0.828902C26.4493 0 30.6328 0 39 0H477C485.367 0 489.551 0 493.003 0.828902C503.973 3.46244 512.538 12.0272 515.171 22.9966C516 26.4493 516 30.6328 516 39V501.445C516 509.389 516 513.36 515.23 516.692C512.789 527.261 504.833 535.689 494.422 538.735C491.14 539.695 487.175 539.923 479.244 540.38L41.2439 565.623C32.448 566.13 28.0501 566.383 24.4319 565.7C12.918 563.525 3.72414 554.846 0.890465 543.476C0 539.903 0 535.498 0 526.688V39Z" fill="#D9D9D9"/>
</mask>
<g mask="url(#mask0_17_3669)">
<rect x="-88" y="-30" width="675" height="606" fill="#D9D9D9"/>
</g>
</svg>
