<svg width="1800" height="156" viewBox="0 0 1800 156" fill="none" xmlns="http://www.w3.org/2000/svg">
<mask id="mask0_7_2699" style="mask-type:alpha" maskUnits="userSpaceOnUse" x="6" y="0" width="1789" height="157">
<path d="M23.8104 32.1859C25.1601 25.1677 25.8349 21.6586 27.0631 18.7508C30.9481 9.55316 39.1543 2.89106 48.954 0.979045C52.0522 0.374559 55.625 0.435225 62.7708 0.556557L1747.26 29.1586C1754.4 29.2798 1757.97 29.3404 1761.05 30.0487C1770.77 32.2891 1778.74 39.2159 1782.32 48.5298C1783.45 51.4744 1784 55.0005 1785.12 62.0525L1792.86 110.9C1794.36 120.413 1795.12 125.169 1794.72 129.058C1793.45 141.471 1784.62 151.8 1772.56 154.998C1768.78 156 1763.97 156 1754.34 156H47.2146C37.2942 156 32.334 156 28.4872 154.96C16.1977 151.636 7.3442 140.918 6.40132 128.222C6.10619 124.248 7.04291 119.377 8.91636 109.635L23.8104 32.1859Z" fill="#D9D9D9"/>
</mask>
<g mask="url(#mask0_7_2699)">
<rect width="1800" height="163" rx="30" fill="white"/>
</g>
</svg>
