<svg width="1073" height="847" viewBox="0 0 1073 847" fill="none" xmlns="http://www.w3.org/2000/svg">
<mask id="mask0_1_188" style="mask-type:alpha" maskUnits="userSpaceOnUse" x="0" y="6" width="1072" height="841">
<path d="M0.703613 99.9999C0.703613 91.6328 0.703613 87.4492 1.53252 83.9966C4.16605 73.0271 12.7308 64.4624 23.7003 61.8288C27.1529 60.9999 31.3365 60.9999 39.7036 60.9999H498.83C501.498 60.9999 502.832 60.9999 504.136 60.8859C508.205 60.53 512.159 59.347 515.755 57.4094C516.907 56.7883 518.022 56.0555 520.252 54.59L581.237 14.504C585.893 11.4438 588.22 9.91364 590.583 8.88644C598.013 5.65539 606.434 5.56702 613.93 8.64143C616.313 9.61883 618.672 11.0998 623.391 14.0617L688.667 55.0324C690.842 56.3977 691.93 57.0803 693.051 57.659C696.549 59.4642 700.368 60.5634 704.29 60.8939C705.548 60.9999 706.832 60.9999 709.4 60.9999H1032.48C1041.14 60.9999 1045.47 60.9999 1049 61.8694C1060.24 64.6347 1068.88 73.614 1071.22 84.946C1071.95 88.509 1071.78 92.8351 1071.45 101.487L1044.43 809.487C1044.12 817.566 1043.97 821.605 1043.05 824.945C1040.14 835.546 1031.66 843.705 1020.96 846.211C1017.59 847 1013.54 847 1005.46 847H39.7036C31.3364 847 27.1529 847 23.7003 846.171C12.7308 843.537 4.16605 834.973 1.53252 824.003C0.703613 820.551 0.703613 816.367 0.703613 808V99.9999Z" fill="url(#paint0_linear_1_188)"/>
</mask>
<g mask="url(#mask0_1_188)">
<rect x="-339" y="-143" width="1465" height="1125" fill="#D9D9D9"/>
</g>
<defs>
<linearGradient id="paint0_linear_1_188" x1="1073" y1="61.0007" x2="-719.359" y2="864.055" gradientUnits="userSpaceOnUse">
<stop stop-color="#66A2F7"/>
<stop offset="1" stop-color="#BFDBFF"/>
</linearGradient>
</defs>
</svg>
