<svg width="516" height="610" viewBox="0 0 516 610" fill="none" xmlns="http://www.w3.org/2000/svg">
<mask id="mask0_45_3181" style="mask-type:alpha" maskUnits="userSpaceOnUse" x="0" y="1" width="516" height="609">
<path d="M0 40.6815C0 31.9915 0 27.6464 0.873818 24.1056C3.65331 12.8428 12.6772 4.19186 24.0473 1.89C27.6218 1.16634 31.963 1.34965 40.6453 1.71626L469.287 19.8158C477.21 20.1503 481.171 20.3176 484.463 21.2249C494.907 24.1028 502.988 32.3874 505.605 42.8994C506.43 46.2133 506.499 50.1777 506.636 58.1064L515.328 560.455C515.472 568.796 515.544 572.966 514.778 576.425C512.346 587.415 503.967 596.118 493.078 598.966C489.65 599.862 485.481 599.949 477.141 600.122L39.8073 609.176C31.2849 609.352 27.0238 609.44 23.511 608.662C12.344 606.188 3.5554 597.58 0.850789 586.466C0 582.97 0 578.708 0 570.184V40.6815Z" fill="#D9D9D9"/>
</mask>
<g mask="url(#mask0_45_3181)">
<rect x="-30" y="-275" width="1000" height="1000" fill="#D9D9D9"/>
</g>
</svg>
