<svg width="237" height="34" viewBox="0 0 237 34" fill="none" xmlns="http://www.w3.org/2000/svg">
<path fill-rule="evenodd" clip-rule="evenodd" d="M23.413 3.25036C24.2405 2.4659 25.4432 2.23469 26.498 2.65837C27.5528 3.08204 28.2694 4.08311 28.3362 5.22645C28.6932 11.3542 29.2209 20.4108 29.4967 25.1334C29.5439 25.9446 29.2574 26.7398 28.7045 27.3306C28.1522 27.9219 27.3821 28.2567 26.5767 28.2567H15.9664H5.35611C4.44743 28.2567 3.59103 27.8311 3.03751 27.1051C2.48337 26.3784 2.29572 25.4339 2.52934 24.5484C3.59985 20.4876 5.32336 13.9502 6.52108 9.40791C6.79372 8.37509 7.59787 7.57159 8.62495 7.30735C9.65137 7.04312 10.7389 7.35945 11.4687 8.13436C11.8805 8.57266 12.2892 9.00651 12.6696 9.41048C13.7779 10.5875 15.621 10.6402 16.7935 9.528C18.57 7.84345 21.1688 5.37889 23.413 3.25036Z" stroke="#FF326E" stroke-width="3.60943"/>
<path d="M117.934 11.7373H105.08C105.08 15.599 104.838 19.2146 104.185 22.5925C103.807 24.5912 102.258 26.3482 101.121 26.3482H100.739V33.5834H103.599V29.1023H117.349V33.5834H120.209V26.3482H117.934V11.7373ZM44.6511 29.586C51.6107 29.586 54.0549 24.4513 54.0549 20.318C54.0549 16.1847 51.6107 11.05 44.6511 11.05C37.7257 11.05 35.277 16.1847 35.277 20.318C35.277 24.4513 37.7257 29.586 44.6511 29.586ZM132.197 29.586C135.676 29.586 139.123 28.4487 140.604 24.1414H137.501C136.33 26.0722 134.128 26.4839 132.197 26.4839C128.165 26.4839 126.341 24.2094 126.235 21.2813H141.189C141.189 12.8068 135.952 11.05 132.197 11.05C125.271 11.05 123.031 16.1847 123.031 20.318C123.031 25.5546 125.547 29.586 132.197 29.586ZM88.8188 29.586C95.7783 29.586 98.227 24.4513 98.227 20.318C98.227 16.1847 95.7783 11.05 88.8188 11.05C81.8931 11.05 79.4489 16.1847 79.4489 20.318C79.4489 24.4513 81.8931 29.586 88.8188 29.586ZM169.337 29.1023L160.587 20.0762L168.786 11.7373H164.618L157.624 19.1468H156.971V11.7373H153.903V19.1468H153.25L146.256 11.7373H142.084L150.283 20.11L141.533 29.1023H145.772L153.042 21.2473H153.903V29.1023H156.971V21.2473H157.828L165.102 29.1023H169.337ZM73.6603 11.7373H60.8449C60.8449 15.599 60.603 19.2146 59.9452 22.5925C59.3597 25.6946 58.846 26.416 55.9859 26.3141L55.8797 29.1023C61.566 29.1023 62.1181 28.4488 62.9455 22.7284C63.323 20.1441 63.6327 17.3558 63.7345 14.4957H70.5244V29.1023H73.6603V11.7373ZM202.208 29.1023C206.206 29.1023 208.2 27.0016 208.2 23.9717C208.2 21.4552 206.791 18.7691 201.724 18.7691H197.141V11.7373H194.005V29.1023H202.208ZM213.818 29.1023V11.7373H210.683V29.1023H213.818ZM175.265 29.1023V21.4214H185.496V29.1023H188.633V11.7373H185.496V18.4933H175.265V11.7373H172.129V29.1023H175.265ZM222.327 24.6592V11.7373H219.191V29.1023H222.327L233.628 16.1846V29.1023H236.764V11.7373H233.628L222.327 24.6592ZM88.8188 26.4839C85.063 26.4839 82.7205 24.2094 82.7205 20.318C82.7205 16.4223 84.9951 14.1521 88.8188 14.1521C92.6424 14.1521 94.9505 16.4223 94.9505 20.318C94.9505 24.2094 92.5746 26.4839 88.8188 26.4839ZM44.6511 26.4839C40.8957 26.4839 38.5531 24.2094 38.5531 20.318C38.5531 16.4223 40.8235 14.1521 44.6511 14.1521C48.4748 14.1521 50.7833 16.4223 50.7833 20.318C50.7833 24.2094 48.4069 26.4839 44.6511 26.4839ZM197.141 21.5231H201.792C203.859 21.5231 204.996 21.9008 204.996 23.9717C204.996 25.8643 203.825 26.4501 201.864 26.4501H197.141V21.5231ZM105.22 26.3482C105.84 26.1062 106.803 24.7272 107.219 22.7284C107.733 20.1823 107.974 17.3558 108.047 14.4957H114.798V26.3482H105.22ZM126.307 18.4593C126.82 15.8368 128.853 14.1181 132.095 14.1181C134.056 14.1181 137.332 14.9074 137.917 18.4593H126.307ZM228.013 9.53491C232.045 9.53491 234.421 6.81052 234.421 4.43408H231.803C231.803 5.81327 230.356 7.22641 228.013 7.22641C225.671 7.22641 224.19 5.81327 224.19 4.43408H221.571C221.571 6.81052 223.948 9.53491 228.013 9.53491ZM128.853 9.22515C129.99 9.22515 130.924 8.29161 130.924 7.1543C130.924 6.02126 129.99 5.08762 128.853 5.08762C127.716 5.08762 126.786 6.02126 126.786 7.1543C126.786 8.29161 127.716 9.22515 128.853 9.22515ZM135.367 9.22515C136.504 9.22515 137.433 8.29161 137.433 7.1543C137.433 6.02126 136.504 5.08762 135.367 5.08762C134.23 5.08762 133.3 6.02126 133.3 7.1543C133.3 8.29161 134.23 9.22515 135.367 9.22515Z" fill="black"/>
</svg>
