<svg width="516" height="970" viewBox="0 0 516 970" fill="none" xmlns="http://www.w3.org/2000/svg">
<mask id="mask0_17_2302" style="mask-type:alpha" maskUnits="userSpaceOnUse" x="0" y="0" width="516" height="969">
<path d="M0.8207 39.8039C0.644995 31.2823 0.557142 27.0214 1.3356 23.5089C3.81026 12.3427 12.4186 3.55502 23.5314 0.850699C27.0272 0 31.2889 0 39.8124 0H476.17C484.697 0 488.96 0 492.457 0.851169C503.573 3.55702 512.182 12.3495 514.653 23.5199C515.431 27.0337 515.341 31.2962 515.161 39.8212L496.77 913.044C496.604 920.941 496.521 924.889 495.688 928.191C493.046 938.663 484.98 946.907 474.567 949.776C471.284 950.68 467.339 950.849 459.447 951.187L59.8379 968.294C51.3103 968.66 47.0465 968.842 43.5142 968.14C32.2849 965.909 23.3047 957.481 20.3662 946.415C19.4419 942.935 19.354 938.668 19.178 930.134L0.8207 39.8039Z" fill="#D9D9D9"/>
</mask>
<g mask="url(#mask0_17_2302)">
<rect width="516" height="970" fill="url(#paint0_linear_17_2302)"/>
</g>
<defs>
<linearGradient id="paint0_linear_17_2302" x1="516" y1="-7.56385e-05" x2="-106.209" y2="55.5994" gradientUnits="userSpaceOnUse">
<stop stop-color="#66A2F7"/>
<stop offset="1" stop-color="#BFDBFF"/>
</linearGradient>
</defs>
</svg>
