<svg width="516" height="544" viewBox="0 0 516 544" fill="none" xmlns="http://www.w3.org/2000/svg">
<mask id="mask0_45_3391" style="mask-type:alpha" maskUnits="userSpaceOnUse" x="0" y="1" width="516" height="541">
<path d="M0 40.6897C0 31.998 0 27.6522 0.874033 24.111C3.65422 12.8468 12.6803 4.19547 24.0523 1.89524C27.6274 1.1721 31.9693 1.3563 40.6531 1.72472L478.653 20.307C486.699 20.6483 490.723 20.819 494.05 21.7458C504.609 24.6871 512.724 33.1533 515.215 43.8279C516 47.1916 516 51.2184 516 59.2719V474.566C516 482.467 516 486.417 515.237 489.736C512.815 500.264 504.921 508.677 494.568 511.762C491.304 512.735 487.362 512.985 479.477 513.487L41.4769 541.361C32.6369 541.923 28.2169 542.204 24.5819 541.537C13.0124 539.412 3.7519 530.723 0.896988 519.311C0 515.726 0 511.297 0 502.439V40.6897Z" fill="#D9D9D9"/>
</mask>
<g mask="url(#mask0_45_3391)">
<rect x="-177" y="-142" width="706" height="954" fill="#D9D9D9"/>
</g>
</svg>
