<svg width="31" height="34" viewBox="0 0 31 34" fill="none" xmlns="http://www.w3.org/2000/svg">
<path fill-rule="evenodd" clip-rule="evenodd" d="M22.9821 2.80114C23.8095 2.01668 25.0123 1.78547 26.067 2.20915C27.1218 2.63282 27.8384 3.63389 27.9052 4.77724C28.2622 10.9049 28.7899 19.9615 29.0657 24.6842C29.113 25.4953 28.8264 26.2906 28.2735 26.8813C27.7213 27.4727 26.9512 27.8075 26.1457 27.8075H15.5354H4.92514C4.01647 27.8075 3.16006 27.3818 2.60654 26.6558C2.0524 25.9292 1.86475 24.9846 2.09837 24.0992C3.16888 20.0384 4.89239 13.501 6.09011 8.95869C6.36275 7.92587 7.1669 7.12237 8.19398 6.85814C9.2204 6.5939 10.3079 6.91023 11.0377 7.68514C11.4496 8.12344 11.8582 8.55729 12.2386 8.96126C13.3469 10.1383 15.1901 10.191 16.3626 9.07878C18.139 7.39423 20.7378 4.92968 22.9821 2.80114Z" fill="#FF6B00" stroke="#FF6B00" stroke-width="3.60943"/>
<path d="M16.866 32.5C16.4811 33.1667 15.5189 33.1667 15.134 32.5L13.4019 29.5L18.5981 29.5L16.866 32.5Z" fill="#FF6B00"/>
</svg>
