<svg width="696" height="481" viewBox="0 0 696 481" fill="none" xmlns="http://www.w3.org/2000/svg">
<path d="M0 423.747C0 431.907 0 435.987 0.799984 439.382C3.33973 450.158 11.6084 458.66 22.3101 461.498C25.681 462.392 29.7597 462.505 37.9171 462.732L655.531 479.887C664.106 480.125 668.393 480.244 671.926 479.483C683.16 477.065 692.026 468.442 694.755 457.28C695.614 453.769 695.614 449.48 695.614 440.902V39C695.614 30.6328 695.614 26.4493 694.785 22.9966C692.151 12.0272 683.586 3.46243 672.617 0.828888C669.164 0 664.981 0 656.614 0H39C30.6328 0 26.4493 0 22.9966 0.828888C12.0272 3.46243 3.46244 12.0272 0.828902 22.9966C0 26.4493 0 30.6328 0 39V423.747Z" fill="white"/>
</svg>
