<svg width="1800" height="180" viewBox="0 0 1800 180" fill="none" xmlns="http://www.w3.org/2000/svg">
<mask id="mask0_1_1798" style="mask-type:alpha" maskUnits="userSpaceOnUse" x="0" y="0" width="1794" height="180">
<path d="M0.5 39.3478C0.5 30.8845 0.503526 26.7414 1.32428 23.3427C3.94378 12.4954 12.4599 4.05456 23.33 1.53146C26.7359 0.740911 30.8788 0.774166 39.3418 0.849301L1737.77 15.9281C1744.83 15.9908 1748.28 16.0241 1751.27 16.679C1760.74 18.7581 1768.58 25.3597 1772.25 34.3371C1773.41 37.1646 1774.03 40.5636 1775.3 47.5105L1791.11 134.084C1792.88 143.795 1793.74 148.552 1793.43 152.419C1792.41 164.825 1783.71 175.255 1771.69 178.488C1767.94 179.496 1763.11 179.5 1753.23 179.5H39C30.604 179.5 26.4939 179.497 23.1134 178.685C12.3267 176.095 3.90473 167.673 1.31509 156.887C0.503482 153.506 0.5 149.396 0.5 141V39.3478Z" fill="#D9D9D9" stroke="black"/>
</mask>
<g mask="url(#mask0_1_1798)">
<rect y="-0.00012207" width="1800" height="180" rx="30" fill="white"/>
</g>
</svg>
