<svg width="516" height="320" viewBox="0 0 516 320" fill="none" xmlns="http://www.w3.org/2000/svg">
<mask id="mask0_28_4620" style="mask-type:alpha" maskUnits="userSpaceOnUse" x="0" y="0" width="516" height="320">
<path d="M516 39C516 30.6328 516 26.4493 515.171 22.9966C512.538 12.0272 503.973 3.46244 493.003 0.828902C489.551 0 485.367 0 477 0H39C30.6328 0 26.4493 0 22.9966 0.828902C12.0272 3.46244 3.46246 12.0272 0.828918 22.9966C0 26.4493 0 30.6328 0 39V271.749C0 279.971 0 284.082 0.808655 287.494C3.37659 298.329 11.7342 306.85 22.5172 309.628C25.9128 310.502 30.0233 310.582 38.2443 310.741L476.244 319.23C484.757 319.395 489.013 319.477 492.522 318.695C503.676 316.211 512.451 307.605 515.151 296.501C516 293.008 516 288.751 516 280.237V39Z" fill="#D9D9D9"/>
</mask>
<g mask="url(#mask0_28_4620)">
<rect width="516" height="320" fill="white"/>
</g>
</svg>
