<svg width="516" height="320" viewBox="0 0 516 320" fill="none" xmlns="http://www.w3.org/2000/svg">
<mask id="mask0_28_4610" style="mask-type:alpha" maskUnits="userSpaceOnUse" x="0" y="0" width="516" height="320">
<path d="M0 39C0 30.6328 0 26.4493 0.828902 22.9966C3.46244 12.0272 12.0272 3.46244 22.9966 0.828902C26.4493 0 30.6328 0 39 0H477C485.367 0 489.551 0 493.003 0.828902C503.973 3.46244 512.538 12.0272 515.171 22.9966C516 26.4493 516 30.6328 516 39V271.749C516 279.971 516 284.082 515.191 287.494C512.623 298.329 504.266 306.85 493.483 309.628C490.087 310.502 485.977 310.582 477.756 310.741L39.7557 319.23C31.2432 319.395 26.987 319.477 23.478 318.695C12.3236 316.211 3.54942 307.605 0.849382 296.501C0 293.008 0 288.751 0 280.237V39Z" fill="#D9D9D9"/>
</mask>
<g mask="url(#mask0_28_4610)">
<rect width="516" height="320" fill="white"/>
</g>
</svg>
