<svg width="880" height="546" viewBox="0 0 880 546" fill="none" xmlns="http://www.w3.org/2000/svg">
<mask id="mask0_1_1536" style="mask-type:alpha" maskUnits="userSpaceOnUse" x="0" y="1" width="879" height="545">
<path d="M861.404 66.2027C861.1 58.3795 860.949 54.4679 860.068 51.2016C857.276 40.8444 849.167 32.7662 838.799 30.0142C835.529 29.1463 831.617 29.0099 823.793 28.7369L40.3601 1.40789C31.7322 1.10692 27.4183 0.956434 23.8647 1.69893C12.5636 4.06022 3.62024 12.697 0.866394 23.9089C0.000488281 27.4344 0.000488281 31.751 0.000488281 40.3842V487.876C0.000488281 496.074 0.000488281 500.173 0.805664 503.578C3.36237 514.389 11.6844 522.903 22.4351 525.704C25.8209 526.587 29.9187 526.68 38.1144 526.866L838.537 545.058C847.376 545.259 851.796 545.359 855.396 544.546C866.855 541.958 875.749 532.921 878.152 521.422C878.908 517.809 878.737 513.392 878.394 504.557L861.404 66.2027Z" fill="#D9D9D9"/>
</mask>
<g mask="url(#mask0_1_1536)">
<rect width="880" height="546" transform="matrix(-1 0 0 1 880 0)" fill="white"/>
</g>
</svg>
