<svg width="1770" height="171" viewBox="0 0 1770 171" fill="none" xmlns="http://www.w3.org/2000/svg">
<mask id="mask0_1_1519" style="mask-type:alpha" maskUnits="userSpaceOnUse" x="3" y="0" width="1765" height="170">
<path d="M890.015 144.85L890 144.85L889.986 144.85L45.0865 169.2C35.5273 169.476 30.8461 169.607 27.1438 168.745C15.2802 165.985 6.33288 156.217 4.62141 144.158C4.08731 140.394 4.62711 135.742 5.73804 126.244L16.4336 34.7965C17.3175 27.2393 17.7531 23.5411 18.8186 20.4874C22.2088 10.7724 30.416 3.52573 40.476 1.36476C43.6381 0.685516 47.3618 0.711294 54.9703 0.770044L1723.68 13.6552C1731.55 13.716 1735.4 13.7489 1738.63 14.514C1748.91 16.9505 1757.11 24.7002 1760.11 34.8306C1761.06 38.0116 1761.3 41.8575 1761.8 49.7156L1766.79 128.331C1767.37 137.435 1767.65 141.893 1766.97 145.513C1764.79 157.093 1755.92 166.265 1744.42 168.84C1740.83 169.646 1736.36 169.519 1727.25 169.254L890.015 144.85Z" fill="#D9D9D9" stroke="black"/>
</mask>
<g mask="url(#mask0_1_1519)">
<rect x="-158" y="-30" width="2001" height="241" fill="#D9D9D9"/>
</g>
</svg>
