<svg width="516" height="84" viewBox="0 0 516 84" fill="none" xmlns="http://www.w3.org/2000/svg">
<mask id="mask0_27_2228" style="mask-type:alpha" maskUnits="userSpaceOnUse" x="0" y="0" width="516" height="84">
<path d="M516 46.6415C516 39.9216 516 36.5616 515.459 33.7506C513.179 21.913 504.035 12.5899 492.243 10.0811C489.443 9.48534 486.084 9.42023 479.365 9.29003L39.7557 0.770459C31.2432 0.605489 26.987 0.523004 23.478 1.30454C12.3236 3.78892 3.54944 12.3947 0.849365 23.4989C0 26.9921 0 31.2491 0 39.7631V45C0 53.3672 0 57.5507 0.828918 61.0034C3.46246 71.9728 12.0272 80.5376 22.9966 83.1711C26.4493 84 30.6328 84 39 84H478.642C485.48 84 488.899 84 491.744 83.445C503.733 81.1064 513.106 71.7325 515.445 59.7437C516 56.8986 516 53.4796 516 46.6415Z" fill="#D9D9D9"/>
</mask>
<g mask="url(#mask0_27_2228)">
<rect width="516" height="84" fill="white"/>
</g>
</svg>
