<svg width="516" height="84" viewBox="0 0 516 84" fill="none" xmlns="http://www.w3.org/2000/svg">
<mask id="mask0_27_2218" style="mask-type:alpha" maskUnits="userSpaceOnUse" x="0" y="0" width="516" height="84">
<path d="M0 46.6415C0 39.9216 0 36.5616 0.541395 33.7506C2.82129 21.913 11.9654 12.5899 23.7566 10.0811C26.5566 9.48534 29.9159 9.42023 36.6346 9.29003L476.244 0.770459C484.757 0.605489 489.013 0.523004 492.522 1.30454C503.676 3.78892 512.451 12.3947 515.151 23.4989C516 26.9921 516 31.2491 516 39.7631V45C516 53.3672 516 57.5507 515.171 61.0034C512.538 71.9728 503.973 80.5376 493.003 83.1711C489.551 84 485.367 84 477 84H37.3585C30.5204 84 27.1014 84 24.2563 83.445C12.2675 81.1064 2.89356 71.7325 0.554961 59.7437C0 56.8986 0 53.4796 0 46.6415Z" fill="#D9D9D9"/>
</mask>
<g mask="url(#mask0_27_2218)">
<rect width="516" height="84" fill="white"/>
</g>
</svg>
