<svg width="140" height="50" viewBox="0 0 140 50" fill="none" xmlns="http://www.w3.org/2000/svg">
<path d="M45.6105 0.274231V0.285072L41.2554 4.6402V0.274231H36.8987L29.6397 7.53484V26.4096H32.5436V8.98758L38.3515 3.17971V26.4096H41.2554V8.98758L47.0617 3.17971V26.4096H49.9672V0.274231H45.6105Z" fill="#30454F"/>
<path d="M9.31192 3.17984V23.5058H3.50406V8.98616L9.31192 3.17984ZM0.600121 26.4098H12.2159V0.274353H7.85918L0.598572 7.53497H0.600121V26.4098Z" fill="#30454F"/>
<path d="M18.0235 3.17971H23.8314V23.5057H18.0235V3.17971ZM26.7353 0.274231H15.1196V26.4096H26.7353V0.274231Z" fill="#30454F"/>
<path d="M49.965 29.3133H0.59967V32.2172H49.965V29.3133Z" fill="#30454F"/>
<path d="M18.0233 43.8331H3.5036V38.0252H18.0233V43.8331ZM0.59967 35.1213V49.6409H3.5036V46.737H20.9272V35.1213H0.59967Z" fill="#30454F"/>
<path d="M47.0627 43.8331H38.3509V38.0252H47.0627V43.8331ZM26.7351 38.0252H35.4469V43.8331H26.7351V38.0252ZM23.8312 35.1213V46.737H35.4469V49.6409H38.3509V46.737H49.9666V35.1213H23.8312Z" fill="#30454F"/>
<path d="M95.722 27.0709H93.1774V30.6687H95.722C96.8572 30.6687 97.534 29.9532 97.534 28.869C97.534 27.7849 96.8572 27.0709 95.722 27.0709ZM95.8505 32.9423H90.6328V19.8769H99.2547V22.152H93.1774V24.7942H95.8505C98.468 24.7942 100.079 26.4839 100.079 28.869C100.079 31.2541 98.4865 32.9423 95.8505 32.9423Z" fill="#30454F"/>
<path d="M107.917 23.7318L106.269 28.4834H109.509L107.917 23.7318ZM110.955 32.9423L110.186 30.6315H105.555L104.767 32.9423H102.113L106.854 19.8769H108.849L113.608 32.9423H110.955Z" fill="#30454F"/>
<path d="M123.236 32.9423V27.4736H118.824V32.9423H116.281V19.8769H118.824V25.2155H123.236V19.8769H125.781V32.9423H123.236Z" fill="#30454F"/>
<path d="M129.767 32.9423V19.8769H132.31V26.0797L136.521 19.8769H139.562L135.186 26.0069L140 32.9423H136.889L132.31 26.1153V32.9423H129.767Z" fill="#30454F"/>
<path d="M73.1964 0.280579H70.2925V49.6351H73.1964V0.280579Z" fill="#8CC541"/>
</svg>
