<svg width="188" height="44" viewBox="0 0 188 44" fill="none" xmlns="http://www.w3.org/2000/svg">
<path d="M105.869 0.247314L82.3236 3.32319V10.2908L105.869 8.18959V0.247314Z" fill="#E4003A"/>
<path d="M33.9287 25.6225C33.9287 29.851 35.1904 31.3142 39.2388 31.3142C43.2872 31.3142 44.5277 29.8438 44.5277 25.6225C44.5277 21.4012 43.3062 19.9308 39.2388 19.9308C35.1709 19.9308 33.9287 21.3727 33.9287 25.6225ZM26.8151 25.5609C26.8151 17.8131 31.1204 14.2676 39.2388 14.2676C47.3572 14.2676 51.6815 17.8131 51.6815 25.5609C51.6815 33.3087 47.4047 36.9774 39.2388 36.9774C31.0729 36.9774 26.8151 33.3087 26.8151 25.5609Z" fill="#00274F"/>
<path d="M101.411 16.215L82.3235 3.33044V10.2814L88.2752 14.313L89.4462 14.996C87.308 15.0221 86.2839 15.4561 85.2554 16.0775C82.3162 17.849 80.7907 20.9652 80.7907 25.5636C80.7907 33.3114 85.0675 36.9802 93.2144 36.9802C101.362 36.9802 105.66 33.3114 105.66 25.5636C105.66 21.079 104.205 18.0126 101.411 16.215ZM93.2144 31.3145C89.1755 31.3145 87.9043 29.8442 87.9043 25.6229C87.9043 21.4015 89.166 19.9312 93.2144 19.9312C97.2633 19.9312 98.5033 21.3731 98.5033 25.6229C98.5033 29.8726 97.2844 31.3145 93.2144 31.3145Z" fill="#00274F"/>
<path d="M14.5647 14.2399C10.7206 14.2399 7.59618 16.6114 6.82156 17.5932V14.7474H0.000244141V43.858H6.77882V33.5039C7.57459 34.507 10.6774 36.8359 14.5431 36.8359C20.9582 36.8359 24.491 33.3545 24.491 25.5213C24.491 17.6881 20.9629 14.2399 14.5647 14.2399ZM12.1364 31.1964C8.09748 31.1964 6.82632 29.7284 6.82632 25.5047C6.82632 21.281 8.08798 19.813 12.1364 19.813C16.1848 19.813 17.4227 21.2596 17.4227 25.5047C17.4227 29.7497 16.2038 31.1869 12.1364 31.1869V31.1964Z" fill="#00274F"/>
<path d="M152.304 14.7562V22.6605H143.304V14.7562H136.483V36.1475H143.304V28.134H152.304V36.1475H159.128V14.7562H152.304Z" fill="#00274F"/>
<path d="M108.007 25.5213C108.007 33.3473 111.536 36.8359 117.955 36.8359C121.819 36.8359 124.921 34.507 125.717 33.5039V36.1505H132.498V14.7332H125.677V17.579C124.898 16.6114 121.773 14.2399 117.932 14.2399C111.533 14.2399 108.007 17.7094 108.007 25.5213ZM115.073 25.4905C115.073 21.2406 116.292 19.7988 120.362 19.7988C124.432 19.7988 125.67 21.2454 125.67 25.4905C125.67 29.7355 124.408 31.1821 120.362 31.1821C116.316 31.1821 115.071 29.7189 115.071 25.4905H115.073Z" fill="#00274F"/>
<path d="M71.4754 28.2432C70.943 30.4795 69.5177 31.3143 66.4287 31.3143C62.3898 31.3143 61.1208 29.8439 61.1208 25.6226C61.1208 21.4012 62.3898 19.9309 66.4287 19.9309C69.5177 19.9309 70.943 20.7633 71.4776 23.0139L78.5912 22.4756C77.529 16.8787 73.3641 14.2772 66.4287 14.2772C58.3104 14.2772 54.0076 17.8226 54.0076 25.5704C54.0076 33.3182 58.284 36.987 66.4287 36.987C73.3593 36.987 77.4816 34.3309 78.5696 28.7886L71.4754 28.2432Z" fill="#00274F"/>
<path d="M188 36.1451L177.204 24.9135L187.42 14.7562H178.981L169.827 24.0479V14.7562H163.127V36.1451H169.827V28.6653V26.8131V26.2961L179.23 36.1451H188Z" fill="#00274F"/>
</svg>
