<svg width="223" height="52" viewBox="0 0 223 52" fill="none" xmlns="http://www.w3.org/2000/svg">
<g clip-path="url(#clip0_1_333)">
<path d="M77.0417 12.2828C76.6141 11.1713 76.1011 10.9149 74.8186 10.9149H71.4839C70.2868 10.9149 69.7738 11.1713 69.3462 12.3684L58.9145 40.0724C58.4869 41.2695 58.7435 41.7825 60.1116 41.7825H63.1042C65.2418 41.7825 65.8404 41.4405 66.2679 40.1578L67.636 36.0537H78.4098L79.778 40.1578C80.2054 41.4405 80.804 41.7825 83.0272 41.7825H86.2765C87.559 41.7825 87.901 41.1839 87.4735 40.0724L77.0417 12.2828ZM69.5172 30.3247L71.8259 23.5697C72.852 20.4915 72.852 18.2683 72.852 18.2683H73.2794C73.2794 18.2683 73.365 20.4915 74.3911 23.6553L76.6141 30.4102H69.5172V30.3247ZM106.712 10.8293H86.0199C84.6518 10.8293 84.2243 11.2569 84.2243 12.6249V15.5321C84.2243 16.8148 84.6518 17.2422 86.0199 17.2422H92.8604V39.9014C92.8604 41.2695 93.2879 41.697 94.5705 41.697H98.0762C99.4443 41.697 99.8719 41.2695 99.8719 39.9014V17.3278H106.627C107.995 17.3278 108.422 16.9002 108.422 15.6177V12.7104C108.422 11.3423 107.995 10.8293 106.712 10.8293ZM125.267 22.2016H118.256V17.1568H131.338C132.62 17.1568 133.133 16.6437 133.133 15.3611V12.6249C133.133 11.2569 132.62 10.8293 131.338 10.8293H112.869C111.586 10.8293 111.073 11.2569 111.073 12.6249V40.0724C111.073 41.3549 111.586 41.7825 112.783 41.7825H125.182C131.167 41.7825 135.1 38.0203 135.1 32.0348C135.186 25.9639 131.253 22.2016 125.267 22.2016ZM124.241 35.4551H118.17V28.5291H124.241C126.549 28.5291 127.833 29.8972 127.833 32.0348C127.918 34.0869 126.549 35.4551 124.241 35.4551ZM148.867 47.1694H149.379V5.44244H148.867V47.1694ZM164.941 17.4132C164.514 17.4132 163.83 17.2422 163.487 16.9002L163.231 17.3278C163.573 17.6698 164.428 17.9263 165.027 17.9263C166.138 17.9263 166.907 17.4132 166.907 16.5582C166.907 16.0451 166.566 15.5321 165.881 15.4467C166.481 15.1901 166.737 14.7626 166.737 14.335C166.737 13.5655 166.138 13.1379 165.027 13.1379C164.343 13.1379 163.658 13.3945 163.317 13.7365L163.573 14.164C163.915 13.9075 164.343 13.6509 165.027 13.6509C165.711 13.6509 166.224 13.9075 166.224 14.4206C166.224 14.9336 165.796 15.2756 165.284 15.2756H164.514V15.7031H165.284C165.968 15.7031 166.394 15.9597 166.394 16.4727C166.309 17.0712 165.796 17.4132 164.941 17.4132ZM188.2 13.2235H187.685V17.8408H188.2V13.2235ZM200.256 15.0191H197.861V15.5321H200.256V15.0191ZM191.62 17.8408L189.139 15.4467L191.448 13.2235H190.764L188.541 15.4467L190.936 17.8408H191.62ZM171.781 13.993V17.8408H172.295V13.2235H171.781L168.704 17.0712V13.2235H168.191V17.8408H168.704L171.781 13.993ZM157.331 15.3611H160.751L161.777 17.8408H162.376L159.212 10.5727H158.784L155.621 17.8408H156.22L157.331 15.3611ZM159.041 11.3423L160.495 14.848H157.502L159.041 11.3423ZM179.649 17.8408H180.162V13.7365H182.042V13.2235H177.852V13.7365H179.734V17.8408H179.649ZM194.356 13.0525C192.902 13.0525 191.961 14.0786 191.961 15.4467C191.961 16.8148 192.987 17.8408 194.356 17.8408C195.809 17.8408 196.75 16.8148 196.75 15.4467C196.75 14.0786 195.809 13.0525 194.356 13.0525ZM194.356 17.4132C193.244 17.4132 192.474 16.6437 192.474 15.5321C192.474 14.4206 193.244 13.6509 194.356 13.6509C195.467 13.6509 196.236 14.4206 196.236 15.5321C196.151 16.6437 195.382 17.4132 194.356 17.4132ZM175.288 13.0525C174.775 13.0525 174.262 13.2235 173.834 13.4799L174.004 13.9075C174.432 13.6509 174.775 13.5655 175.288 13.5655C176.485 13.5655 176.485 14.2496 176.485 15.3611C176.142 15.1046 175.629 15.0191 175.201 15.0191C174.176 15.0191 173.406 15.5321 173.406 16.4727C173.406 17.3278 174.004 17.8408 174.86 17.8408C175.714 17.8408 176.142 17.4988 176.485 17.0712V17.7553H176.998V14.848C176.998 13.7365 176.57 13.0525 175.288 13.0525ZM176.485 16.6437C176.229 16.9858 175.886 17.4132 175.031 17.4132C174.432 17.4132 174.004 17.0712 174.004 16.4727C174.004 15.7887 174.604 15.5321 175.288 15.5321C175.801 15.5321 176.142 15.6177 176.485 15.8741V16.6437ZM186.659 17.1568L186.403 16.7292C186.062 17.0712 185.549 17.3278 184.949 17.3278C183.839 17.3278 182.983 16.5582 182.983 15.4467C182.983 14.335 183.839 13.5655 184.779 13.5655C185.292 13.5655 185.805 13.7365 186.233 14.0786L186.489 13.6509C186.062 13.2235 185.377 13.0525 184.693 13.0525C183.411 13.0525 182.385 14.0786 182.385 15.4467C182.385 16.9002 183.411 17.8408 184.864 17.8408C185.549 17.9263 186.233 17.6698 186.659 17.1568ZM194.526 24.6812C194.013 24.6812 193.5 24.8522 193.072 25.1088L193.244 25.5363C193.671 25.2798 194.013 25.1943 194.526 25.1943C195.723 25.1943 195.723 25.8783 195.723 26.99C195.382 26.7334 194.869 26.6479 194.441 26.6479C193.415 26.6479 192.646 27.161 192.646 28.1015C192.646 28.9566 193.244 29.4696 194.099 29.4696C194.954 29.4696 195.382 29.1276 195.723 28.7001V29.3842H196.236V26.4769C196.322 25.3653 195.894 24.6812 194.526 24.6812ZM195.723 28.2725C195.467 28.6145 195.125 29.0421 194.269 29.0421C193.671 29.0421 193.244 28.7001 193.244 28.1015C193.244 27.4174 193.843 27.161 194.526 27.161C195.04 27.161 195.382 27.2464 195.723 27.503V28.2725ZM187.087 24.7668H186.403L184.18 26.99L186.574 29.3842H187.259L184.779 26.99L187.087 24.7668ZM201.281 26.819H198.289V24.7668H197.776V29.3842H198.289V27.332H201.281V29.4696H201.794V24.7668H201.281V26.819ZM189.823 24.6812C188.285 24.6812 187.515 25.7073 187.515 27.0754C187.515 28.5291 188.541 29.4696 189.995 29.4696C190.593 29.4696 191.277 29.2131 191.705 28.7855L191.533 28.3581C191.192 28.7001 190.679 28.9566 189.995 28.9566C188.883 28.9566 188.113 28.2725 188.113 27.161H191.961V26.7334C191.961 25.5363 191.021 24.6812 189.823 24.6812ZM188.028 26.7334C188.113 25.7929 188.712 25.1943 189.738 25.1943C190.679 25.1943 191.362 25.7929 191.362 26.7334H188.028ZM213.68 28.6145V24.7668H213.167V29.3842H213.68L216.758 25.5363V29.3842H217.27V24.7668H216.758L213.68 28.6145ZM222.487 24.7668L219.408 28.6145V24.7668H218.896V29.3842H219.408L222.487 25.5363V29.3842H223V24.7668H222.487ZM220.947 23.6553C221.803 23.6553 222.316 23.0567 222.316 22.3726H221.803C221.803 22.8857 221.461 23.3133 220.862 23.3133C220.264 23.3133 219.921 22.8857 219.921 22.3726H219.408C219.58 23.1422 220.093 23.6553 220.947 23.6553ZM158.358 29.3842H158.956V22.7146H161.607V22.2016H155.707V22.7146H158.358V29.3842ZM205.471 29.0421C204.36 29.0421 203.504 28.2725 203.504 27.161C203.504 26.0493 204.36 25.2798 205.299 25.2798C205.814 25.2798 206.327 25.4509 206.753 25.7929L207.01 25.3653C206.583 24.9378 205.899 24.7668 205.214 24.7668C203.932 24.7668 202.906 25.7929 202.906 27.161C202.906 28.6145 203.932 29.5552 205.386 29.5552C206.07 29.5552 206.753 29.2986 207.096 28.7855L206.84 28.3581C206.668 28.7001 206.07 29.0421 205.471 29.0421ZM212.055 24.7668H211.371L209.148 26.99L211.542 29.3842H212.226L209.747 26.99L212.055 24.7668ZM208.207 29.3842H208.72V24.7668H208.207V29.3842ZM179.649 24.6812C178.195 24.6812 177.254 25.7073 177.254 27.0754C177.254 28.4435 178.28 29.4696 179.649 29.4696C181.103 29.4696 182.042 28.4435 182.042 27.0754C182.042 25.7073 181.103 24.6812 179.649 24.6812ZM179.649 29.0421C178.537 29.0421 177.767 28.2725 177.767 27.161C177.767 26.0493 178.537 25.2798 179.649 25.2798C180.76 25.2798 181.529 26.0493 181.529 27.161C181.529 28.1871 180.675 29.0421 179.649 29.0421ZM176.229 27.0754C176.229 25.7073 175.201 24.6812 173.834 24.6812C172.381 24.6812 171.44 25.7073 171.44 27.0754C171.44 28.4435 172.466 29.4696 173.834 29.4696C175.288 29.4696 176.229 28.5291 176.229 27.0754ZM171.953 27.0754C171.953 25.9639 172.722 25.1943 173.834 25.1943C174.945 25.1943 175.714 25.9639 175.714 27.0754C175.714 28.1871 174.945 28.9566 173.834 28.9566C172.722 29.0421 171.953 28.1871 171.953 27.0754ZM183.239 29.3842H183.752V24.7668H183.239V29.3842ZM170.328 29.3842H171.012L169.132 26.99L170.842 24.7668H170.243L168.789 26.6479L167.335 24.7668H166.651L168.361 26.99L166.481 29.3842H167.079L168.704 27.332L170.328 29.3842ZM164.941 29.3842H165.455V24.7668H164.941L161.863 28.6145V24.7668H161.35V29.3842H161.863L164.941 25.5363V29.3842ZM176.57 36.3957H175.886L173.663 38.6187L176.057 41.0129H176.742L174.262 38.6187L176.57 36.3957ZM164.086 36.2247C163.573 36.2247 163.061 36.3957 162.633 36.6521L162.804 37.0797C163.231 36.8232 163.573 36.7377 164.086 36.7377C165.197 36.7377 165.284 37.4216 165.284 38.5333C164.941 38.2767 164.428 38.1913 164.001 38.1913C162.974 38.1913 162.205 38.7043 162.205 39.6448C162.205 40.4999 162.804 41.0129 163.658 41.0129C164.514 41.0129 164.941 40.6709 165.284 40.2434V41.0129H165.796V38.1057C165.796 36.9087 165.369 36.2247 164.086 36.2247ZM165.197 39.8158C164.941 40.1578 164.599 40.5854 163.745 40.5854C163.146 40.5854 162.718 40.2434 162.718 39.6448C162.718 38.9608 163.317 38.7043 164.001 38.7043C164.514 38.7043 164.856 38.7897 165.197 39.0463V39.8158ZM172.808 41.0129H173.321V36.3957H172.808V41.0129ZM170.755 38.3623H167.763V36.3101H167.25V41.0129H167.763V38.8753H170.755V41.0129H171.268V36.3957H170.755V38.3623ZM158.614 36.7377C158.358 36.7377 157.844 36.7377 157.417 36.8232V34.3435H160.837V33.8305H156.904V41.0129H158.528C160.238 41.0129 161.264 40.2434 161.264 38.7897C161.179 37.5072 160.325 36.7377 158.614 36.7377ZM158.528 40.4999H157.417V37.3362C157.844 37.2508 158.272 37.2506 158.614 37.2506C159.982 37.2506 160.666 37.8492 160.666 38.7897C160.666 39.9014 159.897 40.4999 158.528 40.4999Z" fill="#373A36"/>
<path d="M41.214 0.825012H8.20863C3.67671 0.825012 0 4.50178 0 9.03364V42.0389C0 46.5708 3.67671 50.2475 8.20863 50.2475H41.1284C45.6602 50.2475 49.3371 46.5708 49.3371 42.0389V9.03364C49.4225 4.50178 45.7458 0.825012 41.214 0.825012ZM46.8573 41.184C46.7719 41.2694 46.6009 41.3548 46.5153 41.2694C40.1879 37.4217 32.6634 35.1985 24.7113 35.1985C16.7591 35.1985 9.23471 37.4217 2.90722 41.2694C2.82165 41.3548 2.65063 41.2694 2.5652 41.184C2.47962 41.013 2.5652 40.9274 2.65063 40.8419C8.46508 36.3956 13.4245 30.7522 17.2722 24.0827C21.1201 17.4131 23.5142 10.2307 24.4547 3.04817C24.4547 2.96266 24.5403 2.79165 24.7113 2.79165C24.8823 2.79165 24.9678 2.87716 24.9678 3.04817C25.9084 10.2307 28.3025 17.4131 32.1503 24.0827C35.9981 30.7522 41.043 36.3956 46.7719 40.7564C46.9429 40.9274 46.9429 41.013 46.8573 41.184Z" fill="#FE5000"/>
</g>
<defs>
<clipPath id="clip0_1_333">
<rect width="223" height="51.5687" fill="white" transform="translate(0 0.128113)"/>
</clipPath>
</defs>
</svg>
