<svg width="174" height="36" viewBox="0 0 174 36" fill="none" xmlns="http://www.w3.org/2000/svg">
<g clip-path="url(#clip0_1_289)">
<path d="M54.9841 7.75836V16.479H60.5389C64.3138 16.479 66.3575 15.3878 66.3575 12.0641C66.3575 8.73895 64.3669 7.75836 60.592 7.75836H54.9841ZM47.7513 1.4339H62.0592C65.781 1.4339 68.7685 2.35993 70.9169 4.21348C73.1185 6.06702 74.22 8.301 74.22 11.9535C74.22 15.5515 73.1185 18.1674 70.97 20.0195C68.8201 21.873 65.5716 22.8005 62.0592 22.8005H54.9841V34.4644H47.7513V1.4339ZM107.986 21.9202C107.615 26.1021 106.027 28.0072 103.484 30.4963C100.889 32.9839 97.766 34.4659 93.2656 34.4659C88.3921 34.4659 84.4742 33.4071 81.5088 30.1778C78.5434 26.9485 76.9539 22.715 76.9539 17.4213C76.9539 12.3929 78.4373 9.21671 81.4557 5.88122C84.4742 2.5472 88.5514 1.43537 93.5826 1.43537C97.5537 1.43537 100.625 2.70498 103.327 4.92864C106.027 7.20539 107.51 10.3285 107.774 13.8203H100.838C100.466 11.9683 99.6196 10.3802 98.2954 9.37449C96.9712 8.36883 95.33 7.31009 93.3703 7.31009C91.3059 7.31009 89.6101 7.89254 88.2344 9.00585C86.8571 10.1693 86.0092 11.4389 85.4268 13.0801C84.8443 14.8791 84.6865 16.0971 84.6865 17.9506C84.6865 21.0738 85.2159 23.0851 86.804 25.1495C88.3921 27.2139 90.5642 28.2196 93.2641 28.2196C96.9181 28.2196 100.202 25.8367 100.678 21.8671H107.986V21.9202ZM140.571 1.4339L132.197 17.0497L141.753 34.4644H133.325L126.454 21.3628H125.112L118.183 34.4644H109.807L119.419 17.0482L110.882 1.4339H119.313L125.487 13.229H126.184L132.358 1.43537L140.571 1.4339ZM165.757 23.2547C165.757 21.3967 164.048 19.3721 161.22 19.3721H153.801V27.848H161.273C164.423 27.848 165.757 25.4975 165.757 23.2547ZM153.801 13.7938H161.701C165.277 13.7938 168.158 14.0681 170.401 15.9275C172.589 17.7855 173.71 19.7009 173.71 23.3638C173.71 27.0827 172.589 29.818 170.346 31.676C168.105 33.5354 165.116 34.4659 161.326 34.4659H146.33V1.4339H171.361V7.77753H153.801V13.7938Z" fill="black"/>
<path d="M34.9654 1.4339H22.1882V34.4644H34.9654V1.4339Z" fill="#248341"/>
<path d="M18.5502 1.4339H9.42255V34.4644H18.5502V1.4339Z" fill="#A6CE39"/>
<path d="M6.67712 1.4339H0.287781V34.4644H6.67712V1.4339Z" fill="#FFCB05"/>
<path d="M39.0028 3.39366H39.3183C39.2631 3.58437 39.1742 3.76366 39.0559 3.92303C38.8996 4.0292 38.7433 4.13537 38.5339 4.13537C38.2812 4.13727 38.0374 4.04229 37.8526 3.86995C37.6818 3.66125 37.5895 3.39937 37.5916 3.12971C37.5916 2.8112 37.6963 2.59887 37.8541 2.388C38.0104 2.17566 38.2714 2.12258 38.5324 2.12258C38.7433 2.12258 38.8996 2.17566 39.0559 2.28183C39.2136 2.388 39.3183 2.54726 39.3183 2.75812H39.0559C39.0559 2.65195 38.9526 2.54726 38.8996 2.4927C38.7949 2.44109 38.6902 2.388 38.5855 2.388C38.3761 2.388 38.2198 2.44109 38.1136 2.60034C38.0104 2.70503 37.9573 2.91737 37.9573 3.12971C37.9573 3.34058 38.0104 3.49836 38.1151 3.65761C38.2183 3.81687 38.3761 3.86995 38.5869 3.86995C38.7433 3.86995 38.8479 3.81687 38.8996 3.76378C38.9526 3.606 39.0028 3.49836 39.0028 3.39366ZM37.1212 3.07663C37.1212 3.44527 37.2244 3.76378 37.4869 4.0292C37.6096 4.15303 37.7568 4.2499 37.919 4.31363C38.0813 4.37735 38.255 4.40654 38.4292 4.39932C38.6031 4.40634 38.7766 4.37705 38.9385 4.31332C39.1005 4.2496 39.2474 4.15284 39.3699 4.0292C39.4931 3.90401 39.5892 3.75487 39.6524 3.59101C39.7155 3.42716 39.7444 3.25208 39.7371 3.07663C39.7446 2.90093 39.7158 2.72557 39.6527 2.56145C39.5895 2.39733 39.4933 2.24794 39.3699 2.12258C39.2473 1.99921 39.1003 1.90272 38.9384 1.83925C38.7764 1.77579 38.603 1.74673 38.4292 1.75393C38.2551 1.74652 38.0814 1.77548 37.9192 1.83895C37.757 1.90242 37.6097 1.99902 37.4869 2.12258C37.2775 2.388 37.1212 2.70503 37.1212 3.07663ZM38.4292 4.71636C37.9573 4.71636 37.5916 4.55858 37.279 4.24007C37.1242 4.08902 37.0023 3.90752 36.9211 3.70703C36.8399 3.50653 36.8011 3.29139 36.8071 3.07515C36.8071 2.60034 36.9634 2.22875 37.279 1.91024C37.5916 1.5932 37.9573 1.43542 38.4292 1.43542C38.8479 1.43542 39.2653 1.5932 39.5793 1.91171C39.8934 2.22875 40.0512 2.60034 40.0512 3.07663C40.0512 3.55292 39.8934 3.92303 39.5793 4.24154C39.4316 4.39689 39.2529 4.51943 39.0547 4.60123C38.8566 4.68303 38.6435 4.72225 38.4292 4.71636Z" fill="#248341"/>
</g>
<defs>
<clipPath id="clip0_1_289">
<rect width="174" height="35.3898" fill="white" transform="translate(0 0.254272)"/>
</clipPath>
</defs>
</svg>
