<svg width="162" height="51" viewBox="0 0 162 51" fill="none" xmlns="http://www.w3.org/2000/svg">
<g clip-path="url(#clip0_1_357)">
<path d="M32.9767 0.580139L16.4891 17.0692H32.9767V50.0459L49.4657 33.5965V0.580139H32.9767Z" fill="#EA5616"/>
<path d="M16.4891 50.0459L32.9781 33.5568H16.4891V0.580139L0 17.0295V50.0459H16.4891Z" fill="#2C2D84"/>
<path d="M65.9549 41.8013H74.6107V16.2437H87.8008V41.8013H96.4566V8.82466H65.9534V41.8028L65.9549 41.8013ZM150.041 21.1804H142.645V16.2437H159.114V8.82466H133.988V41.8028C133.988 41.8028 146.336 41.8028 150.452 41.8028C157.053 41.8028 162 38.4935 162 31.4916C162 24.4897 157.053 21.1819 150.041 21.1819M149.217 34.7965H142.647V28.2073H149.217C151.259 28.2073 153.327 29.0122 153.327 31.4931C153.327 33.9739 151.259 34.7965 149.217 34.7965ZM117.646 34.7759C111.869 34.7759 108.62 30.5398 108.62 25.3034C108.62 21.0997 110.985 15.8222 117.481 15.8222C121.537 15.8222 124.153 18.3015 125.081 19.456L130.345 14.1918C127.17 10.4022 122.402 7.98889 117.07 7.98889C107.508 7.98889 99.9626 15.0657 99.9626 25.302C99.9626 34.864 107.508 42.615 117.07 42.615C122.794 42.615 127.867 39.8346 131.02 35.5529L125.721 30.2549C124.046 32.8797 121.311 34.773 117.644 34.773" fill="#2C2D84"/>
</g>
<defs>
<clipPath id="clip0_1_357">
<rect width="162" height="49.4657" fill="white" transform="translate(0 0.580139)"/>
</clipPath>
</defs>
</svg>
