<svg width="184" height="57" viewBox="0 0 184 57" fill="none" xmlns="http://www.w3.org/2000/svg">
<path d="M91.6155 24.3712C90.3459 23.8828 88.6855 23.7364 86.8787 23.7364H76.8181V20.6108H94.1063V15.239H69.7369V38.4849H86.2436C88.5391 38.4849 90.2479 38.2896 91.518 37.801C94.204 36.7753 96.0109 34.2848 96.0109 31.0129C96.0109 27.6923 94.3016 25.3968 91.6155 24.3712ZM88.0994 32.4291C87.7087 32.5758 87.1715 32.6244 86.4876 32.6244H76.8181V28.913H86.4876C87.2693 28.913 87.9038 28.9621 88.3924 29.206C88.9783 29.4991 89.2714 30.0364 89.2714 30.7198C89.2714 31.4035 88.9297 32.136 88.0994 32.4291Z" fill="#333333"/>
<path d="M115.866 15.239H105.513L95.9897 38.4849H103.999L105.317 35.1152H116.061L117.429 38.4849H125.389L115.866 15.239ZM107.075 29.9872L110.445 20.6108H110.982L114.352 29.9872H107.075Z" fill="#333333"/>
<path d="M134.504 29.8411V38.4849H127.423V15.239H134.504V23.7365H145.883V15.239H152.964V38.4849H145.883V29.8411H134.504Z" fill="#333333"/>
<path d="M164.173 29.6946V38.4849H157.091V15.239H164.173V23.9806H166.126L174.672 15.239H183.56L172.231 26.3736L184 38.4849H174.575L166.126 29.6946H164.173Z" fill="#333333"/>
<path d="M0 0.29541H56.4539V28.6876C56.4539 35.9661 52.5711 42.692 46.268 46.3316L28.227 56.7493L10.186 46.3316C3.8828 42.692 0 35.9661 0 28.6876V0.29541Z" fill="#FFDD2D"/>
<path fill-rule="evenodd" clip-rule="evenodd" d="M15.4933 15.239V24.0695C16.7008 22.7059 18.8963 21.783 21.4066 21.783H24.1346V32.0485C24.1346 34.7796 23.3926 37.1701 22.2916 38.4849H34.1578C33.0591 37.1687 32.3188 34.7813 32.3188 32.0537V21.783H35.0469C37.5572 21.783 39.7526 22.7059 40.9602 24.0695V15.239H15.4933Z" fill="#333333"/>
</svg>
