<svg width="236" height="120" viewBox="0 0 236 120" fill="none" xmlns="http://www.w3.org/2000/svg">
<path d="M0 19.5C0 15.3164 0 13.2246 0.414451 11.4983C1.73122 6.01359 6.01359 1.73122 11.4983 0.414451C13.2246 0 15.3164 0 19.5 0H214.981C219.832 0 222.257 0 224.155 0.505662C230.214 2.1199 234.629 7.33204 235.225 13.5735C235.412 15.5287 235.013 17.921 234.216 22.7058L220.716 103.706C220.124 107.256 219.828 109.032 219.245 110.508C217.401 115.179 213.343 118.617 208.432 119.668C206.88 120 205.081 120 201.481 120H19.5C15.3164 120 13.2246 120 11.4983 119.586C6.01359 118.269 1.73122 113.986 0.414451 108.502C0 106.775 0 104.684 0 100.5V19.5Z" fill="white"/>
</svg>
