<svg width="426" height="120" viewBox="0 0 426 120" fill="none" xmlns="http://www.w3.org/2000/svg">
<path d="M426 100.5C426 104.684 426 106.775 425.586 108.502C424.269 113.986 419.986 118.269 414.502 119.586C412.775 120 410.684 120 406.5 120H19.5C15.3164 120 13.2246 120 11.4983 119.586C6.01361 118.269 1.73123 113.986 0.414459 108.502C0 106.775 0 104.684 0 100.5V19.5C0 15.3164 0 13.2246 0.414459 11.4983C1.73123 6.01359 6.01361 1.73122 11.4983 0.414452C13.2246 0 15.3164 0 19.5 0H406.5C410.684 0 412.775 0 414.502 0.414452C419.986 1.73122 424.269 6.01359 425.586 11.4983C426 13.2246 426 15.3164 426 19.5V100.5Z" fill="white"/>
</svg>
