<svg width="268" height="120" viewBox="0 0 268 120" fill="none" xmlns="http://www.w3.org/2000/svg">
<path d="M0 19.5C0 15.3164 0 13.2246 0.414451 11.4983C1.73122 6.01359 6.01359 1.73122 11.4983 0.414451C13.2246 0 15.3164 0 19.5 0H233.726C237.277 0 239.052 0 240.588 0.325302C245.447 1.35408 249.482 4.7214 251.364 9.31806C251.958 10.7715 252.276 12.5183 252.911 16.0117L265.974 87.8581C266.825 92.536 267.25 94.875 267.1 96.8077C266.624 102.974 262.412 108.215 256.493 110.007C254.638 110.569 252.262 110.657 247.51 110.833L20.2217 119.251C15.8998 119.411 13.7388 119.491 11.9589 119.123C6.29827 117.951 1.8148 113.63 0.434121 108.017C0 106.252 0 104.089 0 99.7644V19.5Z" fill="white"/>
</svg>
