<svg width="418" height="140" viewBox="0 0 418 140" fill="none" xmlns="http://www.w3.org/2000/svg">
<path d="M15.6175 123.491C16.1754 127.085 16.4543 128.882 17.0277 130.376C18.8421 135.102 22.9185 138.595 27.8675 139.663C29.4314 140 31.2499 140 34.8867 140H398C402.184 140 404.275 140 406.002 139.586C411.486 138.269 415.769 133.986 417.086 128.502C417.5 126.775 417.5 124.684 417.5 120.5V19.9704C417.5 15.6963 417.5 13.5593 417.073 11.808C415.715 6.24045 411.304 1.933 405.706 0.708344C403.945 0.323135 401.808 0.374054 397.535 0.475922L20.2128 9.47049C15.5131 9.58252 13.1633 9.63853 11.3136 10.1684C5.41518 11.858 1.14042 16.9696 0.520902 23.0739C0.326633 24.9881 0.687189 27.3108 1.4083 31.9562L15.6175 123.491Z" fill="white"/>
</svg>
