<svg width="288" height="130" viewBox="0 0 288 130" fill="none" xmlns="http://www.w3.org/2000/svg">
<path d="M0 28.8392C0 24.7835 0 22.7556 0.396541 21.0655C1.65524 15.7006 5.75422 11.4578 11.0725 10.015C12.748 9.56041 14.7747 9.49053 18.828 9.35076L266.579 0.807626C271.504 0.637787 273.967 0.552868 275.899 1.00246C282.072 2.4385 286.677 7.59926 287.402 13.8954C287.629 15.8666 287.265 18.3036 286.537 23.1777L273.059 113.382C272.518 116.998 272.248 118.805 271.68 120.308C269.881 125.063 265.795 128.583 260.827 129.66C259.257 130 257.429 130 253.773 130H19.5C15.3164 130 13.2246 130 11.4983 129.586C6.01359 128.269 1.73122 123.986 0.414451 118.502C0 116.775 0 114.684 0 110.5V28.8392Z" fill="white"/>
</svg>
