<svg width="218" height="120" viewBox="0 0 218 120" fill="none" xmlns="http://www.w3.org/2000/svg">
<path d="M2.13655 22.9578C1.2662 18.1274 0.831022 15.7122 0.99725 13.7401C1.52812 7.44209 5.94977 2.15254 12.0538 0.51329C13.9652 0 16.4193 0 21.3275 0H198.5C202.684 0 204.775 0 206.502 0.414451C211.986 1.73122 216.269 6.01359 217.586 11.4983C218 13.2246 218 15.3164 218 19.5V99.5016C218 103.877 218 106.064 217.559 107.843C216.156 113.501 211.601 117.834 205.88 118.953C204.082 119.305 201.897 119.196 197.527 118.977L33.291 110.773C29.9017 110.604 28.2071 110.519 26.7391 110.142C22.1019 108.951 18.3116 105.619 16.5373 101.172C15.9756 99.7646 15.6747 98.0947 15.073 94.755L2.13655 22.9578Z" fill="white"/>
</svg>
