<svg width="104" height="110" viewBox="0 0 104 110" fill="none" xmlns="http://www.w3.org/2000/svg">
<path d="M92.9429 43.5582C97.1619 45.8338 99.2715 46.9716 100.385 48.1594C103.993 52.0063 103.993 57.9937 100.385 61.8406C99.2715 63.0284 97.1619 64.1662 92.9429 66.4418L19.3276 106.147C15.4619 108.232 13.529 109.275 11.994 109.562C7.03905 110.488 2.16921 107.582 0.63235 102.781C0.156245 101.294 0.156245 99.0978 0.156245 94.7056L0.156249 15.2944C0.156249 10.9022 0.156249 8.70612 0.632354 7.21887C2.16921 2.41805 7.03905 -0.488356 11.994 0.438028C13.529 0.725011 15.4619 1.76753 19.3276 3.85257L92.9429 43.5582Z" fill="white"/>
</svg>
